G04 DipTrace 2.2.0.9*
%INBottomMask.gbr*%
%MOIN*%
%ADD26C,0.04*%
%ADD31C,0.048*%
%ADD33C,0.088*%
%ADD43C,0.0867*%
%FSLAX44Y44*%
%SFA1B1*%
%OFA0B0*%
G04*
G70*
G90*
G75*
G01*
%LNBotMask*%
%LPD*%
D31*
X10826Y19133D3*
X5740Y14490D3*
X5840Y15990D3*
D26*
X11940Y16335D3*
X10061Y12716D3*
X8580Y17552D3*
X7227Y12806D3*
X6762Y20505D3*
X9668Y6683D3*
X13535Y23164D3*
X10440Y19816D3*
Y21325D3*
X7616Y4835D3*
X5930Y6246D3*
X5535Y4424D3*
X7742Y16257D3*
X5670Y17335D3*
Y18342D3*
X12200Y22634D3*
X6440Y22690D3*
X6762Y21460D3*
X7742Y19127D3*
X8050Y17552D3*
X7590Y15290D3*
X8785Y13138D3*
X9713Y7608D3*
X7227Y14114D3*
X11557Y11515D3*
X9686Y12321D3*
X8865Y11926D3*
X8335Y12716D3*
X10159Y14250D3*
X8662Y13720D3*
X7740Y15740D3*
X7227Y12121D3*
X6834Y10730D3*
X6045D3*
X5890Y9440D3*
X5670Y6940D3*
X8664Y11136D3*
Y6835D3*
X8452Y5851D3*
X9318Y11531D3*
Y7213D3*
X8146Y4835D3*
X10274Y8835D3*
X10804Y9545D3*
X10409Y11830D3*
X11952Y11140D3*
D43*
X6940Y8440D3*
Y7440D3*
Y6440D3*
X7940D3*
Y7440D3*
Y8440D3*
D33*
X4940Y19940D3*
Y18940D3*
Y17940D3*
Y16940D3*
Y15940D3*
Y14940D3*
Y13940D3*
Y12940D3*
Y11940D3*
Y10940D3*
Y9940D3*
Y8940D3*
Y7940D3*
Y6940D3*
Y5940D3*
Y4940D3*
X12940D3*
Y5940D3*
Y6940D3*
Y7940D3*
Y8940D3*
Y9940D3*
Y10940D3*
Y11940D3*
Y12940D3*
Y13940D3*
Y14940D3*
Y15940D3*
Y16940D3*
Y17940D3*
Y18940D3*
Y19940D3*
M02*
