G04 DipTrace 2.2.0.9*
%INBottom.gbr*%
%MOIN*%
%ADD13C,0.013*%
%ADD14C,0.025*%
%ADD20C,0.0787*%
%ADD25C,0.08*%
%ADD26C,0.04*%
%FSLAX44Y44*%
%SFA1B1*%
%OFA0B0*%
G04*
G70*
G90*
G75*
G01*
%LNBottom*%
%LPD*%
X23234Y6909D2*
D13*
X23690D1*
X23950Y7169D1*
Y8120D1*
X9560Y8254D2*
X8864D1*
X8604Y7994D1*
Y6664D1*
X24539Y10580D2*
X24144Y10975D1*
X23155D1*
X23090Y10910D1*
X22560D1*
X23090D2*
Y11890D1*
X23950Y8120D2*
X24539Y8709D1*
Y10580D1*
X8604Y6664D2*
X7489D1*
X7229Y6924D1*
Y9465D1*
X8880Y10262D2*
X10820D1*
X8485Y9732D2*
X10445D1*
X7624Y7180D2*
Y11175D1*
X7574Y11225D1*
X12680Y8130D2*
X12385Y7835D1*
X9259D1*
X8999Y7575D1*
Y6134D1*
X12300Y6720D2*
X15360D1*
X15450Y6630D1*
X12280Y8850D2*
X15770D1*
X18691Y7061D2*
X16661D1*
X15740Y6140D1*
X13700D1*
X13630Y6210D1*
X19535Y7061D2*
Y7591D1*
X19795Y7850D1*
X21350D1*
Y9860D1*
X21610Y10120D1*
X22950D1*
X14100Y7282D2*
X14652Y7834D1*
X15692D1*
X16239Y8380D1*
X16119Y8500D1*
X13147D1*
X13027Y8380D1*
Y7835D1*
X12767Y7575D1*
X9653D1*
X9394Y7315D1*
Y5144D1*
X9140Y4890D1*
X20275Y8640D2*
X16498D1*
X16239Y8380D1*
X8140Y4890D2*
Y5485D1*
X7624D1*
X6659Y6449D1*
Y12225D1*
X6919Y12485D1*
X24933D1*
X25193Y12225D1*
Y6326D1*
X24933Y6066D1*
X22612D1*
X22352Y6326D1*
Y8522D1*
X22950Y9120D1*
X12140Y4890D2*
X12799Y4231D1*
X25328D1*
X25550Y4452D1*
Y11370D1*
X22950Y8120D2*
X22839Y8009D1*
Y6586D1*
X23099Y6326D1*
X24674D1*
X24933Y6586D1*
Y11235D1*
X24798Y11370D1*
X16899Y8136D2*
X16396D1*
X15830Y7570D1*
X15010D1*
X14794Y7354D1*
Y7179D1*
X21957Y9725D2*
Y6461D1*
Y10515D2*
X22090Y10648D1*
Y11890D1*
X15510Y8160D2*
X13790D1*
X12930Y7300D1*
X12040D1*
X11640Y6880D1*
Y6360D1*
X12880Y5882D1*
Y4890D1*
X13140D1*
X14535Y5620D2*
X14340D1*
X14140Y5420D1*
Y4890D1*
X18691Y6424D2*
X16674D1*
X15140Y4890D1*
X17050Y5800D2*
X16950D1*
X16040Y4890D1*
X16140D1*
X17732Y6029D2*
X17480Y5540D1*
X17140Y4890D1*
X18296Y5995D2*
X18140Y5839D1*
Y4890D1*
X17294Y7542D2*
X18880D1*
X19140Y7282D1*
Y4890D1*
X20140Y7456D2*
Y4890D1*
X20940Y8245D2*
X21090Y8395D1*
Y11890D1*
X19880Y9151D2*
X20090Y9361D1*
Y11890D1*
X18691Y9416D2*
X18890D1*
X19090Y9616D1*
Y11890D1*
X18090Y10384D2*
Y11890D1*
X18691Y9946D2*
X17350D1*
X17090Y10206D1*
Y11890D1*
X16369Y9440D2*
Y10611D1*
X15090Y11890D1*
X15504Y9835D2*
X14090Y11249D1*
Y11890D1*
X15077Y9295D2*
X12633D1*
X11090Y10838D1*
Y11890D1*
X10090Y8427D2*
X9609Y8909D1*
X8350D1*
X8090Y9168D1*
Y11890D1*
D26*
X17050Y5800D3*
X12280Y8850D3*
X12300Y6720D3*
X15450Y6630D3*
X15680Y7110D3*
X15770Y8850D3*
X10820Y10262D3*
X8880D3*
X10445Y9732D3*
X8485D3*
X7574Y11225D3*
X7624Y7180D3*
X8999Y6134D3*
X12680Y8130D3*
X10643Y9180D3*
X10660Y7180D3*
X22560Y10910D3*
X7229Y9465D3*
X9560Y8254D3*
X23234Y6909D3*
X24539Y10580D3*
X8604Y6664D3*
X13630Y6210D3*
X18691Y7061D3*
X19535D3*
X14100Y7282D3*
X20275Y8640D3*
X25550Y11370D3*
X24798D3*
X14794Y7179D3*
X16899Y8136D3*
X21957Y6461D3*
Y9725D3*
Y10515D3*
X15510Y8160D3*
X14535Y5620D3*
X18691Y6424D3*
X17732Y6029D3*
X18296Y5995D3*
X17294Y7542D3*
X20140Y7456D3*
X20940Y8245D3*
X19880Y9151D3*
X18691Y9416D3*
X18090Y10384D3*
X18691Y9946D3*
X16369Y9440D3*
X15504Y9835D3*
X15077Y9295D3*
X10090Y8427D3*
X4310Y12286D2*
D14*
X6309D1*
X4310Y12038D2*
X6305D1*
X7015D2*
X7418D1*
X23765D2*
X24840D1*
X4310Y11789D2*
X6305D1*
X7015D2*
X7406D1*
X23773D2*
X24574D1*
X4310Y11540D2*
X6305D1*
X7015D2*
X7207D1*
X23679D2*
X24340D1*
X4310Y11292D2*
X6305D1*
X8445D2*
X8774D1*
X9406D2*
X9774D1*
X10406D2*
X10735D1*
X11445D2*
X11774D1*
X12406D2*
X12774D1*
X13406D2*
X13735D1*
X14539D2*
X14774D1*
X16406D2*
X16735D1*
X17445D2*
X17735D1*
X18445D2*
X18735D1*
X19445D2*
X19735D1*
X20445D2*
X20735D1*
X21445D2*
X21735D1*
X4310Y11043D2*
X6305D1*
X7015D2*
X7122D1*
X8445D2*
X10735D1*
X11445D2*
X13809D1*
X14789D2*
X15446D1*
X16429D2*
X16735D1*
X17445D2*
X17735D1*
X18445D2*
X18735D1*
X19445D2*
X19735D1*
X20445D2*
X20735D1*
X21445D2*
X21735D1*
X4310Y10794D2*
X6305D1*
X7015D2*
X7270D1*
X8445D2*
X10739D1*
X11624D2*
X14055D1*
X15035D2*
X15696D1*
X17445D2*
X17735D1*
X18445D2*
X18735D1*
X19445D2*
X19735D1*
X20445D2*
X20735D1*
X21445D2*
X21564D1*
X4310Y10545D2*
X6305D1*
X7015D2*
X7270D1*
X11874D2*
X14301D1*
X15285D2*
X15942D1*
X17445D2*
X17631D1*
X18550D2*
X18735D1*
X19445D2*
X19735D1*
X20445D2*
X20735D1*
X23476D2*
X24051D1*
X4310Y10297D2*
X6305D1*
X7015D2*
X7270D1*
X12121D2*
X14551D1*
X15581D2*
X16016D1*
X17492D2*
X17608D1*
X19445D2*
X19735D1*
X20445D2*
X20735D1*
X23609D2*
X24145D1*
X4310Y10048D2*
X6305D1*
X7015D2*
X7270D1*
X11257D2*
X11387D1*
X12371D2*
X14797D1*
X15941D2*
X16017D1*
X19445D2*
X19735D1*
X20445D2*
X20735D1*
X23628D2*
X24184D1*
X4310Y9799D2*
X6305D1*
X10929D2*
X11637D1*
X12621D2*
X15016D1*
X16722D2*
X17004D1*
X19445D2*
X19735D1*
X20445D2*
X20735D1*
X23550D2*
X24184D1*
X4310Y9551D2*
X6305D1*
X10949D2*
X11887D1*
X16847D2*
X18223D1*
X19437D2*
X19616D1*
X20445D2*
X20735D1*
X4310Y9302D2*
X6305D1*
X8687D2*
X10168D1*
X11117D2*
X12133D1*
X16839D2*
X18215D1*
X19269D2*
X19414D1*
X20441D2*
X20735D1*
X4310Y9053D2*
X6305D1*
X9956D2*
X10172D1*
X11117D2*
X11836D1*
X16652D2*
X18375D1*
X19007D2*
X19399D1*
X20511D2*
X20735D1*
X4310Y8805D2*
X6305D1*
X10941D2*
X11793D1*
X4310Y8556D2*
X6305D1*
X7980D2*
X8707D1*
X10562D2*
X11895D1*
X4310Y8307D2*
X6305D1*
X7980D2*
X8426D1*
X10566D2*
X12227D1*
X17355D2*
X19926D1*
X4310Y8059D2*
X6305D1*
X7980D2*
X8254D1*
X17382D2*
X19512D1*
X4310Y7810D2*
X6305D1*
X7980D2*
X8250D1*
X13933D2*
X14137D1*
X19097D2*
X19262D1*
X4310Y7561D2*
X6305D1*
X7980D2*
X8250D1*
X16312D2*
X16805D1*
X23324D2*
X23578D1*
X24324D2*
X24578D1*
X4310Y7313D2*
X6305D1*
X8093D2*
X8250D1*
X13433D2*
X13610D1*
X16124D2*
X16422D1*
X20609D2*
X21602D1*
X23492D2*
X23596D1*
X24304D2*
X24578D1*
X4310Y7064D2*
X6305D1*
X8101D2*
X8250D1*
X9749D2*
X10184D1*
X11136D2*
X11340D1*
X13187D2*
X13664D1*
X20496D2*
X21602D1*
X24289D2*
X24578D1*
X4310Y6815D2*
X6305D1*
X9749D2*
X10348D1*
X10972D2*
X11285D1*
X20496D2*
X21602D1*
X24089D2*
X24578D1*
X4310Y6566D2*
X6305D1*
X9749D2*
X11285D1*
X19496D2*
X19785D1*
X20496D2*
X21481D1*
X4310Y6318D2*
X6332D1*
X7281D2*
X8270D1*
X9749D2*
X11289D1*
X12691D2*
X13153D1*
X19496D2*
X19785D1*
X20496D2*
X21489D1*
X4310Y6069D2*
X6547D1*
X7531D2*
X8512D1*
X9749D2*
X11461D1*
X19496D2*
X19785D1*
X20496D2*
X21684D1*
X4310Y5820D2*
X6797D1*
X7781D2*
X8629D1*
X9749D2*
X12098D1*
X13234D2*
X13350D1*
X19496D2*
X19785D1*
X20496D2*
X22367D1*
X4310Y5572D2*
X7047D1*
X8484D2*
X9039D1*
X9749D2*
X12524D1*
X13234D2*
X13821D1*
X15023D2*
X15328D1*
X18515D2*
X18785D1*
X19496D2*
X19785D1*
X20496D2*
X25196D1*
X4310Y5323D2*
X7293D1*
X21671D2*
X22610D1*
X23671D2*
X25196D1*
X4310Y5074D2*
X7477D1*
X21804D2*
X22477D1*
X23804D2*
X25196D1*
X4310Y4826D2*
X7453D1*
X21828D2*
X22453D1*
X23828D2*
X25196D1*
X4310Y4577D2*
X7528D1*
X21753D2*
X22528D1*
X23753D2*
X25184D1*
X4310Y4328D2*
X7758D1*
X24604Y8070D2*
X24597Y7996D1*
X24562Y7876D1*
X24505Y7765D1*
X24428Y7667D1*
X24334Y7585D1*
X24276Y7551D1*
X24280Y7169D1*
X24257Y7047D1*
X24183Y6936D1*
X23920Y6674D1*
X23974Y6656D1*
X24540D1*
X24604Y6723D1*
Y8035D1*
X23621Y7550D2*
X23522Y7619D1*
X23449Y7695D1*
X23334Y7585D1*
X23226Y7522D1*
X23171Y7503D1*
X23169Y7372D1*
X23293Y7371D1*
X23413Y7338D1*
X23521Y7275D1*
X23556Y7239D1*
X23620Y7306D1*
Y7548D1*
X23451Y9546D2*
X23512Y9612D1*
X23613Y9686D1*
X23726Y9739D1*
X23846Y9770D1*
X23971Y9778D1*
X24095Y9763D1*
X24210Y9725D1*
X24209Y10252D1*
X24121Y10376D1*
X24081Y10494D1*
X24077Y10576D1*
X24004Y10648D1*
X23351Y10645D1*
X23418Y10583D1*
X23497Y10487D1*
X23557Y10377D1*
X23594Y10258D1*
X23609Y10120D1*
X23597Y9996D1*
X23562Y9876D1*
X23505Y9765D1*
X23428Y9667D1*
X23378Y9623D1*
X23450Y9544D1*
X23793Y4766D2*
X23759Y4646D1*
X23714Y4559D1*
X25194Y4560D1*
X25220Y4702D1*
Y5886D1*
X25167Y5833D1*
X25064Y5763D1*
X24933Y5736D1*
X22612D1*
X22490Y5760D1*
X22379Y5833D1*
X22168Y6044D1*
X22062Y6008D1*
X21938Y5997D1*
X21815Y6018D1*
X21702Y6072D1*
X21608Y6154D1*
X21539Y6257D1*
X21500Y6376D1*
X21494Y6500D1*
X21521Y6622D1*
X21579Y6732D1*
X21630Y6786D1*
X21627Y7668D1*
X21505Y7559D1*
X21386Y7522D1*
X20604Y7520D1*
X20605Y7456D1*
X20588Y7332D1*
X20539Y7217D1*
X20469Y7129D1*
X20470Y5467D1*
X20588Y5382D1*
X20638Y5327D1*
X20777Y5447D1*
X20888Y5505D1*
X21007Y5542D1*
X21131Y5555D1*
X21256Y5545D1*
X21376Y5512D1*
X21488Y5457D1*
X21588Y5382D1*
X21672Y5289D1*
X21737Y5183D1*
X21781Y5066D1*
X21805Y4890D1*
X21793Y4766D1*
X21759Y4646D1*
X21714Y4559D1*
X22561Y4560D1*
X22509Y4680D1*
X22481Y4801D1*
X22476Y4926D1*
X22494Y5049D1*
X22535Y5167D1*
X22598Y5275D1*
X22679Y5370D1*
X22777Y5447D1*
X22888Y5505D1*
X23007Y5542D1*
X23131Y5555D1*
X23256Y5545D1*
X23376Y5512D1*
X23488Y5457D1*
X23588Y5382D1*
X23672Y5289D1*
X23737Y5183D1*
X23781Y5066D1*
X23805Y4890D1*
X23793Y4766D1*
X19641Y5325D2*
X19679Y5370D1*
X19808Y5464D1*
X19810Y6683D1*
X19756Y6652D1*
X19639Y6608D1*
X19515Y6596D1*
X19473Y6604D1*
X19470Y5782D1*
Y5466D1*
X19588Y5382D1*
X19638Y5327D1*
X18641Y5325D2*
X18679Y5370D1*
X18808Y5464D1*
X18810Y5972D1*
X18760Y5967D1*
X18744Y5871D1*
X18695Y5757D1*
X18618Y5659D1*
X18517Y5586D1*
X18470Y5568D1*
X18488Y5457D1*
X18588Y5382D1*
X18638Y5327D1*
X14996Y5538D2*
X15131Y5555D1*
X15256Y5545D1*
X15312Y5529D1*
X15594Y5811D1*
X14963Y5810D1*
X14998Y5667D1*
X14989Y5539D1*
X13641Y5325D2*
X13679Y5370D1*
X13815Y5467D1*
X13824Y5516D1*
X13882Y5626D1*
X14064Y5811D1*
X13869Y5810D1*
X13735Y5757D1*
X13610Y5745D1*
X13488Y5767D1*
X13375Y5821D1*
X13281Y5903D1*
X13212Y6006D1*
X13173Y6125D1*
X13167Y6249D1*
X13203Y6388D1*
X12630Y6390D1*
X12575Y6350D1*
X12999Y6190D1*
X13104Y6124D1*
X13178Y6024D1*
X13210Y5882D1*
Y5550D1*
X13376Y5512D1*
X13488Y5457D1*
X13588Y5382D1*
X13638Y5327D1*
X9725Y5406D2*
X9777Y5447D1*
X9888Y5505D1*
X10007Y5542D1*
X10131Y5555D1*
X10256Y5545D1*
X10376Y5512D1*
X10488Y5457D1*
X10588Y5382D1*
X10641Y5325D1*
X10679Y5370D1*
X10777Y5447D1*
X10888Y5505D1*
X11007Y5542D1*
X11131Y5555D1*
X11256Y5545D1*
X11376Y5512D1*
X11488Y5457D1*
X11588Y5382D1*
X11641Y5325D1*
X11679Y5370D1*
X11777Y5447D1*
X11888Y5505D1*
X12007Y5542D1*
X12131Y5555D1*
X12256Y5545D1*
X12376Y5512D1*
X12488Y5457D1*
X12547Y5412D1*
X12550Y5652D1*
X12062Y5844D1*
X11521Y6052D1*
X11416Y6118D1*
X11342Y6218D1*
X11310Y6360D1*
Y6880D1*
X11333Y7002D1*
X11401Y7108D1*
X11533Y7246D1*
X11123Y7245D1*
X11125Y7180D1*
X11108Y7056D1*
X11059Y6942D1*
X10981Y6844D1*
X10881Y6771D1*
X10764Y6727D1*
X10640Y6715D1*
X10517Y6737D1*
X10405Y6791D1*
X10311Y6872D1*
X10242Y6976D1*
X10203Y7094D1*
X10202Y7246D1*
X9787Y7245D1*
X9724Y7178D1*
Y5405D1*
X8641Y5325D2*
X8679Y5370D1*
X8777Y5447D1*
X8888Y5505D1*
X9007Y5542D1*
X9065Y5548D1*
X9064Y5671D1*
X8979Y5670D1*
X8856Y5691D1*
X8744Y5745D1*
X8650Y5827D1*
X8581Y5930D1*
X8542Y6049D1*
X8541Y6200D1*
X8462Y6221D1*
X8349Y6275D1*
X8281Y6334D1*
X7489D1*
X7367Y6357D1*
X7256Y6431D1*
X6994Y6694D1*
X6989Y6588D1*
X7763Y5813D1*
X8140Y5815D1*
X8262Y5791D1*
X8367Y5725D1*
X8439Y5624D1*
X8470Y5485D1*
Y5465D1*
X8588Y5382D1*
X8638Y5327D1*
X7870Y4286D2*
X7823Y4305D1*
X7719Y4375D1*
X7631Y4463D1*
X7560Y4565D1*
X7509Y4680D1*
X7481Y4801D1*
X7476Y4926D1*
X7494Y5049D1*
X7534Y5163D1*
X7418Y5227D1*
X6426Y6216D1*
X6356Y6319D1*
X6329Y6449D1*
Y12225D1*
X6353Y12347D1*
X6426Y12458D1*
X6501Y12533D1*
X4990Y12535D1*
X4285D1*
Y4285D1*
X7867D1*
X23697Y12157D2*
X23731Y12066D1*
X23755Y11890D1*
X23743Y11766D1*
X23709Y11646D1*
X23652Y11535D1*
X23576Y11436D1*
X23482Y11353D1*
X23419Y11315D1*
X23655Y11305D1*
X24144D1*
X24269Y11279D1*
X24352Y11230D1*
X24335Y11409D1*
X24362Y11530D1*
X24420Y11640D1*
X24506Y11731D1*
X24613Y11796D1*
X24732Y11830D1*
X24861D1*
X24863Y12088D1*
X24797Y12155D1*
X23703D1*
X21763Y11312D2*
X21669Y11375D1*
X21589Y11454D1*
X21482Y11353D1*
X21419Y11315D1*
X21420Y10386D1*
X21483Y10424D1*
X21494Y10554D1*
X21521Y10676D1*
X21579Y10786D1*
X21665Y10876D1*
X21761Y10935D1*
X21760Y11316D1*
X20763Y11312D2*
X20669Y11375D1*
X20589Y11454D1*
X20482Y11353D1*
X20419Y11315D1*
X20420Y9361D1*
X20394Y9235D1*
X20345Y9151D1*
X20338Y9100D1*
X20454Y9069D1*
X20561Y9006D1*
X20648Y8917D1*
X20708Y8808D1*
X20738Y8665D1*
X20758Y8673D1*
X20760Y11313D1*
X19763Y11312D2*
X19669Y11375D1*
X19589Y11454D1*
X19482Y11353D1*
X19419Y11315D1*
X19420Y9616D1*
X19397Y9494D1*
X19323Y9383D1*
X19013Y9080D1*
X18912Y9007D1*
X18814Y8970D1*
X19448D1*
X19423Y9065D1*
X19416Y9190D1*
X19443Y9311D1*
X19502Y9421D1*
X19587Y9512D1*
X19694Y9577D1*
X19758Y9595D1*
X19760Y10486D1*
Y11310D1*
X18763Y11312D2*
X18669Y11375D1*
X18589Y11454D1*
X18482Y11353D1*
X18419Y11315D1*
X18420Y10714D1*
X18464Y10661D1*
X18524Y10552D1*
X18555Y10392D1*
X18625Y10406D1*
X18761Y10404D1*
X18760Y11315D1*
X16763Y11312D2*
X16669Y11375D1*
X16589Y11454D1*
X16482Y11353D1*
X16375Y11289D1*
X16258Y11247D1*
X16208Y11238D1*
X16602Y10845D1*
X16672Y10742D1*
X16699Y10611D1*
Y9764D1*
X16742Y9717D1*
X16802Y9608D1*
X16831Y9486D1*
X16834Y9440D1*
X16817Y9316D1*
X16768Y9202D1*
X16691Y9104D1*
X16590Y9031D1*
X16473Y8987D1*
X16349Y8975D1*
X16209Y9006D1*
X16235Y8850D1*
X16233Y8838D1*
X16265Y8873D1*
X16368Y8943D1*
X16498Y8970D1*
X18549Y8973D1*
X18436Y9027D1*
X18342Y9109D1*
X18273Y9212D1*
X18234Y9331D1*
X18228Y9455D1*
X18255Y9577D1*
X18275Y9615D1*
X17350Y9616D1*
X17228Y9639D1*
X17117Y9713D1*
X16857Y9972D1*
X16787Y10075D1*
X16760Y10206D1*
Y11311D1*
X15261Y11248D2*
X15135Y11226D1*
X15010Y11230D1*
X14888Y11256D1*
X14773Y11305D1*
X14669Y11375D1*
X14589Y11454D1*
X14482Y11353D1*
X14466Y11343D1*
X15508Y10297D1*
X15562Y10296D1*
X15683Y10264D1*
X15790Y10201D1*
X15877Y10112D1*
X15938Y10003D1*
X15967Y9881D1*
X15969Y9835D1*
X15952Y9711D1*
X15903Y9597D1*
X15826Y9499D1*
X15725Y9426D1*
X15608Y9382D1*
X15535Y9375D1*
X15542Y9295D1*
X15537Y9252D1*
X15584Y9276D1*
X15704Y9310D1*
X15829Y9311D1*
X15930Y9284D1*
X15912Y9354D1*
X15905Y9479D1*
X15932Y9601D1*
X15991Y9711D1*
X16042Y9765D1*
X16039Y10475D1*
X15265Y11248D1*
X13763Y11312D2*
X13669Y11375D1*
X13589Y11454D1*
X13482Y11353D1*
X13375Y11289D1*
X13258Y11247D1*
X13135Y11226D1*
X13010Y11230D1*
X12888Y11256D1*
X12773Y11305D1*
X12669Y11375D1*
X12589Y11454D1*
X12482Y11353D1*
X12375Y11289D1*
X12258Y11247D1*
X12135Y11226D1*
X12010Y11230D1*
X11888Y11256D1*
X11773Y11305D1*
X11669Y11375D1*
X11589Y11454D1*
X11482Y11353D1*
X11419Y11315D1*
X11420Y10972D1*
X12768Y9626D1*
X14746Y9625D1*
X14892Y9721D1*
X15011Y9755D1*
X15046D1*
X15005Y9867D1*
X13857Y11015D1*
X13787Y11118D1*
X13760Y11249D1*
Y11315D1*
X10763Y11312D2*
X10669Y11375D1*
X10589Y11454D1*
X10482Y11353D1*
X10375Y11289D1*
X10258Y11247D1*
X10135Y11226D1*
X10010Y11230D1*
X9888Y11256D1*
X9773Y11305D1*
X9669Y11375D1*
X9589Y11454D1*
X9482Y11353D1*
X9375Y11289D1*
X9258Y11247D1*
X9135Y11226D1*
X9010Y11230D1*
X8888Y11256D1*
X8773Y11305D1*
X8669Y11375D1*
X8589Y11454D1*
X8482Y11353D1*
X8419Y11315D1*
X8420Y10331D1*
X8443Y10423D1*
X8502Y10533D1*
X8587Y10623D1*
X8694Y10688D1*
X8814Y10722D1*
X8938Y10723D1*
X9059Y10691D1*
X9166Y10628D1*
X9202Y10592D1*
X10493D1*
X10527Y10623D1*
X10634Y10688D1*
X10781Y10722D1*
X10760Y10838D1*
Y11310D1*
X11275Y10189D2*
X11268Y10138D1*
X11219Y10024D1*
X11142Y9926D1*
X11041Y9853D1*
X10905Y9807D1*
X10910Y9732D1*
X10893Y9609D1*
X10880Y9576D1*
X10930Y9546D1*
X11017Y9457D1*
X11077Y9348D1*
X11106Y9227D1*
X11108Y9180D1*
X11091Y9056D1*
X11043Y8942D1*
X10965Y8844D1*
X10864Y8771D1*
X10748Y8727D1*
X10624Y8715D1*
X10501Y8737D1*
X10388Y8791D1*
X10294Y8873D1*
X10225Y8976D1*
X10186Y9095D1*
X10180Y9219D1*
X10206Y9337D1*
X10123Y9402D1*
X8816D1*
X8706Y9323D1*
X8589Y9279D1*
X8454Y9269D1*
X8600Y9239D1*
X9609D1*
X9731Y9215D1*
X9842Y9142D1*
X10093Y8891D1*
X10149Y8889D1*
X10269Y8856D1*
X10376Y8793D1*
X10463Y8704D1*
X10524Y8595D1*
X10553Y8474D1*
X10555Y8427D1*
X10538Y8304D1*
X10489Y8189D1*
X10467Y8162D1*
X11384Y8164D1*
X12217Y8169D1*
X12244Y8291D1*
X12293Y8384D1*
X12138Y8407D1*
X12025Y8461D1*
X11931Y8543D1*
X11862Y8646D1*
X11823Y8765D1*
X11817Y8889D1*
X11844Y9011D1*
X11902Y9121D1*
X11988Y9212D1*
X12094Y9276D1*
X12165Y9296D1*
X11275Y10186D1*
X8072Y7056D2*
X8046Y6995D1*
X8274Y6994D1*
Y7994D1*
X8297Y8116D1*
X8371Y8227D1*
X8630Y8487D1*
X8737Y8558D1*
X8734Y8579D1*
X8350D1*
X8228Y8602D1*
X8117Y8675D1*
X7954Y8838D1*
Y7507D1*
X7997Y7457D1*
X8058Y7348D1*
X8087Y7226D1*
X8089Y7180D1*
X8072Y7056D1*
X6987Y9857D2*
X7043Y9891D1*
X7163Y9925D1*
X7294Y9930D1*
X7293Y10859D1*
X7225Y10918D1*
X7156Y11022D1*
X7117Y11140D1*
X7111Y11264D1*
X7138Y11386D1*
X7196Y11496D1*
X7281Y11587D1*
X7388Y11651D1*
X7461Y11676D1*
X7431Y11801D1*
X7426Y11926D1*
X7444Y12049D1*
X7482Y12156D1*
X7055Y12155D1*
X6989Y12088D1*
Y9862D1*
X13702Y7050D2*
X13682Y7079D1*
X13643Y7197D1*
X13637Y7322D1*
X13664Y7443D1*
X13722Y7553D1*
X13808Y7644D1*
X13914Y7709D1*
X14034Y7743D1*
X14093D1*
X14179Y7828D1*
X13928Y7830D1*
X13160Y7065D1*
X13175Y7050D1*
X13695D1*
X20228Y8180D2*
X20132Y8197D1*
X20020Y8251D1*
X19952Y8310D1*
X17333D1*
X17361Y8183D1*
X17364Y8136D1*
X17342Y8002D1*
X17473Y7971D1*
X17580Y7909D1*
X17616Y7872D1*
X18880D1*
X19002Y7849D1*
X19113Y7776D1*
X19216Y7673D1*
X19277Y7797D1*
X19561Y8084D1*
X19664Y8153D1*
X19795Y8180D1*
X20205D1*
X25527Y11831D2*
X25612Y11830D1*
X25615Y12535D1*
X25353D1*
X25427Y12458D1*
X25496Y12356D1*
X25523Y12225D1*
Y11831D1*
X16852Y7676D2*
X16757Y7693D1*
X16644Y7747D1*
X16576Y7806D1*
X16453Y7726D1*
X16078Y7351D1*
X16114Y7278D1*
X16143Y7157D1*
X16130Y6998D1*
X16427Y7294D1*
X16530Y7364D1*
X16661Y7391D1*
X16852D1*
X16837Y7457D1*
X16830Y7581D1*
X16851Y7676D1*
X17641Y10273D2*
X17627Y10424D1*
X17654Y10545D1*
X17712Y10655D1*
X17763Y10709D1*
X17760Y11310D1*
X17669Y11375D1*
X17589Y11454D1*
X17482Y11353D1*
X17419Y11315D1*
X17420Y10339D1*
X17487Y10276D1*
X17635D1*
D20*
X23950Y8120D3*
Y9120D3*
Y10120D3*
X22950D3*
Y9120D3*
Y8120D3*
D25*
X23140Y4890D3*
X22140D3*
X21140D3*
X20140D3*
X19140D3*
X18140D3*
X17140D3*
X16140D3*
X15140D3*
X14140D3*
X13140D3*
X12140D3*
X11140D3*
X10140D3*
X9140D3*
X8140D3*
X23090Y11890D3*
X22090D3*
X21090D3*
X20090D3*
X19090D3*
X18090D3*
X17090D3*
X16090D3*
X15090D3*
X14090D3*
X13090D3*
X12090D3*
X11090D3*
X10090D3*
X9090D3*
X8090D3*
M02*
