G04 DipTrace 2.2.0.9*
%INBottom.gbr*%
%MOIN*%
%ADD13C,0.013*%
%ADD14C,0.025*%
%ADD20C,0.0787*%
%ADD25C,0.08*%
%ADD26C,0.04*%
%FSLAX44Y44*%
%SFA1B1*%
%OFA0B0*%
G04*
G70*
G90*
G75*
G01*
%LNBottom*%
%LPD*%
X13535Y23164D2*
D13*
X5200D1*
X4940Y22905D1*
Y19940D1*
X12940Y4940D2*
X11412D1*
X9668Y6683D1*
X4940Y19940D2*
X6649D1*
Y20150D1*
X6762D1*
Y20505D1*
X10061Y12716D2*
X11680D1*
X11940Y12975D1*
Y16335D1*
X7227Y12806D2*
X6832Y13201D1*
Y14359D1*
X7242Y14769D1*
X8320D1*
X8580Y15029D1*
Y17552D1*
X5740Y14490D2*
Y15940D1*
X5790Y15990D1*
X5840D1*
X10440Y21325D2*
Y19816D1*
X5670Y17335D2*
X7135D1*
X7395Y17075D1*
Y16604D1*
X7742Y16257D1*
X7940Y6440D2*
X8847D1*
X11086Y4201D1*
X13275D1*
X13535Y4460D1*
Y16345D1*
X12940Y16940D1*
X13535Y17535D1*
Y21720D1*
X13275Y21980D1*
X8657D1*
X8397Y21720D1*
Y18602D1*
X8137Y18342D1*
X5670D1*
X8050Y17552D2*
X8137Y17465D1*
Y15592D1*
X7836Y15290D1*
X7590D1*
X6440Y22690D2*
X12200D1*
Y22634D1*
X7742Y19127D2*
Y20480D1*
X6762Y21460D1*
X7590Y15290D2*
Y15029D1*
X6440D1*
Y9852D1*
X6325Y9737D1*
Y8055D1*
X6940Y7440D1*
X7590Y15029D2*
D3*
X9713Y7608D2*
Y11715D1*
X9292Y12137D1*
Y13138D1*
X10710D1*
X10970Y13398D1*
Y15970D1*
X12940Y17940D1*
X8785Y13138D2*
X9292D1*
X7940Y8440D2*
Y13401D1*
X7227Y14114D1*
X7742D1*
X8137Y14509D1*
X9161D1*
X9421Y14769D1*
Y17054D1*
X12307Y19940D1*
X12940D1*
X9686Y12321D2*
X10751D1*
X11557Y11515D1*
X8865Y11926D2*
Y12716D1*
X8335D1*
X8662Y13720D2*
X9629D1*
X10159Y14250D1*
X8335Y12716D2*
Y13110D1*
X8200Y13246D1*
Y13720D1*
X8662D1*
X4940Y17940D2*
X7554D1*
X7708Y18094D1*
X9786D1*
X10826Y19133D1*
X7740Y15740D2*
X6540Y16940D1*
X4940D1*
X6834Y10730D2*
Y11729D1*
X7227Y12121D1*
X6045Y10730D2*
Y12835D1*
X4940Y13940D1*
X5890Y9440D2*
Y8890D1*
X4940Y7940D1*
X5670Y6940D2*
X4940D1*
X8664Y6835D2*
Y11136D1*
X8452Y5851D2*
X5029D1*
X4940Y5940D1*
X9318Y7213D2*
Y11531D1*
X8146Y4835D2*
Y5030D1*
X7946Y5230D1*
X5825D1*
X5535Y4940D1*
X4940D1*
X10274Y8835D2*
Y7200D1*
X10534Y6940D1*
X12940D1*
X10804Y9545D2*
Y8200D1*
X11064Y7940D1*
X12940D1*
X10409Y11830D2*
X12299Y9940D1*
X12940D1*
X11952Y11140D2*
X12152Y10940D1*
X12940D1*
X4940Y18940D2*
X4201Y18201D1*
Y4599D1*
X4460Y4339D1*
X5450D1*
X5535Y4424D1*
X5930Y6246D2*
X6123Y6440D1*
X6940D1*
X5535Y4424D2*
X7205D1*
X7616Y4835D1*
D26*
X10826Y19133D3*
X5740Y14490D3*
X5840Y15990D3*
X11940Y16335D3*
X10061Y12716D3*
X8580Y17552D3*
X7227Y12806D3*
X6762Y20505D3*
X9668Y6683D3*
X13535Y23164D3*
X10440Y19816D3*
Y21325D3*
X7616Y4835D3*
X5930Y6246D3*
X5535Y4424D3*
X7742Y16257D3*
X5670Y17335D3*
Y18342D3*
X12200Y22634D3*
X6440Y22690D3*
X6762Y21460D3*
X7742Y19127D3*
X8050Y17552D3*
X7590Y15290D3*
X8785Y13138D3*
X9713Y7608D3*
X7227Y14114D3*
X11557Y11515D3*
X9686Y12321D3*
X8865Y11926D3*
X8335Y12716D3*
X10159Y14250D3*
X8662Y13720D3*
X7740Y15740D3*
X7227Y12121D3*
X6834Y10730D3*
X6045D3*
X5890Y9440D3*
X5670Y6940D3*
X8664Y11136D3*
Y6835D3*
X8452Y5851D3*
X9318Y11531D3*
Y7213D3*
X8146Y4835D3*
X10274Y8835D3*
X10804Y9545D3*
X10409Y11830D3*
X11952Y11140D3*
X4340Y23366D2*
D14*
X4909D1*
X4340Y23118D2*
X4663D1*
X4340Y22869D2*
X4585D1*
X4340Y22620D2*
X4585D1*
X5295D2*
X5956D1*
X12690D2*
X13491D1*
X4340Y22372D2*
X4585D1*
X5295D2*
X6077D1*
X12608D2*
X13491D1*
X4340Y22123D2*
X4585D1*
X5295D2*
X8308D1*
X4340Y21874D2*
X4585D1*
X5295D2*
X6526D1*
X6998D2*
X8081D1*
X4340Y21625D2*
X4585D1*
X5295D2*
X6304D1*
X7221D2*
X8042D1*
X8795D2*
X10061D1*
X10819D2*
X13140D1*
X4340Y21377D2*
X4585D1*
X5295D2*
X6280D1*
X7338D2*
X8042D1*
X8752D2*
X9952D1*
X10928D2*
X13179D1*
X4340Y21128D2*
X4585D1*
X5295D2*
X6413D1*
X7584D2*
X8042D1*
X8752D2*
X9995D1*
X10885D2*
X13179D1*
X4340Y20879D2*
X4585D1*
X5295D2*
X6460D1*
X7834D2*
X8042D1*
X8752D2*
X10085D1*
X10795D2*
X13179D1*
X4340Y20631D2*
X4585D1*
X5295D2*
X6288D1*
X8752D2*
X10085D1*
X10795D2*
X13179D1*
X4340Y20382D2*
X4417D1*
X5463D2*
X6288D1*
X7236D2*
X7347D1*
X8752D2*
X10085D1*
X10795D2*
X12417D1*
X7115Y20133D2*
X7386D1*
X8752D2*
X10077D1*
X10803D2*
X12011D1*
X6998Y19885D2*
X7386D1*
X8752D2*
X9956D1*
X10924D2*
X11761D1*
X6803Y19636D2*
X7386D1*
X8752D2*
X9987D1*
X10893D2*
X11511D1*
X4340Y19387D2*
X4546D1*
X5334D2*
X7331D1*
X8752D2*
X10233D1*
X12244D2*
X12425D1*
X4340Y19139D2*
X7253D1*
X8752D2*
X10335D1*
X11998D2*
X12280D1*
X4340Y18890D2*
X7319D1*
X8752D2*
X10093D1*
X11748D2*
X12253D1*
X4340Y18641D2*
X5288D1*
X8752D2*
X9843D1*
X11498D2*
X12319D1*
X4340Y18393D2*
X4429D1*
X11252D2*
X12429D1*
X11002Y18144D2*
X12280D1*
X10752Y17895D2*
X12253D1*
X9061Y17646D2*
X9522D1*
X10506D2*
X12155D1*
X9045Y17398D2*
X9272D1*
X10256D2*
X11905D1*
X8936Y17149D2*
X9081D1*
X10006D2*
X11659D1*
X8936Y16900D2*
X9065D1*
X9776D2*
X11409D1*
X8936Y16652D2*
X9065D1*
X9776D2*
X11159D1*
X5444Y16403D2*
X5601D1*
X6076D2*
X6585D1*
X8936D2*
X9065D1*
X9776D2*
X10913D1*
X6299Y16154D2*
X6835D1*
X8936D2*
X9065D1*
X9776D2*
X10671D1*
X6322Y15906D2*
X7081D1*
X8936D2*
X9065D1*
X9776D2*
X10616D1*
X11397D2*
X11585D1*
X6190Y15657D2*
X7257D1*
X8936D2*
X9065D1*
X9776D2*
X10616D1*
X11326D2*
X11585D1*
X6096Y15408D2*
X7116D1*
X8936D2*
X9065D1*
X9776D2*
X10616D1*
X11326D2*
X11585D1*
X12295D2*
X12444D1*
X8936Y15160D2*
X9065D1*
X9776D2*
X10616D1*
X11326D2*
X11585D1*
X8912Y14911D2*
X9065D1*
X9776D2*
X10616D1*
X11326D2*
X11585D1*
X9756Y14662D2*
X9921D1*
X10397D2*
X10616D1*
X11326D2*
X11585D1*
X9557Y14414D2*
X9698D1*
X11326D2*
X11585D1*
X12295D2*
X12448D1*
X8283Y14165D2*
X8503D1*
X8819D2*
X9585D1*
X11326D2*
X11585D1*
X5631Y13916D2*
X6085D1*
X10510D2*
X10617D1*
X11326D2*
X11585D1*
X5705Y13667D2*
X6085D1*
X10069D2*
X10616D1*
X11326D2*
X11585D1*
X5951Y13419D2*
X6085D1*
X7186D2*
X7433D1*
X11326D2*
X11585D1*
X12295D2*
X12452D1*
X11233Y13170D2*
X11585D1*
X5572Y12673D2*
X5690D1*
X12127D2*
X12308D1*
X5420Y12424D2*
X5690D1*
X11858D2*
X12460D1*
X5588Y12175D2*
X5690D1*
X8295D2*
X8448D1*
X11389D2*
X12292D1*
X8295Y11927D2*
X8375D1*
X11799D2*
X12249D1*
X5576Y11678D2*
X5690D1*
X7393D2*
X7585D1*
X8295D2*
X8448D1*
X12018D2*
X12304D1*
X5416Y11429D2*
X5690D1*
X7190D2*
X7585D1*
X10069D2*
X10149D1*
X12342D2*
X12466D1*
X5584Y11181D2*
X5690D1*
X7190D2*
X7585D1*
X10069D2*
X10565D1*
X7279Y10932D2*
X7585D1*
X10069D2*
X10815D1*
X7322Y10683D2*
X7585D1*
X10069D2*
X11065D1*
X5408Y10435D2*
X5659D1*
X7217D2*
X7585D1*
X10069D2*
X11311D1*
X5584Y10186D2*
X6085D1*
X6795D2*
X7585D1*
X10069D2*
X11561D1*
X5631Y9937D2*
X6038D1*
X6795D2*
X7585D1*
X10069D2*
X10530D1*
X11080D2*
X11811D1*
X6752Y9688D2*
X7585D1*
X10069D2*
X10335D1*
X11272D2*
X12061D1*
X6678Y9440D2*
X7585D1*
X10069D2*
X10327D1*
X11283D2*
X12476D1*
X6678Y9191D2*
X7585D1*
X11158D2*
X12300D1*
X7389Y8942D2*
X7487D1*
X11158D2*
X12249D1*
X11158Y8694D2*
X12296D1*
X11158Y8445D2*
X12472D1*
X5690Y8196D2*
X5972D1*
X5631Y7948D2*
X5987D1*
X5584Y7699D2*
X6190D1*
X10627D2*
X10815D1*
X5416Y7450D2*
X6257D1*
X10627D2*
X12464D1*
X6080Y7202D2*
X6300D1*
X6158Y6953D2*
X6472D1*
X6096Y6704D2*
X7311D1*
X10158D2*
X10276D1*
X5420Y6456D2*
X7257D1*
X10389D2*
X12460D1*
X5572Y6207D2*
X7300D1*
X9572D2*
X9654D1*
X10635D2*
X12308D1*
X9819Y5958D2*
X9904D1*
X10885D2*
X12249D1*
X8920Y5709D2*
X9085D1*
X10069D2*
X10149D1*
X11135D2*
X12292D1*
X8729Y5461D2*
X9335D1*
X10319D2*
X10399D1*
X11381D2*
X12456D1*
X8447Y5212D2*
X9585D1*
X10565D2*
X10649D1*
X8619Y4963D2*
X9831D1*
X10815D2*
X10899D1*
X5803Y4715D2*
X7671D1*
X8619D2*
X10081D1*
X11065D2*
X11144D1*
X4340Y4466D2*
X4448D1*
X5432D2*
X7839D1*
X8455D2*
X10331D1*
X4340Y4217D2*
X10577D1*
X6108Y14212D2*
X6062Y14154D1*
X5961Y14081D1*
X5845Y14037D1*
X5720Y14025D1*
X5594Y14049D1*
X5605Y13940D1*
X5593Y13816D1*
X5579Y13767D1*
X6110Y13237D1*
Y14207D1*
X6288Y15867D2*
X6239Y15752D1*
X6162Y15654D1*
X6071Y15588D1*
X6070Y14819D1*
X6110Y14852D1*
Y15029D1*
X6133Y15151D1*
X6200Y15256D1*
X6301Y15328D1*
X6440Y15359D1*
X7131D1*
X7154Y15451D1*
X7212Y15561D1*
X7284Y15637D1*
X7279Y15736D1*
X6405Y16609D1*
X5520Y16610D1*
X5426Y16486D1*
X5376Y16442D1*
X5472Y16339D1*
X5494Y16303D1*
X5548Y16352D1*
X5654Y16416D1*
X5774Y16450D1*
X5899Y16451D1*
X6019Y16419D1*
X6127Y16356D1*
X6214Y16267D1*
X6274Y16158D1*
X6303Y16037D1*
X6305Y15990D1*
X6288Y15867D1*
X6656Y9031D2*
X6716Y9059D1*
X6836Y9090D1*
X6961Y9098D1*
X7085Y9083D1*
X7203Y9044D1*
X7313Y8983D1*
X7408Y8903D1*
X7440Y8864D1*
X7502Y8932D1*
X7613Y9011D1*
X7610Y9690D1*
Y11858D1*
X7548Y11785D1*
X7448Y11712D1*
X7331Y11668D1*
X7234Y11659D1*
X7164Y11592D1*
Y11061D1*
X7208Y11007D1*
X7268Y10898D1*
X7297Y10776D1*
X7299Y10730D1*
X7283Y10606D1*
X7234Y10492D1*
X7156Y10394D1*
X7056Y10321D1*
X6939Y10277D1*
X6815Y10265D1*
X6773Y10273D1*
X6769Y9852D1*
X6746Y9730D1*
X6656Y9602D1*
X6655Y9030D1*
X7440Y7014D2*
X7324Y6905D1*
X7216Y6842D1*
X7098Y6801D1*
X6975Y6782D1*
X6850Y6787D1*
X6728Y6816D1*
X6615Y6867D1*
X6512Y6939D1*
X6426Y7029D1*
X6357Y7133D1*
X6310Y7248D1*
X6285Y7371D1*
X6284Y7496D1*
X6304Y7607D1*
X6091Y7822D1*
X6022Y7925D1*
X5995Y8055D1*
Y8528D1*
X5579Y8113D1*
X5605Y7940D1*
X5593Y7816D1*
X5559Y7696D1*
X5502Y7585D1*
X5426Y7486D1*
X5376Y7442D1*
X5459Y7354D1*
X5604Y7400D1*
X5729Y7401D1*
X5849Y7369D1*
X5956Y7306D1*
X6043Y7217D1*
X6104Y7108D1*
X6133Y6987D1*
X6135Y6940D1*
X6118Y6817D1*
X6069Y6702D1*
X5992Y6604D1*
X5891Y6531D1*
X5774Y6487D1*
X5650Y6475D1*
X5528Y6497D1*
X5461Y6529D1*
X5376Y6442D1*
X5472Y6339D1*
X5537Y6233D1*
X5558Y6178D1*
X6529Y6181D1*
X7337D1*
X7310Y6248D1*
X7285Y6371D1*
X7284Y6496D1*
X7306Y6618D1*
X7351Y6735D1*
X7417Y6841D1*
X7512Y6939D1*
X8268Y9008D2*
X8333Y8966D1*
X8270Y9026D1*
Y9007D1*
X8334Y9085D1*
Y10808D1*
X8269Y10897D1*
X8270Y9026D1*
X5514Y19609D2*
X5426Y19486D1*
X5332Y19403D1*
X5225Y19339D1*
X5108Y19297D1*
X4985Y19276D1*
X4860Y19280D1*
X4738Y19306D1*
X4623Y19355D1*
X4519Y19425D1*
X4431Y19513D1*
X4360Y19615D1*
X4314Y19719D1*
X4315Y18166D1*
X4398Y18325D1*
X4479Y18420D1*
X4577Y18497D1*
X4688Y18555D1*
X4807Y18592D1*
X4931Y18605D1*
X5056Y18595D1*
X5176Y18562D1*
X5243Y18529D1*
X5292Y18613D1*
X5377Y18704D1*
X5484Y18768D1*
X5604Y18802D1*
X5729Y18803D1*
X5849Y18771D1*
X5956Y18708D1*
X5992Y18672D1*
X7650D1*
X7600Y18684D1*
X7488Y18738D1*
X7393Y18820D1*
X7324Y18923D1*
X7285Y19042D1*
X7279Y19166D1*
X7306Y19288D1*
X7364Y19398D1*
X7415Y19452D1*
X7412Y20342D1*
X7225Y20531D1*
X7210Y20382D1*
X7161Y20267D1*
X7091Y20178D1*
X7069Y20028D1*
X6999Y19921D1*
X7012Y19935D1*
X6901Y19727D1*
X6805Y19649D1*
X6686Y19612D1*
X5521Y19610D1*
X4314Y20155D2*
X4335Y20217D1*
X4398Y20325D1*
X4479Y20420D1*
X4608Y20514D1*
X4610Y22905D1*
X4633Y23027D1*
X4707Y23138D1*
X4967Y23398D1*
X5069Y23467D1*
X5200Y23494D1*
X13204D1*
X13349Y23591D1*
X13435Y23615D1*
X4315D1*
Y20166D1*
X5271Y20515D2*
X5388Y20432D1*
X5472Y20339D1*
X5515Y20269D1*
X6345Y20275D1*
X6305Y20420D1*
X6299Y20544D1*
X6326Y20666D1*
X6384Y20776D1*
X6470Y20867D1*
X6576Y20931D1*
X6696Y20965D1*
X6793Y20966D1*
X6742Y20996D1*
X6620Y21017D1*
X6507Y21071D1*
X6413Y21153D1*
X6344Y21256D1*
X6305Y21375D1*
X6299Y21499D1*
X6326Y21621D1*
X6384Y21731D1*
X6470Y21822D1*
X6576Y21886D1*
X6696Y21920D1*
X6821Y21921D1*
X6941Y21889D1*
X7049Y21826D1*
X7136Y21737D1*
X7196Y21628D1*
X7227Y21462D1*
X7976Y20713D1*
X8046Y20606D1*
X8067Y20602D1*
Y21720D1*
X8091Y21842D1*
X8164Y21953D1*
X8424Y22213D1*
X8526Y22283D1*
X8657Y22310D1*
X11864D1*
X11827Y22363D1*
X9950Y22360D1*
X6762Y22354D1*
X6661Y22281D1*
X6545Y22237D1*
X6420Y22225D1*
X6298Y22247D1*
X6185Y22301D1*
X6091Y22383D1*
X6022Y22486D1*
X5983Y22605D1*
X5977Y22729D1*
X5999Y22832D1*
X5336Y22834D1*
X5270Y22768D1*
Y20518D1*
X5594Y12820D2*
X5559Y12696D1*
X5502Y12585D1*
X5426Y12486D1*
X5376Y12442D1*
X5472Y12339D1*
X5537Y12233D1*
X5581Y12116D1*
X5605Y11940D1*
X5593Y11816D1*
X5559Y11696D1*
X5502Y11585D1*
X5426Y11486D1*
X5376Y11442D1*
X5472Y11339D1*
X5537Y11233D1*
X5581Y11116D1*
X5605Y10940D1*
X5597Y10858D1*
X5667Y11001D1*
X5717Y11054D1*
X5715Y12105D1*
Y12702D1*
X5593Y12820D1*
X5581Y10775D2*
X5559Y10696D1*
X5502Y10585D1*
X5426Y10486D1*
X5376Y10442D1*
X5472Y10339D1*
X5537Y10233D1*
X5581Y10116D1*
X5605Y9940D1*
X5586Y9790D1*
X5704Y9866D1*
X5824Y9900D1*
X5949Y9901D1*
X6028Y9880D1*
X6091Y9970D1*
X6110Y10102D1*
Y10270D1*
X6025Y10265D1*
X5902Y10287D1*
X5790Y10341D1*
X5696Y10422D1*
X5627Y10526D1*
X5588Y10644D1*
X5581Y10765D1*
X5514Y4609D2*
X5426Y4486D1*
X5332Y4403D1*
X5225Y4339D1*
X5108Y4297D1*
X4985Y4276D1*
X4860Y4280D1*
X4738Y4306D1*
X4623Y4355D1*
X4519Y4425D1*
X4431Y4513D1*
X4360Y4615D1*
X4314Y4719D1*
X4315Y4215D1*
X10608D1*
X9439Y5381D1*
X8914Y5898D1*
X8917Y5851D1*
X8900Y5728D1*
X8851Y5613D1*
X8774Y5516D1*
X8673Y5442D1*
X8556Y5398D1*
X8432Y5387D1*
X8309Y5409D1*
X8197Y5462D1*
X8129Y5521D1*
X8180Y5463D1*
X8520Y5112D1*
X8580Y5003D1*
X8609Y4881D1*
X8611Y4835D1*
X8595Y4711D1*
X8546Y4597D1*
X8468Y4499D1*
X8367Y4426D1*
X8251Y4382D1*
X8127Y4370D1*
X8004Y4392D1*
X7892Y4446D1*
X7797Y4527D1*
X7728Y4631D1*
X7689Y4750D1*
Y4901D1*
X5958Y4900D1*
X5768Y4707D1*
X5665Y4637D1*
X5515Y4610D1*
X12365Y5268D2*
X12398Y5325D1*
X12501Y5437D1*
X12431Y5513D1*
X12360Y5615D1*
X12309Y5730D1*
X12281Y5851D1*
X12276Y5976D1*
X12294Y6099D1*
X12335Y6217D1*
X12398Y6325D1*
X12501Y6437D1*
X12431Y6513D1*
X12362Y6612D1*
X10534Y6610D1*
X10412Y6633D1*
X10300Y6707D1*
X10041Y6967D1*
X9971Y7069D1*
X9944Y7204D1*
X9818Y7155D1*
X9783Y7152D1*
X9955Y7050D1*
X10042Y6960D1*
X10102Y6851D1*
X10133Y6685D1*
X11551Y5268D1*
X12361Y5270D1*
X12365Y7268D2*
X12398Y7325D1*
X12501Y7437D1*
X12431Y7513D1*
X12362Y7612D1*
X11064Y7610D1*
X10942Y7633D1*
X10830Y7707D1*
X10604Y7933D1*
Y7339D1*
X10670Y7270D1*
X12366D1*
X12365Y8268D2*
X12398Y8325D1*
X12501Y8437D1*
X12431Y8513D1*
X12360Y8615D1*
X12309Y8730D1*
X12281Y8851D1*
X12276Y8976D1*
X12294Y9099D1*
X12335Y9217D1*
X12398Y9325D1*
X12501Y9437D1*
X12431Y9513D1*
X12362Y9612D1*
X12299Y9610D1*
X12177Y9633D1*
X12065Y9707D1*
X10405Y11367D1*
X10267Y11387D1*
X10154Y11441D1*
X10045Y11545D1*
X10043Y9242D1*
X10208Y9295D1*
X10332Y9296D1*
X10427Y9271D1*
X10386Y9341D1*
X10347Y9460D1*
X10341Y9584D1*
X10368Y9706D1*
X10426Y9816D1*
X10511Y9907D1*
X10618Y9971D1*
X10738Y10005D1*
X10862Y10006D1*
X10983Y9974D1*
X11090Y9911D1*
X11177Y9822D1*
X11238Y9713D1*
X11267Y9592D1*
X11269Y9545D1*
X11252Y9422D1*
X11203Y9307D1*
X11133Y9219D1*
X11134Y8338D1*
X11200Y8270D1*
X12364D1*
X12388Y11308D2*
X12479Y11420D1*
X12501Y11437D1*
X12431Y11513D1*
X12360Y11615D1*
X12309Y11730D1*
X12281Y11851D1*
X12276Y11976D1*
X12294Y12099D1*
X12335Y12217D1*
X12398Y12325D1*
X12501Y12437D1*
X12431Y12513D1*
X12360Y12615D1*
X12309Y12730D1*
X12281Y12851D1*
X12276Y12976D1*
X12294Y13099D1*
X12335Y13217D1*
X12398Y13325D1*
X12501Y13437D1*
X12431Y13513D1*
X12360Y13615D1*
X12309Y13730D1*
X12281Y13851D1*
X12276Y13976D1*
X12294Y14099D1*
X12335Y14217D1*
X12398Y14325D1*
X12501Y14437D1*
X12431Y14513D1*
X12360Y14615D1*
X12309Y14730D1*
X12281Y14851D1*
X12276Y14976D1*
X12294Y15099D1*
X12335Y15217D1*
X12398Y15325D1*
X12501Y15437D1*
X12431Y15513D1*
X12360Y15615D1*
X12309Y15730D1*
X12281Y15851D1*
X12282Y16018D1*
X12270Y15960D1*
Y12975D1*
X12247Y12853D1*
X12173Y12742D1*
X11913Y12482D1*
X11811Y12413D1*
X11680Y12386D1*
X11153D1*
X11556Y11982D1*
X11616Y11976D1*
X11736Y11944D1*
X11844Y11881D1*
X11931Y11792D1*
X11991Y11683D1*
X12010Y11603D1*
X12131Y11569D1*
X12239Y11506D1*
X12326Y11417D1*
X12387Y11304D1*
X12301Y17764D2*
X12281Y17851D1*
X12276Y17976D1*
X12294Y18099D1*
X12335Y18217D1*
X12398Y18325D1*
X12501Y18437D1*
X12431Y18513D1*
X12360Y18615D1*
X12309Y18730D1*
X12281Y18851D1*
X12276Y18976D1*
X12294Y19099D1*
X12335Y19217D1*
X12398Y19325D1*
X12501Y19437D1*
X12397Y19561D1*
X10773Y17939D1*
X9748Y16914D1*
X9751Y15429D1*
Y14769D1*
X9727Y14647D1*
X9654Y14536D1*
X9394Y14276D1*
X9291Y14206D1*
X9161Y14179D1*
X8727D1*
X8841Y14149D1*
X8948Y14086D1*
X8984Y14050D1*
X9494D1*
X9697Y14254D1*
X9696Y14289D1*
X9723Y14410D1*
X9781Y14520D1*
X9867Y14611D1*
X9973Y14676D1*
X10093Y14710D1*
X10218Y14711D1*
X10338Y14679D1*
X10446Y14616D1*
X10533Y14526D1*
X10593Y14417D1*
X10622Y14296D1*
X10624Y14250D1*
X10608Y14126D1*
X10559Y14011D1*
X10481Y13914D1*
X10381Y13840D1*
X10264Y13796D1*
X10167Y13787D1*
X9860Y13484D1*
X9917Y13468D1*
X10577D1*
X10640Y13535D1*
Y15970D1*
X10663Y16092D1*
X10737Y16203D1*
X12297Y17764D1*
X11612Y16010D2*
X11554Y16083D1*
X11298Y15831D1*
X11300Y13398D1*
X11277Y13276D1*
X11203Y13165D1*
X11085Y13046D1*
X11542D1*
X11610Y13112D1*
Y16011D1*
X8989Y17764D2*
X9013Y17720D1*
X9042Y17599D1*
X9045Y17552D1*
X9028Y17429D1*
X8979Y17314D1*
X8909Y17226D1*
X8910Y15029D1*
X8884Y14904D1*
X8894Y14930D1*
X8887Y14839D1*
X9024D1*
X9091Y14906D1*
Y17054D1*
X9114Y17176D1*
X9187Y17287D1*
X9661Y17764D1*
X8993D1*
X7235Y13267D2*
X7285D1*
X7406Y13235D1*
X7513Y13172D1*
X7610Y13066D1*
Y13264D1*
X7223Y13651D1*
X7165Y13657D1*
X7162Y13340D1*
X9668Y6221D2*
X9526Y6241D1*
X9501Y6252D1*
X11221Y4533D1*
X12418Y4530D1*
X12315Y4610D1*
X11412D1*
X11290Y4633D1*
X11178Y4707D1*
X9667Y6218D1*
X13511Y22701D2*
X13393Y22722D1*
X13280Y22775D1*
X13212Y22834D1*
X12617D1*
X12634Y22802D1*
X12663Y22681D1*
X12665Y22634D1*
X12648Y22511D1*
X12599Y22396D1*
X12529Y22308D1*
X13275Y22310D1*
X13397Y22286D1*
X13517Y22205D1*
X13515Y22703D1*
X10417Y19352D2*
X10298Y19373D1*
X10185Y19427D1*
X10091Y19508D1*
X10022Y19612D1*
X9983Y19730D1*
X9977Y19855D1*
X10004Y19976D1*
X10062Y20086D1*
X10113Y20140D1*
X10110Y20999D1*
X10022Y21121D1*
X9983Y21240D1*
X9977Y21364D1*
X10004Y21486D1*
X10062Y21596D1*
X10113Y21650D1*
X8795D1*
X8727Y21583D1*
Y18602D1*
X8702Y18477D1*
X8711Y18502D1*
X8708Y18424D1*
X9649D1*
X10362Y19136D1*
X10390Y19294D1*
X10421Y19352D1*
X10767Y21649D2*
X10814Y21602D1*
X10874Y21493D1*
X10903Y21372D1*
X10905Y21325D1*
X10888Y21202D1*
X10839Y21087D1*
X10769Y20999D1*
X10767Y20140D1*
X10814Y20093D1*
X10874Y19983D1*
X10903Y19862D1*
X10905Y19816D1*
X10888Y19692D1*
X10847Y19595D1*
X10884Y19594D1*
X11005Y19562D1*
X11112Y19499D1*
X11199Y19410D1*
X11239Y19338D1*
X12074Y20173D1*
X12176Y20243D1*
X12307Y20270D1*
X12365Y20268D1*
X12398Y20325D1*
X12479Y20420D1*
X12577Y20497D1*
X12688Y20555D1*
X12807Y20592D1*
X12931Y20605D1*
X13056Y20595D1*
X13208Y20546D1*
X13205Y21586D1*
X13138Y21650D1*
X10771D1*
X7750Y16717D2*
X7805D1*
X7807Y17158D1*
X7701Y17245D1*
X7632Y17349D1*
X7593Y17467D1*
X7591Y17610D1*
X7316D1*
X7369Y17568D1*
X7628Y17308D1*
X7698Y17206D1*
X7725Y17075D1*
Y16743D1*
X8554Y11585D2*
X8516Y11618D1*
X8447Y11722D1*
X8408Y11840D1*
X8401Y11965D1*
X8428Y12087D1*
X8487Y12197D1*
X8538Y12251D1*
X8439Y12262D1*
X8315Y12251D1*
X8273Y12259D1*
X8270Y11382D1*
X8371Y11498D1*
X8478Y11562D1*
X8549Y11583D1*
D20*
X6940Y8440D3*
Y7440D3*
Y6440D3*
X7940D3*
Y7440D3*
Y8440D3*
D25*
X4940Y19940D3*
Y18940D3*
Y17940D3*
Y16940D3*
Y15940D3*
Y14940D3*
Y13940D3*
Y12940D3*
Y11940D3*
Y10940D3*
Y9940D3*
Y8940D3*
Y7940D3*
Y6940D3*
Y5940D3*
Y4940D3*
X12940D3*
Y5940D3*
Y6940D3*
Y7940D3*
Y8940D3*
Y9940D3*
Y10940D3*
Y11940D3*
Y12940D3*
Y13940D3*
Y14940D3*
Y15940D3*
Y16940D3*
Y17940D3*
Y18940D3*
Y19940D3*
M02*
