M48
INCH
T01C0.0191
T02C0.03
T03C0.0402
%
T01
X+005740Y+014490
X+005840Y+015990
X+005670Y+017335
X+005670Y+018342
X+007742Y+019127
X+008050Y+017552
X+008580Y+017552
X+007742Y+016257
X+007740Y+015740
X+007590Y+015290
X+007227Y+014114
X+007227Y+012806
X+007227Y+012121
X+008335Y+012716
X+008785Y+013138
X+008662Y+013720
X+010159Y+014250
X+010061Y+012716
X+009686Y+012321
X+009318Y+011531
X+008865Y+011926
X+008664Y+011136
X+006834Y+010730
X+006045Y+010730
X+005890Y+009440
X+005670Y+006940
X+005930Y+006246
X+005535Y+004424
X+007616Y+004835
X+008146Y+004835
X+008452Y+005851
X+008664Y+006835
X+009318Y+007213
X+009713Y+007608
X+009668Y+006683
X+010274Y+008835
X+010804Y+009545
X+011952Y+011140
X+011557Y+011515
X+010409Y+011830
X+011940Y+016335
X+010826Y+019133
X+010440Y+019816
X+010440Y+021325
X+012200Y+022634
X+013535Y+023164
X+006762Y+021460
X+006762Y+020505
X+006440Y+022690
T02
X+004940Y+019940
X+004940Y+018940
X+004940Y+017940
X+004940Y+016940
X+004940Y+015940
X+004940Y+014940
X+004940Y+013940
X+004940Y+012940
X+004940Y+011940
X+004940Y+010940
X+004940Y+009940
X+004940Y+008940
X+004940Y+007940
X+004940Y+006940
X+004940Y+005940
X+004940Y+004940
X+012940Y+004940
X+012940Y+005940
X+012940Y+006940
X+012940Y+007940
X+012940Y+008940
X+012940Y+009940
X+012940Y+010940
X+012940Y+011940
X+012940Y+012940
X+012940Y+013940
X+012940Y+014940
X+012940Y+015940
X+012940Y+016940
X+012940Y+017940
X+012940Y+018940
X+012940Y+019940
T03
X+006940Y+008440
X+006940Y+007440
X+006940Y+006440
X+007940Y+006440
X+007940Y+007440
X+007940Y+008440
T00
M30
