G04 DipTrace 2.2.0.9*
%INTop.gbr*%
%MOIN*%
%ADD13C,0.013*%
%ADD14C,0.025*%
%ADD15R,0.0591X0.0512*%
%ADD16R,0.0512X0.0591*%
%ADD17R,0.0177X0.0394*%
%ADD18R,0.0394X0.0177*%
%ADD19R,0.0945X0.0984*%
%ADD20C,0.0787*%
%ADD21R,0.0197X0.0236*%
%ADD22R,0.0197X0.0709*%
%ADD23R,0.0984X0.1299*%
%ADD24R,0.0551X0.0827*%
%ADD25C,0.08*%
%ADD26C,0.04*%
%FSLAX44Y44*%
%SFA1B1*%
%OFA0B0*%
G04*
G70*
G90*
G75*
G01*
%LNTop*%
%LPD*%
X9668Y6683D2*
D13*
Y5940D1*
X6762Y20505D2*
X6137D1*
Y20314D1*
X9668Y5940D2*
X8990D1*
Y5716D1*
X8730Y5457D1*
X6814D1*
X6325Y5946D1*
Y7825D1*
X6940Y8440D1*
X8940Y20440D2*
Y20930D1*
X8330Y21540D1*
Y21940D1*
X12940Y4940D2*
X13535Y5535D1*
Y23164D1*
X6814Y5457D2*
Y4991D1*
X8940Y18940D2*
X9430D1*
Y16940D1*
X8940D1*
Y20440D2*
Y18940D1*
X6137Y20314D2*
Y19647D1*
X6397Y19387D1*
X6849D1*
Y19950D1*
X7340Y20440D1*
X8940D1*
X10440Y17692D2*
X10600D1*
Y16446D1*
X9810Y15657D1*
Y14940D1*
X11940Y16335D2*
Y17692D1*
X10061Y12716D2*
X9495Y13282D1*
Y14940D1*
X9688Y20440D2*
Y16304D1*
X9430Y16046D1*
Y15657D1*
X9170Y15397D1*
X8865D1*
Y14940D1*
X8580Y17552D2*
Y18192D1*
X8397D1*
X8149Y18440D1*
X6940D1*
X8580Y18192D2*
X8940D1*
X7227Y12806D2*
X7092Y12941D1*
Y13090D1*
X6700D1*
X6940Y16865D2*
X7925D1*
X8185Y16605D1*
Y16452D1*
X8445Y16192D1*
X8940D1*
X6700Y12775D2*
X6455D1*
X6190Y13040D1*
Y14140D1*
X5790Y14490D1*
X5740D1*
X5840Y15990D2*
X6065D1*
X6940Y16865D1*
X11940Y18440D2*
Y20670D1*
X11680Y20930D1*
X9250D1*
X8960Y21220D1*
Y21940D1*
X10440Y19816D2*
Y18440D1*
Y21325D2*
X9275D1*
Y21940D1*
X5670Y18342D2*
Y17335D1*
X7742Y16257D2*
X7607Y16121D1*
X7040D1*
Y15290D1*
X7290Y15040D1*
Y14940D1*
X12200Y22634D2*
Y19680D1*
X12940Y18940D1*
X6762Y21460D2*
X6590Y22240D1*
X6440Y22690D1*
X8050Y17552D2*
X6449D1*
X6190Y17812D1*
Y19127D1*
X7742D1*
X7590Y15290D2*
Y14955D1*
X7605Y14940D1*
X8785Y13138D2*
X8141D1*
Y13869D1*
X7920Y14090D1*
Y14940D1*
X9713Y7608D2*
X8697D1*
X8529Y7440D1*
X7940D1*
Y8440D2*
X11180D1*
X11440Y8180D1*
Y5940D1*
X7227Y14114D2*
X7147Y14034D1*
X6700D1*
X7290Y10609D2*
Y11406D1*
X7550Y11666D1*
X7621D1*
X7881Y11926D1*
Y12321D1*
X7621Y12581D1*
Y13145D1*
X7362Y13405D1*
X6700D1*
X9180Y14940D2*
Y12827D1*
X9686Y12321D1*
X7881D1*
X11557Y11515D2*
X11031D1*
X9686Y12321D2*
X10294D1*
X10554Y12581D1*
Y14034D1*
X11031D1*
Y11200D2*
X10015D1*
X9755Y11460D1*
Y11666D1*
X9495Y11926D1*
X8865D1*
X8335Y12716D2*
X8081D1*
X7881Y12916D1*
Y13460D1*
X7621Y13720D1*
X6700D1*
X8662D2*
Y14114D1*
X8550Y14226D1*
Y14940D1*
X10125D2*
Y14284D1*
X10159Y14250D1*
X8865Y11926D2*
X8269D1*
Y11666D1*
X8009Y11406D1*
X7865D1*
X7605Y11146D1*
Y10609D1*
X10159Y14250D2*
X10259Y14349D1*
X11031D1*
X12940Y5940D2*
X11440Y4440D1*
X7188D1*
X10826Y19133D2*
X11086Y18873D1*
Y15755D1*
X10440Y15109D1*
Y14940D1*
X7740Y15740D2*
X8235D1*
Y14940D1*
X4940Y15940D2*
X6325Y14555D1*
Y14349D1*
X6700D1*
X4940Y14940D2*
X4790D1*
X5790Y13940D1*
Y12590D1*
X5920Y12460D1*
X6700D1*
X7227Y12121D2*
X6740D1*
X6700Y12145D1*
X6045Y10730D2*
X6834D1*
X6740Y12121D2*
X6716Y12145D1*
X6700D1*
X4940Y12940D2*
X6050Y11830D1*
X6700D1*
X4940Y11940D2*
X5535D1*
X5960Y11515D1*
X6700D1*
X4940Y10940D2*
X5535D1*
X5795Y11200D1*
X6700D1*
X4940Y9940D2*
Y10140D1*
X7840D1*
X7920Y10220D1*
Y10609D1*
X8235D2*
Y9985D1*
X8090Y9840D1*
X5690D1*
X4940Y8940D1*
X5890Y9440D2*
X8196D1*
X8550Y9795D1*
Y10609D1*
X5670Y6940D2*
Y8769D1*
X5930Y9029D1*
X8605D1*
X8865Y9288D1*
Y10609D1*
X8664Y11136D2*
X9180D1*
Y10609D1*
X8452Y5851D2*
X8664Y6063D1*
Y6835D1*
X9318Y11531D2*
X9495Y11354D1*
Y10609D1*
X8146Y4835D2*
X10139D1*
X10399Y5095D1*
Y6953D1*
X10139Y7213D1*
X9318D1*
X10274Y8835D2*
X9385D1*
X9125Y9095D1*
Y10131D1*
X9810D1*
Y10609D1*
X10804Y9545D2*
X10218Y10131D1*
X10125D1*
Y10609D1*
X12940Y8940D2*
X11970Y9910D1*
Y10349D1*
X11710Y10609D1*
X10440D1*
X10409Y11830D2*
X11031D1*
X11952Y11140D2*
Y11885D1*
X11692Y12145D1*
X11031D1*
X12940Y11940D2*
X12212D1*
Y12200D1*
X11952Y12460D1*
X11031D1*
X12940Y12940D2*
X12284D1*
X12119Y12775D1*
X11031D1*
X12940Y13940D2*
X12202D1*
X11942Y13680D1*
Y13090D1*
X11031D1*
X12940Y14940D2*
X11942D1*
X11682Y14680D1*
Y13405D1*
X11031D1*
X12940Y15940D2*
X11682D1*
X11422Y15680D1*
Y13720D1*
X11031D1*
X4940Y18940D2*
X5535Y19535D1*
Y21062D1*
X6137D1*
X5930Y6246D2*
X5535Y5851D1*
Y4424D1*
X6137Y21062D2*
X7812D1*
X8090Y21340D1*
Y22390D1*
X8449Y22749D1*
X9590D1*
Y21940D1*
X5535Y4424D2*
X6102Y4991D1*
X6440D1*
X7616Y4835D2*
X7573D1*
X7416Y4991D1*
X7188D1*
D26*
X10826Y19133D3*
X5740Y14490D3*
X5840Y15990D3*
X11940Y16335D3*
X10061Y12716D3*
X8580Y17552D3*
X7227Y12806D3*
X6762Y20505D3*
X9668Y6683D3*
X13535Y23164D3*
X10440Y19816D3*
Y21325D3*
X7616Y4835D3*
X5930Y6246D3*
X5535Y4424D3*
X7742Y16257D3*
X5670Y17335D3*
Y18342D3*
X12200Y22634D3*
X6440Y22690D3*
X6762Y21460D3*
X7742Y19127D3*
X8050Y17552D3*
X7590Y15290D3*
X8785Y13138D3*
X9713Y7608D3*
X7227Y14114D3*
X11557Y11515D3*
X9686Y12321D3*
X8865Y11926D3*
X8335Y12716D3*
X10159Y14250D3*
X8662Y13720D3*
X7740Y15740D3*
X7227Y12121D3*
X6834Y10730D3*
X6045D3*
X5890Y9440D3*
X5670Y6940D3*
X8664Y11136D3*
Y6835D3*
X8452Y5851D3*
X9318Y11531D3*
Y7213D3*
X8146Y4835D3*
X10274Y8835D3*
X10804Y9545D3*
X10409Y11830D3*
X11952Y11140D3*
X4340Y23366D2*
D14*
X6546D1*
X8108D2*
X9811D1*
X11377D2*
X13491D1*
X4340Y23118D2*
X6233D1*
X8108D2*
X9811D1*
X11377D2*
X13491D1*
X4340Y22869D2*
X5987D1*
X11377D2*
X11772D1*
X12627D2*
X13491D1*
X4340Y22620D2*
X5956D1*
X11377D2*
X11710D1*
X12690D2*
X13491D1*
X4340Y22372D2*
X6077D1*
X11377D2*
X11792D1*
X12608D2*
X13491D1*
X4340Y22123D2*
X6253D1*
X11377D2*
X11847D1*
X12553D2*
X13491D1*
X4340Y21874D2*
X6308D1*
X7033D2*
X7733D1*
X9979D2*
X11847D1*
X12553D2*
X13491D1*
X4340Y21625D2*
X6304D1*
X7221D2*
X7733D1*
X10819D2*
X11847D1*
X12553D2*
X13491D1*
X4340Y21377D2*
X5413D1*
X10928D2*
X11847D1*
X12553D2*
X13491D1*
X4340Y21128D2*
X5186D1*
X8369D2*
X8620D1*
X12553D2*
X13491D1*
X4340Y20879D2*
X5179D1*
X8119D2*
X8808D1*
X12553D2*
X13491D1*
X4340Y20631D2*
X5179D1*
X6721D2*
X9085D1*
X12553D2*
X13491D1*
X4340Y20382D2*
X5179D1*
X5889D2*
X9144D1*
X10233D2*
X11585D1*
X4340Y20133D2*
X5179D1*
X5889D2*
X9144D1*
X10803D2*
X11585D1*
X4340Y19885D2*
X5179D1*
X5889D2*
X9144D1*
X10924D2*
X11585D1*
X4340Y19636D2*
X5144D1*
X5889D2*
X9335D1*
X10893D2*
X11585D1*
X4340Y19387D2*
X4425D1*
X5854D2*
X5962D1*
X8154D2*
X9335D1*
X11240D2*
X11585D1*
X5631Y19139D2*
X5835D1*
X8233D2*
X9335D1*
X11315D2*
X11585D1*
X5627Y18890D2*
X5835D1*
X8166D2*
X9335D1*
X9061Y17646D2*
X9335D1*
X9045Y17398D2*
X9335D1*
X8838Y17149D2*
X9335D1*
X10041D2*
X10245D1*
X11440D2*
X11585D1*
X5861Y16900D2*
X6179D1*
X8381D2*
X9335D1*
X10041D2*
X10245D1*
X11440D2*
X11585D1*
X5565Y16652D2*
X6179D1*
X10041D2*
X10245D1*
X11440D2*
X11573D1*
X5444Y16403D2*
X5601D1*
X6471Y15906D2*
X6686D1*
X10549D2*
X10729D1*
X6190Y15657D2*
X6686D1*
X10303D2*
X10495D1*
X5963Y15408D2*
X6686D1*
X10166D2*
X10249D1*
X11776D2*
X12444D1*
X6213Y15160D2*
X6714D1*
X10983D2*
X11067D1*
X6459Y14911D2*
X6913D1*
X10819D2*
X11069D1*
X12037Y14414D2*
X12448D1*
X9850Y13667D2*
X10198D1*
X9850Y13419D2*
X10198D1*
X12127Y10683D2*
X12300D1*
X12315Y10435D2*
X12472D1*
X12006Y9191D2*
X12198D1*
X10752Y8942D2*
X10872D1*
X12006D2*
X12249D1*
X6088Y8694D2*
X7308D1*
X11416D2*
X12296D1*
X6026Y8445D2*
X7257D1*
X11666D2*
X12472D1*
X6026Y8196D2*
X7304D1*
X11795D2*
X12300D1*
X6026Y7948D2*
X6495D1*
X7385D2*
X7479D1*
X8401D2*
X9370D1*
X10057D2*
X11085D1*
X11795D2*
X12249D1*
X6026Y7699D2*
X6308D1*
X10194D2*
X11085D1*
X11795D2*
X12296D1*
X6026Y7450D2*
X6257D1*
X10393D2*
X11085D1*
X11795D2*
X12464D1*
X6080Y7202D2*
X6300D1*
X10643D2*
X11085D1*
X11795D2*
X12304D1*
X6158Y6953D2*
X6472D1*
X10752D2*
X11085D1*
X11795D2*
X12249D1*
X6096Y6704D2*
X6311D1*
X9135D2*
X10042D1*
X10752D2*
X11085D1*
X11795D2*
X12292D1*
X9018Y6456D2*
X10042D1*
X10752D2*
X10872D1*
X12006D2*
X12460D1*
X9018Y6207D2*
X10042D1*
X10752D2*
X10872D1*
X12006D2*
X12308D1*
X6319Y5958D2*
X6468D1*
X9002D2*
X10042D1*
X10752D2*
X10872D1*
X12006D2*
X12249D1*
X5889Y5709D2*
X7983D1*
X8920D2*
X10042D1*
X10752D2*
X10872D1*
X12006D2*
X12218D1*
X5889Y5461D2*
X8175D1*
X8729D2*
X10042D1*
X10752D2*
X10872D1*
X8444Y5212D2*
X10026D1*
X10752D2*
X11722D1*
X12705D2*
X13491D1*
X10725Y4963D2*
X11472D1*
X12455D2*
X13491D1*
X12205Y4715D2*
X13491D1*
X11959Y4466D2*
X13491D1*
X8505Y18713D2*
X9360D1*
X9358Y19878D1*
X9167Y19880D1*
Y20610D1*
X9044Y20672D1*
X8727Y20987D1*
X8657Y21089D1*
X8630Y21220D1*
Y21318D1*
X8597Y21325D1*
X8419Y21321D1*
X8406Y21244D1*
X8348Y21134D1*
X8045Y20829D1*
X7943Y20759D1*
X7812Y20732D1*
X6699D1*
X6697Y20541D1*
X5865D1*
Y19535D1*
X5841Y19413D1*
X5768Y19302D1*
X5583Y19117D1*
X5605Y18940D1*
X5588Y18797D1*
X5729Y18803D1*
X5859Y18765D1*
X5860Y19127D1*
X5883Y19249D1*
X5950Y19354D1*
X6051Y19426D1*
X6190Y19457D1*
X7412D1*
X7556Y19553D1*
X7676Y19587D1*
X7801Y19588D1*
X7921Y19556D1*
X8029Y19493D1*
X8116Y19404D1*
X8176Y19295D1*
X8205Y19174D1*
X8207Y19127D1*
X8191Y19004D1*
X8142Y18889D1*
X8064Y18791D1*
X8036Y18771D1*
X8149Y18770D1*
X8271Y18747D1*
X8378Y18677D1*
X8358Y18695D1*
X8380Y18713D1*
X8505D1*
X9356Y17671D2*
X9028D1*
X9045Y17552D1*
X9028Y17429D1*
X8979Y17314D1*
X8902Y17217D1*
X8801Y17143D1*
X8684Y17099D1*
X8560Y17088D1*
X8438Y17110D1*
X8316Y17171D1*
X8271Y17143D1*
X8158Y17099D1*
X8418Y16839D1*
X8496Y16715D1*
X9360Y16713D1*
X9358Y17667D1*
X10209Y20598D2*
Y20215D1*
X10254Y20242D1*
X10374Y20276D1*
X10499Y20277D1*
X10619Y20245D1*
X10727Y20182D1*
X10814Y20093D1*
X10874Y19983D1*
X10903Y19862D1*
X10905Y19816D1*
X10888Y19692D1*
X10847Y19595D1*
X10884Y19594D1*
X11005Y19562D1*
X11112Y19499D1*
X11199Y19410D1*
X11259Y19301D1*
X11291Y19134D1*
X11389Y19004D1*
X11378Y19025D1*
X11505Y18961D1*
X11610D1*
Y20538D1*
X11543Y20600D1*
X10208D1*
X5702Y21583D2*
X6315D1*
X6371Y21707D1*
X6271Y22153D1*
X6231Y22273D1*
X6091Y22383D1*
X6022Y22486D1*
X5983Y22605D1*
X5977Y22729D1*
X6004Y22851D1*
X6062Y22961D1*
X6148Y23052D1*
X6254Y23116D1*
X6374Y23150D1*
X6499Y23151D1*
X6570Y23132D1*
X6569Y23611D1*
X6015Y23615D1*
X4315D1*
Y19166D1*
X4398Y19325D1*
X4479Y19420D1*
X4577Y19497D1*
X4688Y19555D1*
X4807Y19592D1*
X4931Y19605D1*
X5056Y19595D1*
X5112Y19579D1*
X5207Y19673D1*
X5205Y21062D1*
X5228Y21184D1*
X5295Y21289D1*
X5396Y21361D1*
X5535Y21392D1*
X5578D1*
X5577Y21583D1*
X5702D1*
X10270Y17171D2*
X10020D1*
X10019Y16332D1*
X10270Y16583D1*
Y17169D1*
X11614Y17171D2*
X11414D1*
X11416Y16143D1*
X11452Y16175D1*
X11483Y16250D1*
X11477Y16374D1*
X11504Y16496D1*
X11562Y16606D1*
X11613Y16660D1*
X11610Y17175D1*
X6184Y15682D2*
X6162Y15654D1*
X6061Y15581D1*
X5945Y15537D1*
X5824Y15526D1*
X6560Y14785D1*
X6617Y14707D1*
X6937Y14703D1*
Y14927D1*
X6807Y15057D1*
X6737Y15160D1*
X6710Y15290D1*
Y16109D1*
X6643Y16102D1*
X6298Y15757D1*
X6191Y15686D1*
X6216Y15698D1*
X5497Y16298D2*
X5548Y16352D1*
X5654Y16416D1*
X5774Y16450D1*
X5899Y16451D1*
X6022Y16417D1*
X6204Y16596D1*
X6203Y17331D1*
X6135Y17335D1*
X6118Y17211D1*
X6069Y17097D1*
X5992Y16999D1*
X5891Y16926D1*
X5774Y16882D1*
X5650Y16870D1*
X5601Y16879D1*
X5593Y16816D1*
X5559Y16696D1*
X5502Y16585D1*
X5426Y16486D1*
X5376Y16442D1*
X5472Y16339D1*
X5494Y16303D1*
X10137Y15402D2*
X10270D1*
X10756Y15892D1*
Y16134D1*
X10140Y15520D1*
Y15403D1*
X10164Y15402D1*
Y15398D1*
X10794Y15000D2*
Y14703D1*
X11096D1*
X11092Y15095D1*
Y15294D1*
X10791Y14994D1*
X10794Y10278D2*
Y10147D1*
X10665D1*
X10808Y10008D1*
X10896Y9997D1*
X10899Y10201D1*
X11638D1*
X11574Y10279D1*
X10792D1*
X8369Y7936D2*
X8460Y7840D1*
X8566Y7911D1*
X8697Y7938D1*
X9388D1*
X9421Y7970D1*
X9527Y8034D1*
X9647Y8068D1*
X9772Y8069D1*
X9892Y8037D1*
X10000Y7974D1*
X10087Y7885D1*
X10147Y7776D1*
X10176Y7655D1*
X10169Y7543D1*
X10235Y7529D1*
X10345Y7471D1*
X10632Y7187D1*
X10702Y7084D1*
X10729Y6953D1*
Y5095D1*
X10705Y4973D1*
X10632Y4861D1*
X10541Y4770D1*
X11301D1*
X11795Y5262D1*
X10899D1*
Y6618D1*
X11106D1*
X11110Y7315D1*
Y8045D1*
X11043Y8110D1*
X8507Y8109D1*
X8418Y7987D1*
X8368Y7943D1*
X8541Y7899D1*
X8660Y7936D1*
X8697Y7938D1*
X9953Y22032D2*
Y21657D1*
X10115Y21655D1*
X10148Y21687D1*
X10254Y21751D1*
X10374Y21785D1*
X10499Y21786D1*
X10619Y21754D1*
X10727Y21691D1*
X10814Y21602D1*
X10874Y21493D1*
X10903Y21372D1*
X10896Y21259D1*
X11680Y21260D1*
X11805Y21235D1*
X11780Y21244D1*
X11870Y21305D1*
Y22309D1*
X11782Y22431D1*
X11743Y22549D1*
X11736Y22674D1*
X11764Y22795D1*
X11822Y22905D1*
X11907Y22996D1*
X12014Y23061D1*
X12134Y23095D1*
X12258Y23096D1*
X12379Y23064D1*
X12486Y23001D1*
X12573Y22911D1*
X12634Y22802D1*
X12663Y22681D1*
X12665Y22634D1*
X12648Y22511D1*
X12599Y22396D1*
X12529Y22308D1*
X12530Y20467D1*
X12688Y20555D1*
X12807Y20592D1*
X12931Y20605D1*
X13056Y20595D1*
X13176Y20562D1*
X13288Y20507D1*
X13388Y20432D1*
X13472Y20339D1*
X13515Y20269D1*
Y23615D1*
X11347D1*
X11351Y23359D1*
Y22029D1*
X9957D1*
X9837Y22971D2*
Y23611D1*
X9140Y23615D1*
X8081D1*
X8083Y22847D1*
X8216Y22982D1*
X8319Y23052D1*
X8449Y23079D1*
X9590D1*
X9712Y23056D1*
X9819Y22986D1*
X9806Y22998D1*
X7759Y22029D2*
X6978D1*
X7014Y21850D1*
X7049Y21826D1*
X7136Y21737D1*
X7196Y21628D1*
X7225Y21507D1*
X7218Y21395D1*
X7672Y21392D1*
X7758Y21475D1*
X7760Y22031D1*
X11771Y6618D2*
X11981D1*
Y5450D1*
X12298Y5764D1*
X12281Y5851D1*
X12276Y5976D1*
X12294Y6099D1*
X12335Y6217D1*
X12398Y6325D1*
X12501Y6437D1*
X12431Y6513D1*
X12360Y6615D1*
X12309Y6730D1*
X12281Y6851D1*
X12276Y6976D1*
X12294Y7099D1*
X12335Y7217D1*
X12398Y7325D1*
X12501Y7437D1*
X12431Y7513D1*
X12360Y7615D1*
X12309Y7730D1*
X12281Y7851D1*
X12276Y7976D1*
X12294Y8099D1*
X12335Y8217D1*
X12398Y8325D1*
X12501Y8437D1*
X12431Y8513D1*
X12360Y8615D1*
X12309Y8730D1*
X12281Y8851D1*
X12276Y8976D1*
X12301Y9118D1*
X11980Y9433D1*
X11981Y8844D1*
X10899D1*
Y9090D1*
X10784Y9081D1*
X10651Y9107D1*
X10708Y9003D1*
X10737Y8881D1*
X10730Y8769D1*
X11180Y8770D1*
X11302Y8747D1*
X11413Y8673D1*
X11673Y8413D1*
X11743Y8311D1*
X11770Y8180D1*
Y6622D1*
X13514Y5609D2*
X13426Y5486D1*
X13332Y5403D1*
X13225Y5339D1*
X13108Y5297D1*
X12985Y5276D1*
X12860Y5280D1*
X12765Y5301D1*
X11834Y4367D1*
X13515Y4365D1*
Y5603D1*
X12301Y10118D2*
X12335Y10217D1*
X12398Y10325D1*
X12501Y10437D1*
X12431Y10513D1*
X12360Y10615D1*
X12309Y10730D1*
X12289Y10817D1*
X12173Y10731D1*
X12090Y10699D1*
X12203Y10583D1*
X12273Y10480D1*
X12300Y10349D1*
Y10119D1*
X12365Y14268D2*
X12398Y14325D1*
X12501Y14437D1*
X12431Y14513D1*
X12362Y14612D1*
X12077Y14610D1*
X12012Y14543D1*
Y14208D1*
X12047Y14231D1*
X12165Y14268D1*
X12202Y14270D1*
X10069Y13176D2*
X10120Y13177D1*
X10221Y13150D1*
X10224Y13788D1*
X10140Y13785D1*
X10017Y13807D1*
X9905Y13861D1*
X9825Y13929D1*
Y13420D1*
X10063Y13181D1*
X6060Y6689D2*
X6109Y6675D1*
X6216Y6613D1*
X6291Y6538D1*
X6306Y6618D1*
X6351Y6735D1*
X6417Y6841D1*
X6510Y6942D1*
X6426Y7029D1*
X6357Y7133D1*
X6310Y7248D1*
X6285Y7371D1*
X6284Y7496D1*
X6306Y7618D1*
X6351Y7735D1*
X6417Y7841D1*
X6502Y7932D1*
X6603Y8006D1*
X6716Y8059D1*
X6836Y8090D1*
X6961Y8098D1*
X7085Y8083D1*
X7203Y8044D1*
X7313Y7983D1*
X7408Y7903D1*
X7440Y7864D1*
X7512Y7939D1*
X7426Y8029D1*
X7357Y8133D1*
X7310Y8248D1*
X7285Y8371D1*
X7284Y8496D1*
X7306Y8618D1*
X7338Y8702D1*
X6355Y8699D1*
X6062D1*
X6000Y8632D1*
X5997Y7264D1*
X6043Y7217D1*
X6104Y7108D1*
X6133Y6987D1*
X6135Y6940D1*
X6118Y6817D1*
X6062Y6693D1*
X10002Y6883D2*
X9640Y6878D1*
X9539Y6804D1*
X9423Y6760D1*
X9299Y6749D1*
X9176Y6771D1*
X9123Y6792D1*
X9112Y6711D1*
X9063Y6597D1*
X8993Y6508D1*
X8994Y6063D1*
X8968Y5938D1*
X8917Y5851D1*
X8900Y5728D1*
X8851Y5613D1*
X8774Y5516D1*
X8673Y5442D1*
X8556Y5398D1*
X8432Y5387D1*
X8309Y5409D1*
X8197Y5462D1*
X8103Y5544D1*
X8034Y5648D1*
X7994Y5785D1*
X7850Y5787D1*
X7728Y5816D1*
X7615Y5867D1*
X7512Y5939D1*
X7440Y6014D1*
X7324Y5905D1*
X7216Y5842D1*
X7098Y5801D1*
X6975Y5782D1*
X6850Y5787D1*
X6728Y5816D1*
X6615Y5867D1*
X6512Y5939D1*
X6426Y6029D1*
X6372Y6110D1*
X6329Y6008D1*
X6252Y5911D1*
X6151Y5837D1*
X6034Y5793D1*
X5937Y5784D1*
X5862Y5712D1*
X5865Y5223D1*
X5976Y5295D1*
X6069Y5319D1*
X6077Y5374D1*
X6803D1*
X6800Y4608D1*
X6825D1*
Y5374D1*
X7551D1*
Y5292D1*
X7675Y5296D1*
X7795Y5264D1*
X7879Y5215D1*
X7960Y5261D1*
X8080Y5295D1*
X8205Y5296D1*
X8325Y5264D1*
X8433Y5201D1*
X8468Y5165D1*
X10002D1*
X10069Y5231D1*
Y6817D1*
X12067Y15270D2*
X12365Y15268D1*
X12398Y15325D1*
X12501Y15437D1*
X12431Y15513D1*
X12362Y15612D1*
X11819Y15610D1*
X11752Y15543D1*
Y15208D1*
X11787Y15231D1*
X11905Y15268D1*
X12067Y15270D1*
D15*
X8940Y18940D3*
Y18192D3*
Y16940D3*
Y16192D3*
D16*
Y20440D3*
X9688D3*
D15*
X6137Y21062D3*
Y20314D3*
X10440Y18440D3*
Y17692D3*
X11940Y18440D3*
Y17692D3*
D17*
X10440Y14940D3*
X10125D3*
X9810D3*
X9495D3*
X9180D3*
X8865D3*
X8550D3*
X8235D3*
X7920D3*
X7605D3*
X7290D3*
D18*
X6700Y14349D3*
Y14034D3*
Y13720D3*
Y13405D3*
Y13090D3*
Y12775D3*
Y12460D3*
Y12145D3*
Y11830D3*
Y11515D3*
Y11200D3*
D17*
X7290Y10609D3*
X7605D3*
X7920D3*
X8235D3*
X8550D3*
X8865D3*
X9180D3*
X9495D3*
X9810D3*
X10125D3*
X10440D3*
D18*
X11031Y11200D3*
Y11515D3*
Y11830D3*
Y12145D3*
Y12460D3*
Y12775D3*
Y13090D3*
Y13405D3*
Y13720D3*
Y14034D3*
Y14349D3*
D19*
X6940Y18440D3*
Y16865D3*
D20*
Y8440D3*
Y7440D3*
Y6440D3*
X7940D3*
Y7440D3*
Y8440D3*
D21*
X7188Y4991D3*
X6814D3*
X6440D3*
Y4440D3*
X7188D3*
D22*
X9590Y21940D3*
X9275D3*
X8960D3*
X8645D3*
X8330D3*
D23*
X10594Y22944D3*
X7326D3*
D24*
X11440Y5940D3*
X9668D3*
X11440Y9523D3*
X9668D3*
D25*
X4940Y19940D3*
Y18940D3*
Y17940D3*
Y16940D3*
Y15940D3*
Y14940D3*
Y13940D3*
Y12940D3*
Y11940D3*
Y10940D3*
Y9940D3*
Y8940D3*
Y7940D3*
Y6940D3*
Y5940D3*
Y4940D3*
X12940D3*
Y5940D3*
Y6940D3*
Y7940D3*
Y8940D3*
Y9940D3*
Y10940D3*
Y11940D3*
Y12940D3*
Y13940D3*
Y14940D3*
Y15940D3*
Y16940D3*
Y17940D3*
Y18940D3*
Y19940D3*
M02*
