G04 DipTrace 2.2.0.9*
%INTopSilk.gbr*%
%MOIN*%
%ADD10C,0.0098*%
%ADD55C,0.0077*%
%ADD56C,0.0124*%
%FSLAX44Y44*%
%SFA1B1*%
%OFA0B0*%
G04*
G70*
G90*
G75*
G01*
%LNTopSilk*%
%LPD*%
X8684Y19353D2*
D10*
X9196D1*
X8684Y17353D2*
X9196D1*
X8527Y20184D2*
Y20696D1*
X5881Y21476D2*
X6393D1*
X10490Y14399D2*
X7178D1*
Y11150D1*
X10490D1*
Y14399D1*
X6990Y10900D2*
X6553D1*
Y10462D1*
X6990D1*
Y10900D1*
X11178D2*
X10740D1*
Y10462D1*
X11178D1*
Y10900D1*
X6990Y15087D2*
X6553D1*
Y14650D1*
X6990D1*
Y15087D1*
X10740Y15275D2*
X11365Y14650D1*
Y14587D2*
X10740D1*
Y15275D1*
X7940Y19153D2*
X5940D1*
Y16153D1*
X7940D1*
Y19153D1*
X8440Y8940D2*
X6440D1*
Y5940D1*
X8440D1*
Y8940D1*
X8690Y6940D2*
X7440D1*
Y5690D1*
X8690D1*
Y6940D1*
X7439Y4216D2*
X6189D1*
Y5216D1*
X7439D1*
Y4216D1*
X11085Y24302D2*
X6773D1*
X8032Y18687D2*
D55*
X7984Y18663D1*
D2*
X7936Y18615D1*
D2*
X7912Y18568D1*
D2*
Y18472D1*
D2*
X7936Y18424D1*
D2*
X7984Y18376D1*
D2*
X8032Y18352D1*
D2*
X8104Y18328D1*
D2*
X8224D1*
D2*
X8295Y18352D1*
D2*
X8343Y18376D1*
D2*
X8391Y18424D1*
D2*
X8415Y18472D1*
D2*
Y18568D1*
D2*
X8391Y18615D1*
D2*
X8343Y18663D1*
D2*
X8295Y18687D1*
X8009Y18841D2*
X7984Y18889D1*
D2*
X7913Y18961D1*
D2*
X8415D1*
X8032Y16579D2*
X7984Y16556D1*
D2*
X7936Y16508D1*
D2*
X7912Y16460D1*
D2*
Y16364D1*
D2*
X7936Y16316D1*
D2*
X7984Y16269D1*
D2*
X8032Y16245D1*
D2*
X8104Y16221D1*
D2*
X8224D1*
D2*
X8295Y16245D1*
D2*
X8343Y16269D1*
D2*
X8391Y16316D1*
D2*
X8415Y16364D1*
D2*
Y16460D1*
D2*
X8391Y16508D1*
D2*
X8343Y16556D1*
D2*
X8295Y16579D1*
X8032Y16758D2*
X8009D1*
D2*
X7961Y16782D1*
D2*
X7937Y16806D1*
D2*
X7913Y16854D1*
D2*
Y16949D1*
D2*
X7937Y16997D1*
D2*
X7961Y17021D1*
D2*
X8009Y17045D1*
D2*
X8056D1*
D2*
X8104Y17021D1*
D2*
X8176Y16973D1*
D2*
X8415Y16734D1*
D2*
Y17069D1*
X9170Y21348D2*
X9146Y21396D1*
D2*
X9098Y21444D1*
D2*
X9051Y21468D1*
D2*
X8955D1*
D2*
X8907Y21444D1*
D2*
X8859Y21396D1*
D2*
X8835Y21348D1*
D2*
X8811Y21276D1*
D2*
Y21156D1*
D2*
X8835Y21085D1*
D2*
X8859Y21037D1*
D2*
X8907Y20989D1*
D2*
X8955Y20965D1*
D2*
X9051D1*
D2*
X9098Y20989D1*
D2*
X9146Y21037D1*
D2*
X9170Y21085D1*
X9372Y21467D2*
X9635D1*
D2*
X9492Y21276D1*
D2*
X9564D1*
D2*
X9611Y21252D1*
D2*
X9635Y21228D1*
D2*
X9659Y21156D1*
D2*
Y21109D1*
D2*
X9635Y21037D1*
D2*
X9587Y20989D1*
D2*
X9516Y20965D1*
D2*
X9444D1*
D2*
X9372Y20989D1*
D2*
X9349Y21013D1*
D2*
X9324Y21061D1*
X5229Y20690D2*
X5181Y20666D1*
D2*
X5133Y20618D1*
D2*
X5109Y20570D1*
D2*
Y20475D1*
D2*
X5133Y20427D1*
D2*
X5181Y20379D1*
D2*
X5229Y20355D1*
D2*
X5301Y20331D1*
D2*
X5420D1*
D2*
X5492Y20355D1*
D2*
X5540Y20379D1*
D2*
X5587Y20427D1*
D2*
X5612Y20475D1*
D2*
Y20570D1*
D2*
X5587Y20618D1*
D2*
X5540Y20666D1*
D2*
X5492Y20690D1*
X5612Y21083D2*
X5110D1*
D2*
X5444Y20844D1*
D2*
Y21203D1*
X9652Y17761D2*
Y17976D1*
D2*
X9627Y18048D1*
D2*
X9604Y18073D1*
D2*
X9556Y18096D1*
D2*
X9508D1*
D2*
X9461Y18073D1*
D2*
X9436Y18048D1*
D2*
X9412Y17976D1*
D2*
Y17761D1*
D2*
X9915D1*
X9652Y17929D2*
X9915Y18096D1*
X9509Y18251D2*
X9484Y18299D1*
D2*
X9413Y18371D1*
D2*
X9915D1*
X11152Y17654D2*
Y17869D1*
D2*
X11127Y17941D1*
D2*
X11104Y17965D1*
D2*
X11056Y17989D1*
D2*
X11008D1*
D2*
X10961Y17965D1*
D2*
X10936Y17941D1*
D2*
X10912Y17869D1*
D2*
Y17654D1*
D2*
X11415D1*
X11152Y17821D2*
X11415Y17989D1*
X11032Y18167D2*
X11009D1*
D2*
X10961Y18191D1*
D2*
X10937Y18215D1*
D2*
X10913Y18263D1*
D2*
Y18359D1*
D2*
X10937Y18406D1*
D2*
X10961Y18430D1*
D2*
X11009Y18454D1*
D2*
X11056D1*
D2*
X11104Y18430D1*
D2*
X11176Y18382D1*
D2*
X11415Y18143D1*
D2*
Y18478D1*
X8629Y16007D2*
Y15648D1*
D2*
X8653Y15576D1*
D2*
X8701Y15529D1*
D2*
X8773Y15504D1*
D2*
X8821D1*
D2*
X8893Y15529D1*
D2*
X8941Y15576D1*
D2*
X8964Y15648D1*
D2*
Y16007D1*
X9119Y15911D2*
X9167Y15935D1*
D2*
X9239Y16006D1*
D2*
Y15504D1*
X6528Y19885D2*
Y19526D1*
D2*
X6552Y19454D1*
D2*
X6600Y19407D1*
D2*
X6672Y19382D1*
D2*
X6719D1*
D2*
X6791Y19407D1*
D2*
X6839Y19454D1*
D2*
X6863Y19526D1*
D2*
Y19885D1*
X7042Y19765D2*
Y19789D1*
D2*
X7065Y19837D1*
D2*
X7089Y19861D1*
D2*
X7137Y19884D1*
D2*
X7233D1*
D2*
X7280Y19861D1*
D2*
X7304Y19837D1*
D2*
X7328Y19789D1*
D2*
Y19741D1*
D2*
X7304Y19693D1*
D2*
X7257Y19622D1*
D2*
X7017Y19382D1*
D2*
X7352D1*
X7153Y9672D2*
Y9314D1*
D2*
X7177Y9242D1*
D2*
X7225Y9194D1*
D2*
X7297Y9170D1*
D2*
X7344D1*
D2*
X7416Y9194D1*
D2*
X7464Y9242D1*
D2*
X7488Y9314D1*
D2*
Y9672D1*
X7690D2*
X7953D1*
D2*
X7810Y9481D1*
D2*
X7882D1*
D2*
X7929Y9457D1*
D2*
X7953Y9433D1*
D2*
X7977Y9361D1*
D2*
Y9314D1*
D2*
X7953Y9242D1*
D2*
X7905Y9194D1*
D2*
X7833Y9170D1*
D2*
X7762D1*
D2*
X7690Y9194D1*
D2*
X7667Y9218D1*
D2*
X7642Y9266D1*
X6390Y5948D2*
Y5589D1*
D2*
X6414Y5517D1*
D2*
X6462Y5470D1*
D2*
X6534Y5445D1*
D2*
X6581D1*
D2*
X6653Y5470D1*
D2*
X6701Y5517D1*
D2*
X6725Y5589D1*
D2*
Y5948D1*
X7119Y5445D2*
Y5947D1*
D2*
X6879Y5613D1*
D2*
X7238D1*
X8517Y25034D2*
Y24676D1*
D2*
X8541Y24604D1*
D2*
X8589Y24556D1*
D2*
X8661Y24532D1*
D2*
X8708D1*
D2*
X8780Y24556D1*
D2*
X8828Y24604D1*
D2*
X8852Y24676D1*
D2*
Y25034D1*
X9293D2*
X9055D1*
D2*
X9031Y24819D1*
D2*
X9055Y24843D1*
D2*
X9126Y24867D1*
D2*
X9198D1*
D2*
X9270Y24843D1*
D2*
X9318Y24795D1*
D2*
X9341Y24723D1*
D2*
Y24676D1*
D2*
X9318Y24604D1*
D2*
X9270Y24556D1*
D2*
X9198Y24532D1*
D2*
X9126D1*
D2*
X9055Y24556D1*
D2*
X9031Y24580D1*
D2*
X9007Y24628D1*
X10154Y10668D2*
Y10310D1*
D2*
X10178Y10238D1*
D2*
X10226Y10190D1*
D2*
X10298Y10166D1*
D2*
X10345D1*
D2*
X10417Y10190D1*
D2*
X10465Y10238D1*
D2*
X10489Y10310D1*
D2*
Y10668D1*
X10930Y10596D2*
X10907Y10644D1*
D2*
X10835Y10668D1*
D2*
X10787D1*
D2*
X10715Y10644D1*
D2*
X10667Y10572D1*
D2*
X10644Y10453D1*
D2*
Y10333D1*
D2*
X10667Y10238D1*
D2*
X10715Y10190D1*
D2*
X10787Y10166D1*
D2*
X10811D1*
D2*
X10882Y10190D1*
D2*
X10930Y10238D1*
D2*
X10954Y10310D1*
D2*
Y10333D1*
D2*
X10930Y10405D1*
D2*
X10882Y10453D1*
D2*
X10811Y10477D1*
D2*
X10787D1*
D2*
X10715Y10453D1*
D2*
X10667Y10405D1*
D2*
X10644Y10333D1*
X3808Y12028D2*
X4166D1*
D2*
X4238Y12052D1*
D2*
X4286Y12100D1*
D2*
X4310Y12172D1*
D2*
Y12219D1*
D2*
X4286Y12291D1*
D2*
X4238Y12339D1*
D2*
X4166Y12363D1*
D2*
X3808D1*
X4310Y12613D2*
X3808Y12852D1*
D2*
Y12517D1*
X11808Y12028D2*
X12166D1*
D2*
X12238Y12052D1*
D2*
X12286Y12100D1*
D2*
X12310Y12172D1*
D2*
Y12219D1*
D2*
X12286Y12291D1*
D2*
X12238Y12339D1*
D2*
X12166Y12363D1*
D2*
X11808D1*
Y12637D2*
X11832Y12566D1*
D2*
X11880Y12541D1*
D2*
X11928D1*
D2*
X11975Y12566D1*
D2*
X12000Y12613D1*
D2*
X12023Y12709D1*
D2*
X12047Y12781D1*
D2*
X12095Y12828D1*
D2*
X12143Y12852D1*
D2*
X12215D1*
D2*
X12262Y12828D1*
D2*
X12286Y12804D1*
D2*
X12310Y12732D1*
D2*
Y12637D1*
D2*
X12286Y12566D1*
D2*
X12262Y12541D1*
D2*
X12215Y12517D1*
D2*
X12143D1*
D2*
X12095Y12541D1*
D2*
X12047Y12589D1*
D2*
X12023Y12661D1*
D2*
X12000Y12756D1*
D2*
X11975Y12804D1*
D2*
X11928Y12828D1*
D2*
X11880D1*
D2*
X11832Y12804D1*
D2*
X11808Y12732D1*
D2*
Y12637D1*
X10023Y22449D2*
D56*
Y23023D1*
D2*
X9985Y23138D1*
D2*
X9908Y23214D1*
D2*
X9793Y23253D1*
D2*
X9717D1*
D2*
X9602Y23214D1*
D2*
X9525Y23138D1*
D2*
X9487Y23023D1*
D2*
Y22449D1*
X8704Y22564D2*
X8780Y22487D1*
D2*
X8895Y22449D1*
D2*
X9048D1*
D2*
X9163Y22487D1*
D2*
X9240Y22564D1*
D2*
Y22640D1*
D2*
X9201Y22717D1*
D2*
X9163Y22755D1*
D2*
X9087Y22793D1*
D2*
X8857Y22870D1*
D2*
X8780Y22908D1*
D2*
X8742Y22947D1*
D2*
X8704Y23023D1*
D2*
Y23138D1*
D2*
X8780Y23214D1*
D2*
X8895Y23253D1*
D2*
X9048D1*
D2*
X9163Y23214D1*
D2*
X9240Y23138D1*
X8457Y22449D2*
Y23253D1*
D2*
X8112D1*
D2*
X7997Y23214D1*
D2*
X7959Y23176D1*
D2*
X7921Y23100D1*
D2*
Y22985D1*
D2*
X7959Y22908D1*
D2*
X7997Y22870D1*
D2*
X8112Y22832D1*
D2*
X7997Y22793D1*
D2*
X7959Y22755D1*
D2*
X7921Y22679D1*
D2*
Y22602D1*
D2*
X7959Y22526D1*
D2*
X7997Y22487D1*
D2*
X8112Y22449D1*
D2*
X8457D1*
Y22832D2*
X8112D1*
M02*
