G04 DipTrace 2.2.0.9*
%INTopSilk.gbr*%
%MOIN*%
%ADD10C,0.0098*%
%ADD55C,0.0077*%
%ADD56C,0.0062*%
%ADD57C,0.0124*%
%FSLAX44Y44*%
%SFA1B1*%
%OFA0B0*%
G04*
G70*
G90*
G75*
G01*
%LNTopSilk*%
%LPD*%
X9816Y8997D2*
D10*
X9304D1*
X9896Y6507D2*
X9384D1*
X6527Y5884D2*
Y6396D1*
X6687Y10344D2*
Y10856D1*
X14114Y10016D2*
X17364D1*
Y6704D1*
X14114D1*
Y10016D1*
X17614Y6516D2*
X18052D1*
Y6078D1*
X17614D1*
Y6516D1*
Y10703D2*
X18052D1*
Y10266D1*
X17614D1*
Y10703D1*
X13427Y6516D2*
X13864D1*
Y6078D1*
X13427D1*
Y6516D1*
X13239Y10266D2*
X13864Y10891D1*
X13926D2*
Y10266D1*
X13239D1*
X12570Y9893D2*
X10570D1*
Y6893D1*
X12570D1*
Y9893D1*
X22450Y7620D2*
X24450D1*
Y10620D1*
X22450D1*
Y7620D1*
X22200Y9620D2*
X23450D1*
Y10870D1*
X22200D1*
Y9620D1*
X22609Y6686D2*
X23859D1*
Y5686D1*
X22609D1*
Y6686D1*
X3488Y10525D2*
Y6213D1*
X8652Y9747D2*
D55*
X8604Y9724D1*
D2*
X8556Y9676D1*
D2*
X8532Y9628D1*
D2*
Y9532D1*
D2*
X8556Y9484D1*
D2*
X8604Y9437D1*
D2*
X8652Y9412D1*
D2*
X8724Y9389D1*
D2*
X8844D1*
D2*
X8915Y9412D1*
D2*
X8963Y9437D1*
D2*
X9011Y9484D1*
D2*
X9035Y9532D1*
D2*
Y9628D1*
D2*
X9011Y9676D1*
D2*
X8963Y9724D1*
D2*
X8915Y9747D1*
X8629Y9902D2*
X8604Y9950D1*
D2*
X8533Y10022D1*
D2*
X9035D1*
X8732Y7150D2*
X8684Y7126D1*
D2*
X8636Y7078D1*
D2*
X8612Y7031D1*
D2*
Y6935D1*
D2*
X8636Y6887D1*
D2*
X8684Y6839D1*
D2*
X8732Y6815D1*
D2*
X8804Y6791D1*
D2*
X8924D1*
D2*
X8995Y6815D1*
D2*
X9043Y6839D1*
D2*
X9091Y6887D1*
D2*
X9115Y6935D1*
D2*
Y7031D1*
D2*
X9091Y7078D1*
D2*
X9043Y7126D1*
D2*
X8995Y7150D1*
X8732Y7329D2*
X8709D1*
D2*
X8661Y7352D1*
D2*
X8637Y7376D1*
D2*
X8613Y7424D1*
D2*
Y7520D1*
D2*
X8637Y7567D1*
D2*
X8661Y7591D1*
D2*
X8709Y7615D1*
D2*
X8756D1*
D2*
X8804Y7591D1*
D2*
X8876Y7544D1*
D2*
X9115Y7304D1*
D2*
Y7639D1*
X7884Y4432D2*
D56*
Y4030D1*
D2*
X8056D1*
D2*
X8114Y4049D1*
D2*
X8133Y4068D1*
D2*
X8152Y4106D1*
D2*
Y4164D1*
D2*
X8133Y4202D1*
D2*
X8114Y4221D1*
D2*
X8056Y4240D1*
D2*
X8114Y4260D1*
D2*
X8133Y4279D1*
D2*
X8152Y4317D1*
D2*
Y4355D1*
D2*
X8133Y4393D1*
D2*
X8114Y4413D1*
D2*
X8056Y4432D1*
D2*
X7884D1*
Y4240D2*
X8056D1*
X8275Y4355D2*
X8314Y4374D1*
D2*
X8371Y4431D1*
D2*
Y4030D1*
X8814Y4442D2*
Y4040D1*
D2*
X8986D1*
D2*
X9044Y4059D1*
D2*
X9063Y4078D1*
D2*
X9082Y4116D1*
D2*
Y4174D1*
D2*
X9063Y4212D1*
D2*
X9044Y4231D1*
D2*
X8986Y4250D1*
D2*
X9044Y4270D1*
D2*
X9063Y4289D1*
D2*
X9082Y4327D1*
D2*
Y4365D1*
D2*
X9063Y4403D1*
D2*
X9044Y4423D1*
D2*
X8986Y4442D1*
D2*
X8814D1*
Y4250D2*
X8986D1*
X9225Y4346D2*
Y4365D1*
D2*
X9244Y4403D1*
D2*
X9263Y4422D1*
D2*
X9301Y4441D1*
D2*
X9378D1*
D2*
X9416Y4422D1*
D2*
X9435Y4403D1*
D2*
X9454Y4365D1*
D2*
Y4327D1*
D2*
X9435Y4288D1*
D2*
X9397Y4231D1*
D2*
X9205Y4040D1*
D2*
X9473D1*
X9824Y4432D2*
Y4030D1*
D2*
X9996D1*
D2*
X10054Y4049D1*
D2*
X10073Y4068D1*
D2*
X10092Y4106D1*
D2*
Y4164D1*
D2*
X10073Y4202D1*
D2*
X10054Y4221D1*
D2*
X9996Y4240D1*
D2*
X10054Y4260D1*
D2*
X10073Y4279D1*
D2*
X10092Y4317D1*
D2*
Y4355D1*
D2*
X10073Y4393D1*
D2*
X10054Y4413D1*
D2*
X9996Y4432D1*
D2*
X9824D1*
Y4240D2*
X9996D1*
X10254Y4431D2*
X10464D1*
D2*
X10349Y4278D1*
D2*
X10407D1*
D2*
X10445Y4259D1*
D2*
X10464Y4240D1*
D2*
X10483Y4183D1*
D2*
Y4145D1*
D2*
X10464Y4087D1*
D2*
X10426Y4049D1*
D2*
X10368Y4030D1*
D2*
X10311D1*
D2*
X10254Y4049D1*
D2*
X10235Y4068D1*
D2*
X10215Y4106D1*
X10824Y4432D2*
Y4030D1*
D2*
X10996D1*
D2*
X11054Y4049D1*
D2*
X11073Y4068D1*
D2*
X11092Y4106D1*
D2*
Y4164D1*
D2*
X11073Y4202D1*
D2*
X11054Y4221D1*
D2*
X10996Y4240D1*
D2*
X11054Y4260D1*
D2*
X11073Y4279D1*
D2*
X11092Y4317D1*
D2*
Y4355D1*
D2*
X11073Y4393D1*
D2*
X11054Y4413D1*
D2*
X10996Y4432D1*
D2*
X10824D1*
Y4240D2*
X10996D1*
X11292Y4030D2*
X11483Y4431D1*
D2*
X11215D1*
X11784Y4250D2*
X11956D1*
D2*
X12013Y4270D1*
D2*
X12033Y4289D1*
D2*
X12052Y4327D1*
D2*
Y4365D1*
D2*
X12033Y4403D1*
D2*
X12013Y4423D1*
D2*
X11956Y4442D1*
D2*
X11784D1*
D2*
Y4040D1*
X11918Y4250D2*
X12052Y4040D1*
X12443Y4384D2*
X12405Y4423D1*
D2*
X12348Y4442D1*
D2*
X12271D1*
D2*
X12214Y4423D1*
D2*
X12175Y4384D1*
D2*
Y4346D1*
D2*
X12195Y4308D1*
D2*
X12214Y4289D1*
D2*
X12252Y4270D1*
D2*
X12367Y4231D1*
D2*
X12405Y4212D1*
D2*
X12424Y4193D1*
D2*
X12443Y4155D1*
D2*
Y4097D1*
D2*
X12405Y4059D1*
D2*
X12348Y4040D1*
D2*
X12271D1*
D2*
X12214Y4059D1*
D2*
X12175Y4097D1*
X12804Y4442D2*
Y4040D1*
D2*
X12938D1*
D2*
X12995Y4059D1*
D2*
X13034Y4097D1*
D2*
X13053Y4136D1*
D2*
X13072Y4193D1*
D2*
Y4289D1*
D2*
X13053Y4346D1*
D2*
X13034Y4384D1*
D2*
X12995Y4423D1*
D2*
X12938Y4442D1*
D2*
X12804D1*
X13310Y4441D2*
X13253Y4422D1*
D2*
X13214Y4365D1*
D2*
X13195Y4269D1*
D2*
Y4212D1*
D2*
X13214Y4116D1*
D2*
X13253Y4059D1*
D2*
X13310Y4040D1*
D2*
X13348D1*
D2*
X13406Y4059D1*
D2*
X13444Y4116D1*
D2*
X13463Y4212D1*
D2*
Y4269D1*
D2*
X13444Y4365D1*
D2*
X13406Y4422D1*
D2*
X13348Y4441D1*
D2*
X13310D1*
X13444Y4365D2*
X13214Y4116D1*
X13884Y4442D2*
Y4040D1*
D2*
X14018D1*
D2*
X14075Y4059D1*
D2*
X14114Y4097D1*
D2*
X14133Y4136D1*
D2*
X14152Y4193D1*
D2*
Y4289D1*
D2*
X14133Y4346D1*
D2*
X14114Y4384D1*
D2*
X14075Y4423D1*
D2*
X14018Y4442D1*
D2*
X13884D1*
X14275Y4365D2*
X14314Y4384D1*
D2*
X14371Y4441D1*
D2*
Y4040D1*
X14824Y4452D2*
Y4050D1*
D2*
X14958D1*
D2*
X15015Y4069D1*
D2*
X15054Y4107D1*
D2*
X15073Y4146D1*
D2*
X15092Y4203D1*
D2*
Y4299D1*
D2*
X15073Y4356D1*
D2*
X15054Y4394D1*
D2*
X15015Y4433D1*
D2*
X14958Y4452D1*
D2*
X14824D1*
X15235Y4356D2*
Y4375D1*
D2*
X15254Y4413D1*
D2*
X15273Y4432D1*
D2*
X15311Y4451D1*
D2*
X15388D1*
D2*
X15426Y4432D1*
D2*
X15445Y4413D1*
D2*
X15464Y4375D1*
D2*
Y4337D1*
D2*
X15445Y4298D1*
D2*
X15407Y4241D1*
D2*
X15215Y4050D1*
D2*
X15483D1*
X15794Y4442D2*
Y4040D1*
D2*
X15928D1*
D2*
X15985Y4059D1*
D2*
X16024Y4097D1*
D2*
X16043Y4136D1*
D2*
X16062Y4193D1*
D2*
Y4289D1*
D2*
X16043Y4346D1*
D2*
X16024Y4384D1*
D2*
X15985Y4423D1*
D2*
X15928Y4442D1*
D2*
X15794D1*
X16224Y4441D2*
X16434D1*
D2*
X16319Y4288D1*
D2*
X16377D1*
D2*
X16415Y4269D1*
D2*
X16434Y4250D1*
D2*
X16453Y4193D1*
D2*
Y4155D1*
D2*
X16434Y4097D1*
D2*
X16396Y4059D1*
D2*
X16338Y4040D1*
D2*
X16281D1*
D2*
X16224Y4059D1*
D2*
X16205Y4078D1*
D2*
X16185Y4116D1*
X16814Y4442D2*
Y4040D1*
D2*
X16948D1*
D2*
X17005Y4059D1*
D2*
X17044Y4097D1*
D2*
X17063Y4136D1*
D2*
X17082Y4193D1*
D2*
Y4289D1*
D2*
X17063Y4346D1*
D2*
X17044Y4384D1*
D2*
X17005Y4423D1*
D2*
X16948Y4442D1*
D2*
X16814D1*
X17435Y4441D2*
X17244D1*
D2*
X17225Y4269D1*
D2*
X17244Y4288D1*
D2*
X17301Y4308D1*
D2*
X17358D1*
D2*
X17416Y4288D1*
D2*
X17454Y4250D1*
D2*
X17473Y4193D1*
D2*
Y4155D1*
D2*
X17454Y4097D1*
D2*
X17416Y4059D1*
D2*
X17358Y4040D1*
D2*
X17301D1*
D2*
X17244Y4059D1*
D2*
X17225Y4078D1*
D2*
X17205Y4116D1*
X17814Y4462D2*
Y4060D1*
D2*
X17948D1*
D2*
X18005Y4079D1*
D2*
X18044Y4117D1*
D2*
X18063Y4156D1*
D2*
X18082Y4213D1*
D2*
Y4309D1*
D2*
X18063Y4366D1*
D2*
X18044Y4404D1*
D2*
X18005Y4443D1*
D2*
X17948Y4462D1*
D2*
X17814D1*
X18397Y4060D2*
Y4461D1*
D2*
X18205Y4194D1*
D2*
X18492D1*
X18824Y4462D2*
Y4060D1*
D2*
X18958D1*
D2*
X19015Y4079D1*
D2*
X19054Y4117D1*
D2*
X19073Y4156D1*
D2*
X19092Y4213D1*
D2*
Y4309D1*
D2*
X19073Y4366D1*
D2*
X19054Y4404D1*
D2*
X19015Y4443D1*
D2*
X18958Y4462D1*
D2*
X18824D1*
X19445Y4404D2*
X19426Y4442D1*
D2*
X19368Y4461D1*
D2*
X19330D1*
D2*
X19273Y4442D1*
D2*
X19234Y4385D1*
D2*
X19215Y4289D1*
D2*
Y4194D1*
D2*
X19234Y4117D1*
D2*
X19273Y4079D1*
D2*
X19330Y4060D1*
D2*
X19349D1*
D2*
X19406Y4079D1*
D2*
X19445Y4117D1*
D2*
X19464Y4175D1*
D2*
Y4194D1*
D2*
X19445Y4251D1*
D2*
X19406Y4289D1*
D2*
X19349Y4308D1*
D2*
X19330D1*
D2*
X19273Y4289D1*
D2*
X19234Y4251D1*
D2*
X19215Y4194D1*
X19834Y4442D2*
Y4040D1*
D2*
X19968D1*
D2*
X20025Y4059D1*
D2*
X20064Y4097D1*
D2*
X20083Y4136D1*
D2*
X20102Y4193D1*
D2*
Y4289D1*
D2*
X20083Y4346D1*
D2*
X20064Y4384D1*
D2*
X20025Y4423D1*
D2*
X19968Y4442D1*
D2*
X19834D1*
X20302Y4040D2*
X20493Y4441D1*
D2*
X20225D1*
X20804Y4442D2*
Y4040D1*
D2*
X20976D1*
D2*
X21034Y4059D1*
D2*
X21053Y4078D1*
D2*
X21072Y4116D1*
D2*
Y4174D1*
D2*
X21053Y4212D1*
D2*
X21034Y4231D1*
D2*
X20976Y4250D1*
D2*
X21034Y4270D1*
D2*
X21053Y4289D1*
D2*
X21072Y4327D1*
D2*
Y4365D1*
D2*
X21053Y4403D1*
D2*
X21034Y4423D1*
D2*
X20976Y4442D1*
D2*
X20804D1*
Y4250D2*
X20976D1*
X21387Y4040D2*
Y4441D1*
D2*
X21195Y4174D1*
D2*
X21482D1*
X22043Y4431D2*
X21852D1*
D2*
X21833Y4259D1*
D2*
X21852Y4278D1*
D2*
X21910Y4298D1*
D2*
X21967D1*
D2*
X22024Y4278D1*
D2*
X22063Y4240D1*
D2*
X22082Y4183D1*
D2*
Y4145D1*
D2*
X22063Y4087D1*
D2*
X22024Y4049D1*
D2*
X21967Y4030D1*
D2*
X21910D1*
D2*
X21852Y4049D1*
D2*
X21833Y4068D1*
D2*
X21814Y4106D1*
X22205Y4432D2*
X22358Y4030D1*
D2*
X22511Y4432D1*
X23141Y4366D2*
X23122Y4404D1*
D2*
X23083Y4443D1*
D2*
X23045Y4462D1*
D2*
X22969D1*
D2*
X22930Y4443D1*
D2*
X22892Y4404D1*
D2*
X22873Y4366D1*
D2*
X22854Y4309D1*
D2*
Y4213D1*
D2*
X22873Y4156D1*
D2*
X22892Y4117D1*
D2*
X22930Y4079D1*
D2*
X22969Y4060D1*
D2*
X23045D1*
D2*
X23083Y4079D1*
D2*
X23122Y4117D1*
D2*
X23141Y4156D1*
D2*
Y4213D1*
D2*
X23045D1*
X23532Y4462D2*
Y4060D1*
D2*
X23264Y4462D1*
D2*
Y4060D1*
X23656Y4462D2*
Y4060D1*
D2*
X23790D1*
D2*
X23847Y4079D1*
D2*
X23886Y4117D1*
D2*
X23905Y4156D1*
D2*
X23924Y4213D1*
D2*
Y4309D1*
D2*
X23905Y4366D1*
D2*
X23886Y4404D1*
D2*
X23847Y4443D1*
D2*
X23790Y4462D1*
D2*
X23656D1*
X7754Y12754D2*
Y12352D1*
D2*
X7926D1*
D2*
X7984Y12372D1*
D2*
X8003Y12391D1*
D2*
X8022Y12429D1*
D2*
Y12486D1*
D2*
X8003Y12525D1*
D2*
X7984Y12544D1*
D2*
X7926Y12563D1*
D2*
X7984Y12582D1*
D2*
X8003Y12601D1*
D2*
X8022Y12639D1*
D2*
Y12678D1*
D2*
X8003Y12716D1*
D2*
X7984Y12735D1*
D2*
X7926Y12754D1*
D2*
X7754D1*
Y12563D2*
X7926D1*
X8260Y12754D2*
X8203Y12735D1*
D2*
X8164Y12677D1*
D2*
X8145Y12582D1*
D2*
Y12524D1*
D2*
X8164Y12429D1*
D2*
X8203Y12371D1*
D2*
X8260Y12352D1*
D2*
X8298D1*
D2*
X8356Y12371D1*
D2*
X8394Y12429D1*
D2*
X8413Y12524D1*
D2*
Y12582D1*
D2*
X8394Y12677D1*
D2*
X8356Y12735D1*
D2*
X8298Y12754D1*
D2*
X8260D1*
X8394Y12677D2*
X8164Y12429D1*
X9052Y12762D2*
X8804D1*
D2*
Y12360D1*
D2*
X9052D1*
X8804Y12570D2*
X8957D1*
X9405Y12704D2*
X9386Y12742D1*
D2*
X9329Y12761D1*
D2*
X9291D1*
D2*
X9233Y12742D1*
D2*
X9195Y12685D1*
D2*
X9176Y12589D1*
D2*
Y12494D1*
D2*
X9195Y12417D1*
D2*
X9233Y12379D1*
D2*
X9291Y12360D1*
D2*
X9310D1*
D2*
X9367Y12379D1*
D2*
X9405Y12417D1*
D2*
X9424Y12475D1*
D2*
Y12494D1*
D2*
X9405Y12551D1*
D2*
X9367Y12589D1*
D2*
X9310Y12608D1*
D2*
X9291D1*
D2*
X9233Y12589D1*
D2*
X9195Y12551D1*
D2*
X9176Y12494D1*
X10090Y12370D2*
X9937Y12772D1*
D2*
X9784Y12370D1*
X9841Y12504D2*
X10033D1*
X10463Y12772D2*
X10214D1*
D2*
Y12370D1*
Y12580D2*
X10367D1*
X11063Y12772D2*
X10814D1*
D2*
Y12370D1*
Y12580D2*
X10967D1*
X11301Y12771D2*
X11244Y12752D1*
D2*
X11205Y12695D1*
D2*
X11186Y12599D1*
D2*
Y12542D1*
D2*
X11205Y12446D1*
D2*
X11244Y12389D1*
D2*
X11301Y12370D1*
D2*
X11339D1*
D2*
X11397Y12389D1*
D2*
X11435Y12446D1*
D2*
X11454Y12542D1*
D2*
Y12599D1*
D2*
X11435Y12695D1*
D2*
X11397Y12752D1*
D2*
X11339Y12771D1*
D2*
X11301D1*
X11435Y12695D2*
X11205Y12446D1*
X12083Y12772D2*
X11834D1*
D2*
Y12370D1*
Y12580D2*
X11987D1*
X12206Y12695D2*
X12245Y12714D1*
D2*
X12302Y12771D1*
D2*
Y12370D1*
X12973Y12772D2*
X12724D1*
D2*
Y12370D1*
Y12580D2*
X12877D1*
X13288Y12370D2*
Y12771D1*
D2*
X13096Y12504D1*
D2*
X13383D1*
X14003Y12772D2*
X13754D1*
D2*
Y12370D1*
Y12580D2*
X13907D1*
X14356Y12771D2*
X14165D1*
D2*
X14146Y12599D1*
D2*
X14165Y12618D1*
D2*
X14222Y12638D1*
D2*
X14279D1*
D2*
X14337Y12618D1*
D2*
X14375Y12580D1*
D2*
X14394Y12523D1*
D2*
Y12485D1*
D2*
X14375Y12427D1*
D2*
X14337Y12389D1*
D2*
X14279Y12370D1*
D2*
X14222D1*
D2*
X14165Y12389D1*
D2*
X14146Y12408D1*
D2*
X14126Y12446D1*
X15033Y12772D2*
X14784D1*
D2*
Y12370D1*
Y12580D2*
X14937D1*
X15386Y12714D2*
X15367Y12752D1*
D2*
X15309Y12771D1*
D2*
X15271D1*
D2*
X15214Y12752D1*
D2*
X15175Y12695D1*
D2*
X15156Y12599D1*
D2*
Y12504D1*
D2*
X15175Y12427D1*
D2*
X15214Y12389D1*
D2*
X15271Y12370D1*
D2*
X15290D1*
D2*
X15347Y12389D1*
D2*
X15386Y12427D1*
D2*
X15405Y12485D1*
D2*
Y12504D1*
D2*
X15386Y12561D1*
D2*
X15347Y12599D1*
D2*
X15290Y12618D1*
D2*
X15271D1*
D2*
X15214Y12599D1*
D2*
X15175Y12561D1*
D2*
X15156Y12504D1*
X16053Y12772D2*
X15804D1*
D2*
Y12370D1*
Y12580D2*
X15957D1*
X16253Y12370D2*
X16444Y12771D1*
D2*
X16176D1*
X17042Y12762D2*
X16794D1*
D2*
Y12360D1*
D2*
X17042D1*
X16794Y12570D2*
X16947D1*
X17185Y12666D2*
Y12685D1*
D2*
X17204Y12723D1*
D2*
X17223Y12742D1*
D2*
X17262Y12761D1*
D2*
X17338D1*
D2*
X17376Y12742D1*
D2*
X17395Y12723D1*
D2*
X17415Y12685D1*
D2*
Y12647D1*
D2*
X17395Y12608D1*
D2*
X17357Y12551D1*
D2*
X17166Y12360D1*
D2*
X17434D1*
X18031Y12676D2*
X18012Y12714D1*
D2*
X17973Y12753D1*
D2*
X17935Y12772D1*
D2*
X17859D1*
D2*
X17820Y12753D1*
D2*
X17782Y12714D1*
D2*
X17763Y12676D1*
D2*
X17744Y12619D1*
D2*
Y12523D1*
D2*
X17763Y12466D1*
D2*
X17782Y12427D1*
D2*
X17820Y12389D1*
D2*
X17859Y12370D1*
D2*
X17935D1*
D2*
X17973Y12389D1*
D2*
X18012Y12427D1*
D2*
X18031Y12466D1*
X18231Y12370D2*
X18422Y12771D1*
D2*
X18154D1*
X19031Y12676D2*
X19012Y12714D1*
D2*
X18973Y12753D1*
D2*
X18935Y12772D1*
D2*
X18859D1*
D2*
X18820Y12753D1*
D2*
X18782Y12714D1*
D2*
X18763Y12676D1*
D2*
X18744Y12619D1*
D2*
Y12523D1*
D2*
X18763Y12466D1*
D2*
X18782Y12427D1*
D2*
X18820Y12389D1*
D2*
X18859Y12370D1*
D2*
X18935D1*
D2*
X18973Y12389D1*
D2*
X19012Y12427D1*
D2*
X19031Y12466D1*
X19384Y12714D2*
X19365Y12752D1*
D2*
X19307Y12771D1*
D2*
X19269D1*
D2*
X19212Y12752D1*
D2*
X19173Y12695D1*
D2*
X19154Y12599D1*
D2*
Y12504D1*
D2*
X19173Y12427D1*
D2*
X19212Y12389D1*
D2*
X19269Y12370D1*
D2*
X19288D1*
D2*
X19345Y12389D1*
D2*
X19384Y12427D1*
D2*
X19403Y12485D1*
D2*
Y12504D1*
D2*
X19384Y12561D1*
D2*
X19345Y12599D1*
D2*
X19288Y12618D1*
D2*
X19269D1*
D2*
X19212Y12599D1*
D2*
X19173Y12561D1*
D2*
X19154Y12504D1*
X19784Y12772D2*
Y12370D1*
D2*
X19956D1*
D2*
X20014Y12389D1*
D2*
X20033Y12408D1*
D2*
X20052Y12446D1*
D2*
Y12504D1*
D2*
X20033Y12542D1*
D2*
X20014Y12561D1*
D2*
X19956Y12580D1*
D2*
X20014Y12600D1*
D2*
X20033Y12619D1*
D2*
X20052Y12657D1*
D2*
Y12695D1*
D2*
X20033Y12733D1*
D2*
X20014Y12753D1*
D2*
X19956Y12772D1*
D2*
X19784D1*
Y12580D2*
X19956D1*
X20405Y12714D2*
X20386Y12752D1*
D2*
X20328Y12771D1*
D2*
X20290D1*
D2*
X20233Y12752D1*
D2*
X20194Y12695D1*
D2*
X20175Y12599D1*
D2*
Y12504D1*
D2*
X20194Y12427D1*
D2*
X20233Y12389D1*
D2*
X20290Y12370D1*
D2*
X20309D1*
D2*
X20366Y12389D1*
D2*
X20405Y12427D1*
D2*
X20424Y12485D1*
D2*
Y12504D1*
D2*
X20405Y12561D1*
D2*
X20366Y12599D1*
D2*
X20309Y12618D1*
D2*
X20290D1*
D2*
X20233Y12599D1*
D2*
X20194Y12561D1*
D2*
X20175Y12504D1*
X20844Y12762D2*
Y12360D1*
D2*
X21016D1*
D2*
X21074Y12379D1*
D2*
X21093Y12398D1*
D2*
X21112Y12436D1*
D2*
Y12494D1*
D2*
X21093Y12532D1*
D2*
X21074Y12551D1*
D2*
X21016Y12570D1*
D2*
X21074Y12590D1*
D2*
X21093Y12609D1*
D2*
X21112Y12647D1*
D2*
Y12685D1*
D2*
X21093Y12723D1*
D2*
X21074Y12743D1*
D2*
X21016Y12762D1*
D2*
X20844D1*
Y12570D2*
X21016D1*
X21465Y12761D2*
X21274D1*
D2*
X21255Y12589D1*
D2*
X21274Y12608D1*
D2*
X21331Y12628D1*
D2*
X21388D1*
D2*
X21446Y12608D1*
D2*
X21484Y12570D1*
D2*
X21503Y12513D1*
D2*
Y12475D1*
D2*
X21484Y12417D1*
D2*
X21446Y12379D1*
D2*
X21388Y12360D1*
D2*
X21331D1*
D2*
X21274Y12379D1*
D2*
X21255Y12398D1*
D2*
X21235Y12436D1*
X21832Y12751D2*
X22042D1*
D2*
X21928Y12598D1*
D2*
X21985D1*
D2*
X22023Y12579D1*
D2*
X22042Y12560D1*
D2*
X22062Y12503D1*
D2*
Y12465D1*
D2*
X22042Y12407D1*
D2*
X22004Y12369D1*
D2*
X21947Y12350D1*
D2*
X21889D1*
D2*
X21832Y12369D1*
D2*
X21813Y12388D1*
D2*
X21794Y12426D1*
X22185Y12752D2*
X22338Y12350D1*
D2*
X22491Y12752D1*
X22981Y12666D2*
X22962Y12704D1*
D2*
X22923Y12743D1*
D2*
X22885Y12762D1*
D2*
X22809D1*
D2*
X22770Y12743D1*
D2*
X22732Y12704D1*
D2*
X22713Y12666D1*
D2*
X22694Y12609D1*
D2*
Y12513D1*
D2*
X22713Y12456D1*
D2*
X22732Y12417D1*
D2*
X22770Y12379D1*
D2*
X22809Y12360D1*
D2*
X22885D1*
D2*
X22923Y12379D1*
D2*
X22962Y12417D1*
D2*
X22981Y12456D1*
D2*
Y12513D1*
D2*
X22885D1*
X23372Y12762D2*
Y12360D1*
D2*
X23104Y12762D1*
D2*
Y12360D1*
X23496Y12762D2*
Y12360D1*
D2*
X23630D1*
D2*
X23687Y12379D1*
D2*
X23726Y12417D1*
D2*
X23745Y12456D1*
D2*
X23764Y12513D1*
D2*
Y12609D1*
D2*
X23745Y12666D1*
D2*
X23726Y12704D1*
D2*
X23687Y12743D1*
D2*
X23630Y12762D1*
D2*
X23496D1*
X5341Y9463D2*
D57*
X4767D1*
D2*
X4652Y9425D1*
D2*
X4576Y9348D1*
D2*
X4537Y9233D1*
D2*
Y9157D1*
D2*
X4576Y9042D1*
D2*
X4652Y8965D1*
D2*
X4767Y8927D1*
D2*
X5341D1*
X5226Y8144D2*
X5303Y8220D1*
D2*
X5341Y8335D1*
D2*
Y8488D1*
D2*
X5303Y8603D1*
D2*
X5226Y8680D1*
D2*
X5150D1*
D2*
X5073Y8641D1*
D2*
X5035Y8603D1*
D2*
X4997Y8527D1*
D2*
X4920Y8297D1*
D2*
X4882Y8220D1*
D2*
X4843Y8182D1*
D2*
X4767Y8144D1*
D2*
X4652D1*
D2*
X4576Y8220D1*
D2*
X4537Y8335D1*
D2*
Y8488D1*
D2*
X4576Y8603D1*
D2*
X4652Y8680D1*
X5341Y7897D2*
X4537D1*
D2*
Y7552D1*
D2*
X4576Y7437D1*
D2*
X4614Y7399D1*
D2*
X4690Y7361D1*
D2*
X4805D1*
D2*
X4882Y7399D1*
D2*
X4920Y7437D1*
D2*
X4958Y7552D1*
D2*
X4997Y7437D1*
D2*
X5035Y7399D1*
D2*
X5111Y7361D1*
D2*
X5188D1*
D2*
X5264Y7399D1*
D2*
X5303Y7437D1*
D2*
X5341Y7552D1*
D2*
Y7897D1*
X4958D2*
Y7552D1*
M02*
