M48
INCH
T01C0.0191
T02C0.03
T03C0.0402
%
T01
X+017050Y+005800
X+017732Y+006029
X+018296Y+005995
X+018691Y+006424
X+018691Y+007061
X+019535Y+007061
X+020140Y+007456
X+020940Y+008245
X+020275Y+008640
X+019880Y+009151
X+018691Y+009416
X+018691Y+009946
X+018090Y+010384
X+016369Y+009440
X+015770Y+008850
X+015510Y+008160
X+015680Y+007110
X+015450Y+006630
X+014794Y+007179
X+014100Y+007282
X+013630Y+006210
X+014535Y+005620
X+012300Y+006720
X+012680Y+008130
X+012280Y+008850
X+010643Y+009180
X+010445Y+009732
X+010820Y+010262
X+008880Y+010262
X+008485Y+009732
X+007229Y+009465
X+007574Y+011225
X+009560Y+008254
X+010090Y+008427
X+010660Y+007180
X+008999Y+006134
X+008604Y+006664
X+007624Y+007180
X+015077Y+009295
X+015504Y+009835
X+016899Y+008136
X+017294Y+007542
X+021957Y+006461
X+023234Y+006909
X+021957Y+009725
X+021957Y+010515
X+022560Y+010910
X+024539Y+010580
X+024798Y+011370
X+025550Y+011370
T02
X+023140Y+004890
X+022140Y+004890
X+021140Y+004890
X+020140Y+004890
X+019140Y+004890
X+018140Y+004890
X+017140Y+004890
X+016140Y+004890
X+015140Y+004890
X+014140Y+004890
X+013140Y+004890
X+012140Y+004890
X+011140Y+004890
X+010140Y+004890
X+009140Y+004890
X+008140Y+004890
X+008090Y+011890
X+009090Y+011890
X+010090Y+011890
X+011090Y+011890
X+012090Y+011890
X+013090Y+011890
X+014090Y+011890
X+015090Y+011890
X+016090Y+011890
X+017090Y+011890
X+018090Y+011890
X+019090Y+011890
X+020090Y+011890
X+021090Y+011890
X+022090Y+011890
X+023090Y+011890
T03
X+023950Y+008120
X+023950Y+009120
X+023950Y+010120
X+022950Y+010120
X+022950Y+009120
X+022950Y+008120
T00
M30
