G04 DipTrace 2.2.0.9*
%INTop.gbr*%
%MOIN*%
%ADD13C,0.013*%
%ADD14C,0.025*%
%ADD15R,0.0591X0.0512*%
%ADD16R,0.0512X0.0591*%
%ADD17R,0.0394X0.0177*%
%ADD18R,0.0177X0.0394*%
%ADD19R,0.0945X0.0984*%
%ADD20C,0.0787*%
%ADD21R,0.0197X0.0236*%
%ADD22R,0.0709X0.0197*%
%ADD23R,0.1299X0.0984*%
%ADD24R,0.0551X0.0827*%
%ADD25C,0.08*%
%ADD26C,0.04*%
%FSLAX44Y44*%
%SFA1B1*%
%OFA0B0*%
G04*
G70*
G90*
G75*
G01*
%LNTop*%
%LPD*%
X24539Y10580D2*
D13*
X25058Y10060D1*
Y5150D1*
X24798Y4890D1*
X23140D1*
X9640Y6920D2*
X8999D1*
Y6664D1*
X8604D1*
X22560Y10910D2*
X21611D1*
X21352Y10650D1*
Y9900D1*
X7229Y9465D2*
X7848Y10084D1*
Y10600D1*
X9560Y8254D2*
Y9410D1*
X23234Y6909D2*
Y5910D1*
X23140Y4890D2*
X22481Y4231D1*
X6659D1*
X6399Y4490D1*
Y6140D1*
Y7770D1*
X5850D1*
X6940Y6140D2*
X6399D1*
X8604Y6664D2*
X6940D1*
Y6140D1*
X9560Y8254D2*
Y8430D1*
X10010Y8880D1*
X10330D1*
X10340Y8870D1*
X10410D1*
X10770Y8510D1*
X12279D1*
X12739Y8648D1*
X13516D1*
X13574Y8706D1*
X10820Y10262D2*
X12237D1*
X12497Y10002D1*
Y9596D1*
X12757Y9336D1*
X13574D1*
X8880Y10262D2*
Y9100D1*
X8620Y8840D1*
X8008D1*
X7574Y11225D2*
X8225D1*
X8485Y10965D1*
Y9732D1*
X10445D2*
X10580Y9867D1*
X12237D1*
Y9353D1*
X12569Y9021D1*
X13574D1*
X7624Y7180D2*
X7818D1*
X8018Y7380D1*
Y7920D1*
X8999Y6134D2*
X7813D1*
X7688Y6140D1*
X12680Y8130D2*
X13110D1*
X13390Y8410D1*
X13574D1*
Y8391D1*
X7813Y6134D2*
X7688Y6009D1*
Y6140D1*
X9640Y7668D2*
X10171D1*
X10660Y7180D1*
X10725Y7245D1*
Y7605D1*
X11570D1*
Y7450D1*
X12300Y6720D1*
X11570Y9180D2*
X10643D1*
X10050D1*
Y10158D1*
X9560D1*
X11570Y9180D2*
X11950D1*
X12280Y8850D1*
X15450Y6630D2*
Y6252D1*
X15424Y6226D1*
X15739D2*
Y7051D1*
X15680Y7110D1*
X15770Y8850D2*
X15660D1*
X15100Y8290D1*
Y7970D1*
X15110Y7960D1*
Y7810D1*
X15810Y7110D1*
X15680D1*
X7270Y7920D2*
X6659D1*
Y8400D1*
X5850D1*
X7260Y8840D2*
X6722D1*
X6597Y8715D1*
X5850D1*
X10140Y4890D2*
X11265Y6015D1*
X12582D1*
X12957Y6390D1*
Y6816D1*
X13574D1*
X19535Y7061D2*
X18691D1*
X13574Y6816D2*
Y6210D1*
X13630D1*
X20275Y8640D2*
X21335D1*
Y7564D1*
X21595Y7304D1*
X24279D1*
X24539Y7564D1*
Y8531D1*
X23950Y9120D1*
X14100Y7282D2*
X13965Y7147D1*
Y7131D1*
X13574D1*
X8140Y4890D2*
X8735Y5485D1*
X9340D1*
X10130Y6275D1*
X12435D1*
X12750Y6590D1*
Y6880D1*
X13316Y7446D1*
X13574D1*
X24798Y11370D2*
X25550D1*
X22950Y8120D2*
X21870D1*
X21610Y8380D1*
Y8756D1*
X21350Y9016D1*
X21112D1*
X20227Y9900D1*
X19580D1*
X14479Y6226D2*
Y6059D1*
X14090Y5670D1*
X13760Y5450D1*
X12700D1*
X12140Y4890D1*
X15109Y6226D2*
Y6939D1*
X15189Y7019D1*
Y7357D1*
X14755Y7791D1*
Y8446D1*
X14495Y8706D1*
X14479D1*
Y10556D1*
X16999D2*
Y8869D1*
X16660Y8531D1*
X16400Y8271D1*
Y7076D1*
X16660Y6816D1*
X17904D1*
X14755Y8446D2*
X14776D1*
X15510Y9180D1*
X16090D1*
X16400Y8870D1*
Y8531D1*
X16660D1*
X14794Y6226D2*
Y7179D1*
X14695D1*
X14495Y7379D1*
Y7546D1*
X13965Y8076D1*
Y9651D1*
Y10249D1*
X14164D1*
Y10556D1*
X13965Y8076D2*
X13574D1*
X17904Y7131D2*
X16899D1*
Y8136D1*
X13965Y9651D2*
X13574D1*
X16899Y8136D2*
X17314Y8551D1*
Y10556D1*
X21957Y6461D2*
X22860D1*
X21957Y10515D2*
Y9725D1*
X14164Y6226D2*
X14140D1*
Y6140D1*
X13755Y5755D1*
X12005D1*
X11140Y4890D1*
X15510Y8160D2*
X16054Y7616D1*
Y6226D1*
X14535Y5620D2*
X16369D1*
Y6226D1*
X18691Y6424D2*
Y5745D1*
X18416Y5470D1*
X16684D1*
Y6226D1*
X16999D2*
Y5851D1*
X17050Y5800D1*
X17732Y6029D2*
Y6223D1*
X17532Y6423D1*
X17314D1*
Y6226D1*
X18296Y5995D2*
Y7446D1*
X17904D1*
X17294Y7542D2*
Y7561D1*
X17494Y7761D1*
X17904D1*
X20140Y7456D2*
X19176D1*
X18556Y8076D1*
X17904D1*
Y8391D2*
X18816D1*
X19356Y7850D1*
X20545D1*
Y6080D1*
X21140Y5485D1*
Y4890D1*
X20940Y8245D2*
X19850D1*
X19390Y8706D1*
X17904D1*
X19880Y9151D2*
X19750Y9021D1*
X17904D1*
X18691Y9416D2*
X18611Y9336D1*
X17904D1*
X18090Y10384D2*
X18296Y10178D1*
Y9651D1*
X17904D1*
X18691Y9946D2*
Y10519D1*
X18431Y10779D1*
X17857D1*
X17597Y10519D1*
Y9966D1*
X17904D1*
X16684Y10556D2*
Y10948D1*
X16424Y11208D1*
X16090D1*
Y11890D1*
X16369Y9440D2*
Y10556D1*
X15504Y9835D2*
X16054D1*
Y10556D1*
X15739D2*
Y10841D1*
X15220Y11360D1*
X13620D1*
X13090Y11890D1*
X12090D2*
X12820Y11160D1*
X14940D1*
X15390Y10870D1*
X15424Y10556D1*
X15077Y9295D2*
Y10230D1*
X15109D1*
Y10556D1*
X14794D2*
Y10756D1*
X14602Y10948D1*
X10792D1*
X9850Y11890D1*
X10090D1*
X13574Y9966D2*
X13017D1*
Y10397D1*
X12757Y10657D1*
X10323D1*
X9090Y11890D1*
X10090Y8427D2*
Y8290D1*
X12237D1*
Y8021D1*
X12497Y7761D1*
X13574D1*
X22140Y4890D2*
Y5650D1*
X22400Y5910D1*
X22860D1*
X7100Y10600D2*
X6399D1*
Y9030D1*
X5850D1*
X23950Y10120D2*
Y12225D1*
X23690Y12485D1*
X7190D1*
X7100Y12395D1*
Y10600D1*
X23608Y5910D2*
X24539D1*
X24798Y6170D1*
Y9272D1*
X23950Y10120D1*
X22860Y5910D2*
Y5597D1*
X23608D1*
Y5910D1*
D26*
X17050Y5800D3*
X12280Y8850D3*
X12300Y6720D3*
X15450Y6630D3*
X15680Y7110D3*
X15770Y8850D3*
X10820Y10262D3*
X8880D3*
X10445Y9732D3*
X8485D3*
X7574Y11225D3*
X7624Y7180D3*
X8999Y6134D3*
X12680Y8130D3*
X10643Y9180D3*
X10660Y7180D3*
X22560Y10910D3*
X7229Y9465D3*
X9560Y8254D3*
X23234Y6909D3*
X24539Y10580D3*
X8604Y6664D3*
X13630Y6210D3*
X18691Y7061D3*
X19535D3*
X14100Y7282D3*
X20275Y8640D3*
X25550Y11370D3*
X24798D3*
X14794Y7179D3*
X16899Y8136D3*
X21957Y6461D3*
Y9725D3*
Y10515D3*
X15510Y8160D3*
X14535Y5620D3*
X18691Y6424D3*
X17732Y6029D3*
X18296Y5995D3*
X17294Y7542D3*
X20140Y7456D3*
X20940Y8245D3*
X19880Y9151D3*
X18691Y9416D3*
X18090Y10384D3*
X18691Y9946D3*
X16369Y9440D3*
X15504Y9835D3*
X15077Y9295D3*
X10090Y8427D3*
X4300Y12296D2*
D14*
X6744D1*
X24298D2*
X25600D1*
X4300Y12048D2*
X6744D1*
X22759D2*
X23596D1*
X24306D2*
X25600D1*
X4300Y11799D2*
X6744D1*
X22775D2*
X23596D1*
X24306D2*
X24596D1*
X25001D2*
X25385D1*
X4300Y11550D2*
X6744D1*
X22685D2*
X23596D1*
X4300Y11302D2*
X6744D1*
X8642D2*
X8756D1*
X17423D2*
X17756D1*
X18423D2*
X18756D1*
X19423D2*
X19756D1*
X20423D2*
X20756D1*
X21423D2*
X21756D1*
X22423D2*
X23596D1*
X4300Y11053D2*
X6553D1*
X8829D2*
X9436D1*
X17021D2*
X17646D1*
X18642D2*
X23596D1*
X24306D2*
X24435D1*
X4300Y10804D2*
X6115D1*
X7794D2*
X8131D1*
X8841D2*
X9686D1*
X18896D2*
X21568D1*
X22345D2*
X23596D1*
X24306D2*
X25600D1*
X5786Y10555D2*
X6045D1*
X7646D2*
X8131D1*
X13329D2*
X13787D1*
X20146D2*
X21471D1*
X24470D2*
X25600D1*
X5786Y10307D2*
X6045D1*
X7646D2*
X8131D1*
X20146D2*
X21518D1*
X24607D2*
X25600D1*
X5786Y10058D2*
X6045D1*
X7646D2*
X8127D1*
X20560D2*
X21604D1*
X24630D2*
X25600D1*
X5786Y9809D2*
X6045D1*
X6755D2*
X8002D1*
X20810D2*
X21475D1*
X24751D2*
X25600D1*
X5786Y9561D2*
X6045D1*
X6755D2*
X8029D1*
X9236D2*
X9697D1*
X21060D2*
X21498D1*
X25001D2*
X25600D1*
X9236Y9312D2*
X9697D1*
X21521D2*
X21721D1*
X22196D2*
X22293D1*
X25150D2*
X25600D1*
X4300Y9063D2*
X5205D1*
X9232D2*
X9717D1*
X21794D2*
X22268D1*
X25154D2*
X25600D1*
X4300Y8815D2*
X5205D1*
X9087D2*
X9807D1*
X21958D2*
X22342D1*
X25154D2*
X25600D1*
X4300Y8566D2*
X5205D1*
X8829D2*
X9623D1*
X21966D2*
X22439D1*
X23458D2*
X23567D1*
X25154D2*
X25600D1*
X4300Y8317D2*
X5205D1*
X8564D2*
X9611D1*
X23603D2*
X24186D1*
X25154D2*
X25600D1*
X4300Y8069D2*
X5205D1*
X8564D2*
X9057D1*
X23630D2*
X24186D1*
X25154D2*
X25600D1*
X4300Y7820D2*
X5205D1*
X8564D2*
X9057D1*
X23560D2*
X24186D1*
X25154D2*
X25600D1*
X4300Y7571D2*
X6725D1*
X8564D2*
X9057D1*
X20900D2*
X20979D1*
X25154D2*
X25600D1*
X5786Y7323D2*
X7158D1*
X8368D2*
X9057D1*
X12333D2*
X12701D1*
X20900D2*
X21084D1*
X25154D2*
X25600D1*
X5786Y7074D2*
X7146D1*
X8204D2*
X10182D1*
X20900D2*
X21334D1*
X25154D2*
X25600D1*
X5786Y6825D2*
X7299D1*
X7950D2*
X10334D1*
X10986D2*
X11705D1*
X14208D2*
X14439D1*
X22271D2*
X22471D1*
X23997D2*
X24443D1*
X25154D2*
X25600D1*
X5786Y6576D2*
X7143D1*
X8236D2*
X8830D1*
X9165D2*
X9971D1*
X23997D2*
X24443D1*
X25154D2*
X25600D1*
X5786Y6328D2*
X7143D1*
X9446D2*
X9693D1*
X23997D2*
X24443D1*
X25154D2*
X25600D1*
X5786Y6079D2*
X7143D1*
X25142D2*
X25600D1*
X4300Y5830D2*
X7143D1*
X10177D2*
X10588D1*
X20146D2*
X20303D1*
X24950D2*
X25600D1*
X4300Y5582D2*
X7143D1*
X8236D2*
X8342D1*
X9927D2*
X10342D1*
X19001D2*
X20553D1*
X21482D2*
X21787D1*
X24595D2*
X25600D1*
X4300Y5333D2*
X7619D1*
X23829D2*
X25600D1*
X4300Y5084D2*
X7479D1*
X22802D2*
X25600D1*
X4300Y4836D2*
X7451D1*
X22829D2*
X25600D1*
X4300Y4587D2*
X7521D1*
X22755D2*
X25600D1*
X4300Y4338D2*
X7744D1*
X22536D2*
X25600D1*
X9082Y10679D2*
X9832D1*
X9264Y11249D1*
X9135Y11226D1*
X9010Y11230D1*
X8888Y11256D1*
X8773Y11305D1*
X8669Y11375D1*
X8589Y11454D1*
X8526Y11392D1*
X8718Y11199D1*
X8788Y11096D1*
X8815Y10965D1*
Y10719D1*
X8938Y10723D1*
X9082Y10677D1*
X9718Y9637D2*
X9210D1*
Y9100D1*
X9186Y8978D1*
X9113Y8867D1*
X8853Y8607D1*
X8750Y8537D1*
X8620Y8510D1*
X8530D1*
X8539Y8480D1*
Y7360D1*
X8348D1*
X8334Y7284D1*
X8276Y7174D1*
X7946Y6844D1*
X7845Y6771D1*
X7728Y6727D1*
X7604Y6715D1*
X7482Y6737D1*
X7369Y6791D1*
X7275Y6872D1*
X7206Y6976D1*
X7167Y7094D1*
X7161Y7219D1*
X7197Y7358D1*
X6749Y7360D1*
Y7590D1*
X6659D1*
X6537Y7613D1*
X6430Y7683D1*
X6443Y7671D1*
X6344Y7722D1*
X5231D1*
X5235Y8449D1*
X5231Y8852D1*
X5235Y9078D1*
X5231Y9167D1*
Y9280D1*
X4272Y9277D1*
X4275Y7525D1*
X5761Y7523D1*
Y6009D1*
X4272D1*
X4275Y4420D1*
Y4285D1*
X7865D1*
X7719Y4375D1*
X7631Y4463D1*
X7560Y4565D1*
X7509Y4680D1*
X7481Y4801D1*
X7476Y4926D1*
X7494Y5049D1*
X7535Y5167D1*
X7598Y5275D1*
X7679Y5370D1*
X7777Y5447D1*
X7888Y5505D1*
X8007Y5542D1*
X8131Y5555D1*
X8256Y5545D1*
X8312Y5529D1*
X8502Y5718D1*
X8624Y5804D1*
X8206D1*
X8209Y5580D1*
X7167D1*
Y6700D1*
X8209D1*
Y6462D1*
X8669Y6464D1*
X8813Y6560D1*
X8933Y6594D1*
X9057Y6595D1*
X9178Y6563D1*
X9285Y6500D1*
X9372Y6411D1*
X9432Y6302D1*
X9461Y6181D1*
X9455Y6069D1*
X9896Y6508D1*
X9999Y6578D1*
X10130Y6605D1*
X11852D1*
X11839Y6716D1*
X11705Y6849D1*
X10981Y6844D1*
X10881Y6771D1*
X10764Y6727D1*
X10640Y6715D1*
X10517Y6737D1*
X10405Y6791D1*
X10311Y6872D1*
X10242Y6976D1*
X10203Y7094D1*
X10200Y7145D1*
X9080Y7147D1*
Y8189D1*
X9693D1*
X9672Y8224D1*
X9633Y8342D1*
X9627Y8466D1*
X9654Y8588D1*
X9712Y8698D1*
X9797Y8789D1*
X9904Y8853D1*
X9945Y8865D1*
X9823Y8940D1*
X9751Y9041D1*
X9720Y9180D1*
Y9637D1*
X6704Y11160D2*
X6770D1*
Y12395D1*
X6805Y12544D1*
X4275Y12545D1*
Y10791D1*
X5761D1*
Y9397D1*
X6071Y9393D1*
X6069Y10600D1*
X6093Y10722D1*
X6160Y10827D1*
X6260Y10899D1*
X6399Y10930D1*
X6583D1*
X6579Y11160D1*
X6704D1*
X13350Y10319D2*
X13647D1*
X13652Y10354D1*
X13713Y10462D1*
X13814Y10542D1*
X13811Y10622D1*
X13262Y10618D1*
X13308Y10552D1*
X13345Y10433D1*
X13347Y10323D1*
X13346Y10402D1*
X14035Y6811D2*
X14031Y6778D1*
X14035Y6689D1*
X14468Y6688D1*
X14464Y6855D1*
X14404Y6933D1*
X14321Y6873D1*
X14205Y6829D1*
X14069Y6820D1*
X14125Y6688D1*
X14465D1*
X12307Y7491D2*
Y7187D1*
X12479Y7149D1*
X12523Y7124D1*
X12834Y7431D1*
X12497D1*
X12372Y7457D1*
X12398Y7447D1*
X24119Y8484D2*
X23985Y8462D1*
X23860Y8467D1*
X23739Y8496D1*
X23625Y8547D1*
X23522Y8619D1*
X23449Y8695D1*
X23378Y8623D1*
X23497Y8487D1*
X23557Y8377D1*
X23594Y8258D1*
X23609Y8120D1*
X23597Y7996D1*
X23562Y7876D1*
X23505Y7765D1*
X23428Y7667D1*
X23390Y7633D1*
X24146Y7634D1*
X24209Y7701D1*
Y8396D1*
X24120Y8483D1*
X24597Y9996D2*
X24585Y9955D1*
X25032Y9505D1*
X25101Y9402D1*
X25128Y9272D1*
Y6170D1*
X25105Y6048D1*
X25032Y5937D1*
X24772Y5677D1*
X24669Y5607D1*
X24539Y5580D1*
X23972D1*
X23971Y5527D1*
X23928D1*
X23921Y5492D1*
X23860Y5384D1*
X23763Y5306D1*
X23645Y5269D1*
X22860Y5267D1*
X22738Y5290D1*
X22633Y5357D1*
X22560Y5462D1*
X22588Y5382D1*
X22672Y5289D1*
X22737Y5183D1*
X22781Y5066D1*
X22805Y4890D1*
X22793Y4766D1*
X22759Y4646D1*
X22702Y4535D1*
X22626Y4436D1*
X22532Y4353D1*
X22414Y4285D1*
X25625D1*
Y10906D1*
X25569Y10905D1*
X25446Y10927D1*
X25333Y10981D1*
X25266Y11039D1*
X25120Y11034D1*
X25020Y10961D1*
X24903Y10917D1*
X24779Y10905D1*
X24656Y10927D1*
X24544Y10981D1*
X24450Y11062D1*
X24380Y11166D1*
X24341Y11284D1*
X24335Y11409D1*
X24362Y11530D1*
X24420Y11640D1*
X24506Y11731D1*
X24613Y11796D1*
X24732Y11830D1*
X24857Y11831D1*
X24977Y11799D1*
X25085Y11736D1*
X25120Y11700D1*
X25263D1*
X25296Y11731D1*
X25402Y11796D1*
X25522Y11830D1*
X25627Y11831D1*
X25625Y12545D1*
X24100Y12541D1*
X24183Y12458D1*
X24253Y12356D1*
X24280Y12225D1*
Y10690D1*
X24418Y10583D1*
X24497Y10487D1*
X24557Y10377D1*
X24594Y10258D1*
X24609Y10120D1*
X24597Y9996D1*
X22509Y7633D2*
X22436Y7709D1*
X22382Y7790D1*
X21870D1*
X21744Y7816D1*
X21770Y7806D1*
X21665Y7765D1*
Y7699D1*
X21731Y7634D1*
X22505D1*
X22384Y8451D2*
X22427Y8521D1*
X22520Y8622D1*
X22436Y8709D1*
X22367Y8813D1*
X22320Y8928D1*
X22295Y9051D1*
X22294Y9176D1*
X22316Y9298D1*
X22361Y9415D1*
X22427Y9521D1*
X22520Y9622D1*
X22421Y9731D1*
X22405Y9602D1*
X22357Y9487D1*
X22279Y9389D1*
X22178Y9316D1*
X22062Y9272D1*
X21938Y9261D1*
X21815Y9282D1*
X21702Y9336D1*
X21608Y9418D1*
X21539Y9521D1*
X21500Y9640D1*
X21494Y9764D1*
X21521Y9886D1*
X21579Y9996D1*
X21630Y10050D1*
X21627Y10190D1*
X21539Y10311D1*
X21500Y10430D1*
X21494Y10554D1*
X21521Y10676D1*
X21579Y10786D1*
X21665Y10876D1*
X21771Y10941D1*
X21891Y10975D1*
X22016Y10976D1*
X22136Y10944D1*
X22244Y10881D1*
X22331Y10792D1*
X22391Y10683D1*
X22420Y10561D1*
X22422Y10511D1*
X22512Y10612D1*
X22613Y10686D1*
X22726Y10739D1*
X22846Y10770D1*
X22971Y10778D1*
X23095Y10763D1*
X23213Y10724D1*
X23323Y10663D1*
X23418Y10583D1*
X23451Y10546D1*
X23512Y10612D1*
X23623Y10691D1*
X23620Y11370D1*
Y12085D1*
X23553Y12155D1*
X22697Y12157D1*
X22731Y12066D1*
X22755Y11890D1*
X22743Y11766D1*
X22709Y11646D1*
X22652Y11535D1*
X22576Y11436D1*
X22482Y11353D1*
X22375Y11289D1*
X22258Y11247D1*
X22135Y11226D1*
X22010Y11230D1*
X21888Y11256D1*
X21773Y11305D1*
X21669Y11375D1*
X21589Y11454D1*
X21482Y11353D1*
X21375Y11289D1*
X21258Y11247D1*
X21135Y11226D1*
X21010Y11230D1*
X20888Y11256D1*
X20773Y11305D1*
X20669Y11375D1*
X20589Y11454D1*
X20482Y11353D1*
X20375Y11289D1*
X20258Y11247D1*
X20135Y11226D1*
X20010Y11230D1*
X19888Y11256D1*
X19773Y11305D1*
X19669Y11375D1*
X19589Y11454D1*
X19482Y11353D1*
X19375Y11289D1*
X19258Y11247D1*
X19135Y11226D1*
X19010Y11230D1*
X18888Y11256D1*
X18773Y11305D1*
X18669Y11375D1*
X18589Y11454D1*
X18482Y11353D1*
X18375Y11289D1*
X18258Y11247D1*
X18135Y11226D1*
X18010Y11230D1*
X17888Y11256D1*
X17773Y11305D1*
X17669Y11375D1*
X17589Y11454D1*
X17482Y11353D1*
X17375Y11289D1*
X17258Y11247D1*
X17135Y11226D1*
X17010Y11230D1*
X16888Y11256D1*
X16805Y11292D1*
X16917Y11182D1*
X17003Y11018D1*
X17629D1*
X17702Y11070D1*
X17820Y11107D1*
X18431Y11109D1*
X18553Y11086D1*
X18664Y11013D1*
X18924Y10753D1*
X18994Y10650D1*
X19021Y10519D1*
Y10273D1*
X19039Y10347D1*
Y10578D1*
X20121D1*
Y10231D1*
X20227Y10230D1*
X20349Y10207D1*
X20461Y10133D1*
X21248Y9346D1*
X21350Y9345D1*
X21472Y9322D1*
X21583Y9249D1*
X21843Y8989D1*
X21913Y8886D1*
X21940Y8756D1*
Y8517D1*
X22006Y8450D1*
X22381D1*
X20121Y6992D2*
Y5639D1*
X19039D1*
Y6119D1*
X19021Y6049D1*
Y5745D1*
X18995Y5619D1*
X18946Y5536D1*
X19131Y5555D1*
X19256Y5545D1*
X19376Y5512D1*
X19488Y5457D1*
X19588Y5382D1*
X19638Y5327D1*
X19777Y5447D1*
X19888Y5505D1*
X20007Y5542D1*
X20131Y5555D1*
X20256Y5545D1*
X20376Y5512D1*
X20488Y5457D1*
X20588Y5382D1*
X20638Y5327D1*
X20737Y5416D1*
X20465Y5694D1*
X20312Y5846D1*
X20242Y5949D1*
X20215Y6080D1*
Y6998D1*
X20877Y6996D2*
X21473Y6998D1*
X21361Y7071D1*
X21102Y7331D1*
X21032Y7433D1*
X21005Y7564D1*
Y7787D1*
X20920Y7781D1*
X20878Y7788D1*
X20875Y6995D1*
X21810Y5639D2*
X21435D1*
X21470Y5485D1*
Y5465D1*
X21588Y5382D1*
X21638Y5327D1*
X21777Y5447D1*
X21808Y5464D1*
X21810Y5636D1*
X9737Y5416D2*
X9777Y5447D1*
X9888Y5505D1*
X10007Y5542D1*
X10131Y5555D1*
X10256Y5545D1*
X10312Y5529D1*
X10727Y5944D1*
X10267Y5945D1*
X9753Y5431D1*
X7898Y10893D2*
X7795Y10816D1*
X7678Y10772D1*
X7621Y10766D1*
Y10040D1*
X6726D1*
X6729Y9166D1*
X6739Y9400D1*
X7781Y9396D1*
X7862Y9400D1*
X8163D1*
X8136Y9425D1*
X8067Y9528D1*
X8028Y9647D1*
X8022Y9771D1*
X8049Y9893D1*
X8107Y10003D1*
X8158Y10057D1*
X8155Y10830D1*
X8088Y10895D1*
X7901D1*
X21895Y6921D2*
X22016Y6922D1*
X22136Y6890D1*
X22244Y6827D1*
X22279Y6791D1*
X22500D1*
X22529Y6974D1*
X21892D1*
X24154D2*
X22529D1*
X22622Y6844D1*
X23223D1*
X23220Y6078D1*
X23245D1*
Y6328D1*
X23223Y6293D1*
Y5930D1*
X23247Y5927D1*
X23249Y6293D1*
X23245Y6703D1*
Y6844D1*
X23971D1*
Y6239D1*
X24401Y6240D1*
X24468Y6307D1*
Y7033D1*
X24434Y7013D1*
X24315Y6976D1*
X24154Y6974D1*
D15*
X9560Y9410D3*
Y10158D3*
X9640Y6920D3*
Y7668D3*
D16*
X6940Y6140D3*
X7688D3*
X7100Y10600D3*
X7848D3*
X7260Y8840D3*
X8008D3*
X7270Y7920D3*
X8018D3*
D17*
X13574Y9966D3*
Y9651D3*
Y9336D3*
Y9021D3*
Y8706D3*
Y8391D3*
Y8076D3*
Y7761D3*
Y7446D3*
Y7131D3*
Y6816D3*
D18*
X14164Y6226D3*
X14479D3*
X14794D3*
X15109D3*
X15424D3*
X15739D3*
X16054D3*
X16369D3*
X16684D3*
X16999D3*
X17314D3*
D17*
X17904Y6816D3*
Y7131D3*
Y7446D3*
Y7761D3*
Y8076D3*
Y8391D3*
Y8706D3*
Y9021D3*
Y9336D3*
Y9651D3*
Y9966D3*
D18*
X17314Y10556D3*
X16999D3*
X16684D3*
X16369D3*
X16054D3*
X15739D3*
X15424D3*
X15109D3*
X14794D3*
X14479D3*
X14164D3*
D19*
X11570Y9180D3*
Y7605D3*
D20*
X23950Y8120D3*
Y9120D3*
Y10120D3*
X22950D3*
Y9120D3*
Y8120D3*
D21*
X22860Y5910D3*
X23234D3*
X23608D3*
Y6461D3*
X22860D3*
D22*
X5850Y9030D3*
Y8715D3*
Y8400D3*
Y8085D3*
Y7770D3*
D23*
X4846Y10034D3*
Y6766D3*
D24*
X19580Y9900D3*
X21352D3*
X19580Y6317D3*
X21352D3*
D25*
X23140Y4890D3*
X22140D3*
X21140D3*
X20140D3*
X19140D3*
X18140D3*
X17140D3*
X16140D3*
X15140D3*
X14140D3*
X13140D3*
X12140D3*
X11140D3*
X10140D3*
X9140D3*
X8140D3*
X23090Y11890D3*
X22090D3*
X21090D3*
X20090D3*
X19090D3*
X18090D3*
X17090D3*
X16090D3*
X15090D3*
X14090D3*
X13090D3*
X12090D3*
X11090D3*
X10090D3*
X9090D3*
X8090D3*
M02*
