G04 DipTrace 2.3.0.3*
%INTop.gbr*%
%MOIN*%
%ADD13C,0.015*%
%ADD14C,0.01*%
%ADD15C,0.025*%
%ADD16R,0.0591X0.0512*%
%ADD17R,0.0512X0.0591*%
%ADD18R,0.0157X0.0709*%
%ADD19C,0.0669*%
%ADD20R,0.0157X0.0551*%
%ADD21R,0.0728X0.0748*%
%ADD22R,0.0906X0.0748*%
%ADD23C,0.04*%
%FSLAX44Y44*%
G04*
G70*
G90*
G75*
G01*
%LNTop*%
%LPD*%
X8630Y6625D2*
D13*
X9403D1*
X9530Y6753D1*
X9440D1*
X5360Y8428D2*
Y9065D1*
X4200D1*
Y6993D1*
X4440Y6753D1*
X6957Y9763D2*
X6387D1*
X6190Y9565D1*
Y9039D1*
X6843Y8387D1*
X9103Y8367D2*
Y7090D1*
X9440Y6753D1*
X4440D2*
Y6815D1*
X4877Y7252D1*
X7155D1*
X7217Y7315D1*
X8353Y8377D2*
X7730Y7754D1*
Y7342D1*
X7729Y7315D1*
X7610Y8387D2*
X7473D1*
Y7815D1*
Y7315D1*
X6745Y7690D2*
X6752D1*
X6878Y7815D1*
X7473D1*
X7470Y9763D2*
Y10242D1*
X8410D1*
X8690Y9963D1*
Y9463D1*
X8353Y9125D1*
X9103D1*
Y9115D1*
X7724Y9763D2*
Y9196D1*
X7662Y9135D1*
X7610D1*
X6843D2*
X7610D1*
X5440Y4753D2*
X6440D1*
X6503D1*
X6815Y4440D1*
X7315D1*
X7473Y4598D1*
Y5032D1*
X5440Y5753D2*
X6440D1*
X7440D1*
X7729Y5463D1*
Y5032D1*
X5440Y6753D2*
X6440D1*
X6753D1*
X7065Y6440D1*
X7627D1*
X8002Y6815D1*
Y7378D1*
X7985Y7315D1*
X4600Y7690D2*
Y8416D1*
X4612Y8428D1*
X4440Y5753D2*
X4360D1*
X4860Y5253D1*
X7217D1*
Y5032D1*
X4440Y5753D2*
D14*
Y5815D1*
X4878Y6253D1*
X9000D1*
X9500Y5753D1*
X9440D1*
X4440Y4753D2*
D13*
Y4502D1*
X4752Y4190D1*
X7985D1*
X8877D1*
X9440Y4753D1*
X7985Y5032D2*
Y4190D1*
X5348Y7690D2*
X5997D1*
X7978Y9763D2*
X8300D1*
X6065Y8378D2*
X5997D1*
Y7690D1*
X7985Y5032D2*
X8569D1*
X8720Y5183D1*
Y5877D1*
X8630D1*
D23*
X8300Y9763D3*
X6065Y8378D3*
X4279Y11219D2*
D15*
X5311D1*
X4279Y10970D2*
X5311D1*
X4279Y10721D2*
X5311D1*
X4279Y10473D2*
X5311D1*
X4279Y10224D2*
X6909D1*
X8846D2*
X9601D1*
X4279Y9975D2*
X6909D1*
X8990D2*
X9601D1*
X4279Y9727D2*
X6909D1*
X8990D2*
X9601D1*
X4279Y9478D2*
X6319D1*
X4279Y9229D2*
X6319D1*
X4279Y8981D2*
X6319D1*
X5096Y8732D2*
X5851D1*
X5096Y8483D2*
X5651D1*
X6479D2*
X7089D1*
X8873D2*
X9601D1*
X5096Y8235D2*
X5663D1*
X6467D2*
X7089D1*
X8873D2*
X9601D1*
X8873Y7986D2*
X9601D1*
X8291Y7737D2*
X9601D1*
X8291Y7489D2*
X9601D1*
X8303Y7240D2*
X9601D1*
X4279Y6991D2*
X4933D1*
X6947D2*
X7167D1*
X8303D2*
X9601D1*
X4279Y6742D2*
X4878D1*
X7178D2*
X7515D1*
X8295D2*
X9601D1*
X4279Y6494D2*
X4780D1*
X9096D2*
X9601D1*
X8969Y9573D2*
X9600D1*
Y8657D1*
X8846D1*
X8850Y7960D1*
Y7919D1*
X8283Y7916D1*
X8236Y7869D1*
X8266Y7871D1*
Y7461D1*
X8279Y7378D1*
Y6815D1*
X8249Y6691D1*
X8198Y6619D1*
X8085Y6506D1*
X9000Y6505D1*
X9123Y6472D1*
X9178Y6431D1*
X9330Y6279D1*
X9411Y6288D1*
X9536Y6281D1*
X9629Y6252D1*
X9626Y8815D1*
X9625Y11468D1*
X4255Y11467D1*
X4254Y8924D1*
X5070Y8925D1*
Y8187D1*
X5715D1*
X5686Y8242D1*
X5663Y8365D1*
X5679Y8488D1*
X5731Y8601D1*
X5815Y8693D1*
X5924Y8754D1*
X6046Y8779D1*
X6169Y8766D1*
X6283Y8715D1*
X6376Y8632D1*
X6439Y8525D1*
X6467Y8378D1*
X6448Y8255D1*
X6414Y8188D1*
X6455Y8183D1*
X7111Y8187D1*
X7113Y8681D1*
X6840Y8677D1*
X6345D1*
Y9593D1*
X6935D1*
Y10240D1*
X7194Y10246D1*
X7202Y10310D1*
X6458Y10308D1*
X5335D1*
Y11460D1*
X6645Y11457D1*
X6583Y11460D1*
X7591Y11457D1*
X7845Y11460D1*
X8477Y11457D1*
X8914Y11461D1*
X9598D1*
Y10309D1*
X8735D1*
X8886Y10158D1*
X8952Y10049D1*
X8967Y9963D1*
Y9576D1*
X7191Y7193D2*
X6746D1*
X6853Y7095D1*
X6930Y6965D1*
X7178Y6719D1*
X7514Y6717D1*
X7556Y6760D1*
X7448Y6763D1*
X7504Y6759D1*
X7192D1*
Y7192D1*
X5058Y7196D2*
X4808Y7193D1*
X4257D1*
X4253Y6253D1*
X4288Y6267D1*
X4411Y6288D1*
X4547Y6277D1*
X4699Y6431D1*
X4809Y6494D1*
X4878Y6505D1*
X4967D1*
X4935Y6570D1*
X4907Y6692D1*
Y6816D1*
X4936Y6938D1*
X4993Y7049D1*
X5073Y7144D1*
X5139Y7193D1*
X4890Y7197D1*
D16*
X8630Y6625D3*
Y5877D3*
X9103Y9115D3*
Y8367D3*
X6843Y9135D3*
Y8387D3*
D17*
X5360Y8428D3*
X4612D3*
D16*
X8353Y9125D3*
Y8377D3*
X7610Y9135D3*
Y8387D3*
D17*
X6745Y7690D3*
X5997D3*
X4600D3*
X5348D3*
D18*
X7985Y7315D3*
X7729D3*
X7473D3*
X7217D3*
Y5032D3*
X7473D3*
X7729D3*
X7985D3*
D19*
X5440Y4753D3*
X4440D3*
X5440Y5753D3*
X4440D3*
X5440Y6753D3*
X4440D3*
X6440D3*
X9440D3*
X6440Y5753D3*
X9440D3*
X6440Y4753D3*
X9440D3*
D20*
X7470Y9763D3*
X7216D3*
X7978D3*
X6957D3*
X7724D3*
D21*
X7911Y10884D3*
D22*
X8944Y10885D3*
X5990Y10884D3*
D21*
X7025D3*
M02*
