G04 DipTrace 2.3.0.3*
%INTopSilk.gbr*%
%MOIN*%
%ADD10C,0.0098*%
%ADD12C,0.001*%
%ADD43C,0.0077*%
%ADD44C,0.0046*%
%FSLAX44Y44*%
G04*
G70*
G90*
G75*
G01*
%LNTopSilk*%
%LPD*%
X8374Y7039D2*
D10*
X8886D1*
X8847Y9489D2*
X9358D1*
X6587Y9509D2*
X7098D1*
X5773Y8683D2*
Y8172D1*
X8192Y6803D2*
X7011D1*
X8192Y5543D2*
X7011D1*
Y6803D2*
Y5543D1*
X8192Y6803D2*
Y6370D1*
Y5976D2*
Y5543D1*
Y6370D2*
G03X8192Y5976I0J-197D01*
G01*
X9400Y11730D2*
X5537D1*
X5570Y10393D2*
D12*
X5590D1*
X5546Y10383D2*
X5612D1*
X5720D2*
X5740D1*
X5860D2*
X5880D1*
X5528Y10373D2*
X5630D1*
X5720D2*
X5740D1*
X5860D2*
X5880D1*
X5514Y10363D2*
X5540D1*
X5608D2*
X5642D1*
X5720D2*
X5740D1*
X5860D2*
X5880D1*
X5503Y10353D2*
X5530D1*
X5622D2*
X5650D1*
X5720D2*
X5740D1*
X5860D2*
X5880D1*
X5496Y10343D2*
X5520D1*
X5633D2*
X5657D1*
X5720D2*
X5740D1*
X5860D2*
X5880D1*
X5491Y10333D2*
X5512D1*
X5640D2*
X5662D1*
X5720D2*
X5740D1*
X5860D2*
X5880D1*
X5487Y10323D2*
X5506D1*
X5645D2*
X5666D1*
X5720D2*
X5740D1*
X5860D2*
X5880D1*
X5484Y10313D2*
X5503D1*
X5649D2*
X5668D1*
X5720D2*
X5740D1*
X5860D2*
X5880D1*
X5482Y10303D2*
X5501D1*
X5653D2*
X5669D1*
X5720D2*
X5880D1*
X5481Y10293D2*
X5500D1*
X5655D2*
X5670D1*
X5720D2*
X5880D1*
X5480Y10283D2*
X5500D1*
X5654D2*
X5670D1*
X5720D2*
X5880D1*
X5481Y10273D2*
X5500D1*
X5653D2*
X5670D1*
X5720D2*
X5740D1*
X5860D2*
X5880D1*
X5482Y10263D2*
X5502D1*
X5651D2*
X5670D1*
X5720D2*
X5740D1*
X5860D2*
X5880D1*
X5484Y10253D2*
X5504D1*
X5649D2*
X5668D1*
X5720D2*
X5740D1*
X5860D2*
X5880D1*
X5488Y10243D2*
X5509D1*
X5645D2*
X5666D1*
X5720D2*
X5740D1*
X5860D2*
X5880D1*
X5493Y10233D2*
X5515D1*
X5637D2*
X5661D1*
X5720D2*
X5740D1*
X5860D2*
X5880D1*
X5500Y10223D2*
X5537D1*
X5614D2*
X5655D1*
X5720D2*
X5740D1*
X5860D2*
X5880D1*
X5509Y10213D2*
X5574D1*
X5577D2*
X5646D1*
X5720D2*
X5740D1*
X5860D2*
X5880D1*
X5523Y10203D2*
X5633D1*
X5720D2*
X5740D1*
X5860D2*
X5880D1*
X5540Y10193D2*
X5617D1*
X5720D2*
X5740D1*
X5860D2*
X5880D1*
X5560Y10183D2*
X5600D1*
X5530Y10153D2*
X5540D1*
X5525Y10143D2*
X5535D1*
X5521Y10133D2*
X5531D1*
X5517Y10123D2*
X5527D1*
X5513Y10113D2*
X5523D1*
X5510Y10103D2*
X5520D1*
X5507Y10093D2*
X5517D1*
X5503Y10083D2*
X5513D1*
X5500Y10073D2*
X5510D1*
X5497Y10063D2*
X5507D1*
X5493Y10053D2*
X5503D1*
X5490Y10043D2*
X5500D1*
X5487Y10033D2*
X5497D1*
X5483Y10023D2*
X5493D1*
X5480Y10013D2*
X5490D1*
X5477Y10003D2*
X5487D1*
X5473Y9993D2*
X5483D1*
X5470Y9983D2*
X5480D1*
X5467Y9973D2*
X5477D1*
X5463Y9963D2*
X5473D1*
X5460Y9953D2*
X5470D1*
X4560Y9943D2*
D3*
X5457D2*
X5467D1*
X4540Y9933D2*
X4580D1*
X5453D2*
X5463D1*
X4520Y9923D2*
X4550D1*
X4568D2*
X4598D1*
X5450D2*
X5460D1*
X4502Y9913D2*
X4532D1*
X4586D2*
X4616D1*
X5447D2*
X5457D1*
X4484Y9903D2*
X4514D1*
X4603D2*
X4633D1*
X5443D2*
X5453D1*
X4467Y9893D2*
X4497D1*
X4622D2*
X4652D1*
X5440D2*
X5450D1*
X4448Y9883D2*
X4478D1*
X4641D2*
X4670D1*
X5436D2*
X5447D1*
X4429Y9873D2*
X4459D1*
X4660D2*
X4689D1*
X5431D2*
X5444D1*
X4410Y9863D2*
X4440D1*
X4678D2*
X4706D1*
X5423D2*
X5442D1*
X4392Y9853D2*
X4422D1*
X4560D2*
X4580D1*
X4696D2*
X4723D1*
X5406D2*
X5442D1*
X4374Y9843D2*
X4404D1*
X4572D2*
X4597D1*
X4713D2*
X4741D1*
X5383D2*
X5446D1*
X4357Y9833D2*
X4387D1*
X4586D2*
X4614D1*
X4730D2*
X4759D1*
X5356D2*
X5410D1*
X5430D2*
X5451D1*
X4339Y9823D2*
X4369D1*
X4603D2*
X4632D1*
X4747D2*
X4776D1*
X5325D2*
X5380D1*
X5440D2*
X5457D1*
X4321Y9813D2*
X4351D1*
X4621D2*
X4650D1*
X4764D2*
X4793D1*
X5293D2*
X5348D1*
X5448D2*
X5464D1*
X4304Y9803D2*
X4334D1*
X4639D2*
X4669D1*
X4782D2*
X4812D1*
X5261D2*
X5316D1*
X5456D2*
X5471D1*
X4287Y9793D2*
X4317D1*
X4656D2*
X4686D1*
X4801D2*
X4830D1*
X5229D2*
X5283D1*
X5463D2*
X5479D1*
X4268Y9783D2*
X4299D1*
X4673D2*
X4703D1*
X4820D2*
X4849D1*
X5196D2*
X5251D1*
X5471D2*
X5486D1*
X4250Y9773D2*
X4281D1*
X4692D2*
X4722D1*
X4838D2*
X4866D1*
X5163D2*
X5219D1*
X5479D2*
X5493D1*
X4231Y9763D2*
X4264D1*
X4711D2*
X4741D1*
X4856D2*
X4883D1*
X5131D2*
X5186D1*
X5400D2*
X5410D1*
X5486D2*
X5501D1*
X4214Y9753D2*
X4247D1*
X4730D2*
X4760D1*
X4873D2*
X4901D1*
X5099D2*
X5153D1*
X5407D2*
X5420D1*
X5493D2*
X5509D1*
X4197Y9743D2*
X4229D1*
X4748D2*
X4778D1*
X4891D2*
X4919D1*
X5068D2*
X5122D1*
X5414D2*
X5428D1*
X5501D2*
X5516D1*
X4179Y9733D2*
X4211D1*
X4766D2*
X4796D1*
X4909D2*
X4935D1*
X5038D2*
X5091D1*
X5421D2*
X5436D1*
X5509D2*
X5523D1*
X4163Y9723D2*
X4194D1*
X4783D2*
X4813D1*
X4926D2*
X4950D1*
X5010D2*
X5061D1*
X5429D2*
X5443D1*
X5516D2*
X5531D1*
X4150Y9713D2*
X4179D1*
X4801D2*
X4831D1*
X4941D2*
X5033D1*
X5436D2*
X5451D1*
X5523D2*
X5539D1*
X4145Y9703D2*
X4167D1*
X4819D2*
X4849D1*
X4953D2*
X5010D1*
X5443D2*
X5459D1*
X5531D2*
X5546D1*
X4142Y9693D2*
X4157D1*
X4836D2*
X4866D1*
X4963D2*
X4993D1*
X5451D2*
X5466D1*
X5539D2*
X5553D1*
X4141Y9683D2*
X4153D1*
X4853D2*
X4883D1*
X4967D2*
X4985D1*
X5459D2*
X5473D1*
X5546D2*
X5562D1*
X4140Y9673D2*
X4151D1*
X4871D2*
X4900D1*
X4969D2*
X4982D1*
X5466D2*
X5481D1*
X5553D2*
X5570D1*
X4140Y9663D2*
X4151D1*
X4210D2*
X4220D1*
X4890D2*
D3*
X4969D2*
X4981D1*
X5473D2*
X5489D1*
X5562D2*
X5579D1*
X4140Y9653D2*
X4150D1*
X4210D2*
X4220D1*
X4970D2*
X4980D1*
X5481D2*
X5496D1*
X5570D2*
X5586D1*
X4140Y9643D2*
X4150D1*
X4210D2*
X4220D1*
X4970D2*
X4980D1*
X5489D2*
X5503D1*
X5579D2*
X5593D1*
X4140Y9633D2*
X4150D1*
X4210D2*
X4220D1*
X4970D2*
X4980D1*
X5496D2*
X5511D1*
X5586D2*
X5600D1*
X4140Y9623D2*
X4150D1*
X4210D2*
X4220D1*
X4970D2*
X4980D1*
X5503D2*
X5519D1*
X5593D2*
X5607D1*
X4140Y9613D2*
X4150D1*
X4210D2*
X4220D1*
X4970D2*
X4980D1*
X5511D2*
X5526D1*
X5601D2*
X5614D1*
X4140Y9603D2*
X4150D1*
X4210D2*
X4220D1*
X4970D2*
X4980D1*
X5519D2*
X5533D1*
X5609D2*
X5622D1*
X4140Y9593D2*
X4150D1*
X4210D2*
X4220D1*
X4970D2*
X4980D1*
X5526D2*
X5541D1*
X5616D2*
X5630D1*
X4140Y9583D2*
X4150D1*
X4210D2*
X4220D1*
X4970D2*
X4980D1*
X5533D2*
X5549D1*
X5623D2*
X5639D1*
X4140Y9573D2*
X4150D1*
X4210D2*
X4220D1*
X4970D2*
X4980D1*
X5541D2*
X5556D1*
X5630D2*
X5646D1*
X4140Y9563D2*
X4150D1*
X4210D2*
X4220D1*
X4970D2*
X4980D1*
X5549D2*
X5563D1*
X5637D2*
X5653D1*
X4140Y9553D2*
X4150D1*
X4210D2*
X4220D1*
X4970D2*
X4980D1*
X5556D2*
X5571D1*
X5644D2*
X5661D1*
X4140Y9543D2*
X4150D1*
X4210D2*
X4220D1*
X4970D2*
X4980D1*
X5563D2*
X5579D1*
X5651D2*
X5669D1*
X4140Y9533D2*
X4150D1*
X4210D2*
X4220D1*
X4970D2*
X4980D1*
X5571D2*
X5586D1*
X5659D2*
X5676D1*
X4140Y9523D2*
X4150D1*
X4210D2*
X4220D1*
X4970D2*
X4980D1*
X5579D2*
X5593D1*
X5666D2*
X5683D1*
X4140Y9513D2*
X4150D1*
X4210D2*
X4220D1*
X4970D2*
X4980D1*
X5586D2*
X5601D1*
X5673D2*
X5691D1*
X4140Y9503D2*
X4150D1*
X4210D2*
X4220D1*
X4970D2*
X4980D1*
X5593D2*
X5609D1*
X5681D2*
X5699D1*
X4140Y9493D2*
X4150D1*
X4210D2*
X4220D1*
X4970D2*
X4980D1*
X5602D2*
X5614D1*
X5689D2*
X5706D1*
X4140Y9483D2*
X4150D1*
X4210D2*
X4220D1*
X4970D2*
X4980D1*
X5611D2*
X5618D1*
X5695D2*
X5713D1*
X4140Y9473D2*
X4150D1*
X4210D2*
X4220D1*
X4970D2*
X4980D1*
X5620D2*
D3*
X5697D2*
X5720D1*
X4140Y9463D2*
X4150D1*
X4210D2*
X4220D1*
X4970D2*
X4980D1*
X5693D2*
X5712D1*
X4140Y9453D2*
X4150D1*
X4210D2*
X4220D1*
X4970D2*
X4980D1*
X5687D2*
X5704D1*
X4140Y9443D2*
X4150D1*
X4210D2*
X4220D1*
X4970D2*
X4980D1*
X5680D2*
X5697D1*
X4140Y9433D2*
X4150D1*
X4210D2*
X4220D1*
X4970D2*
X4980D1*
X5674D2*
X5690D1*
X4140Y9423D2*
X4150D1*
X4210D2*
X4220D1*
X4970D2*
X4980D1*
X5666D2*
X5683D1*
X4140Y9413D2*
X4150D1*
X4210D2*
X4220D1*
X4970D2*
X4980D1*
X5659D2*
X5676D1*
X4140Y9403D2*
X4150D1*
X4210D2*
X4220D1*
X4970D2*
X4980D1*
X5651D2*
X5668D1*
X4140Y9393D2*
X4150D1*
X4210D2*
X4220D1*
X4970D2*
X4980D1*
X5644D2*
X5659D1*
X4140Y9383D2*
X4150D1*
X4210D2*
X4220D1*
X4970D2*
X4980D1*
X5637D2*
X5650D1*
X4140Y9373D2*
X4150D1*
X4210D2*
X4220D1*
X4970D2*
X4980D1*
X5628D2*
X5642D1*
X4140Y9363D2*
X4150D1*
X4210D2*
X4220D1*
X4970D2*
X4980D1*
X5620D2*
X5634D1*
X4140Y9353D2*
X4150D1*
X4210D2*
X4220D1*
X4970D2*
X4980D1*
X5611D2*
X5627D1*
X4140Y9343D2*
X4150D1*
X4210D2*
X4220D1*
X4970D2*
X4980D1*
X5604D2*
X5620D1*
X4140Y9333D2*
X4150D1*
X4210D2*
X4220D1*
X4970D2*
X4980D1*
X5597D2*
X5613D1*
X4140Y9323D2*
X4150D1*
X4210D2*
X4220D1*
X4970D2*
X4980D1*
X5589D2*
X5606D1*
X4140Y9313D2*
X4150D1*
X4210D2*
X4220D1*
X4970D2*
X4980D1*
X5581D2*
X5599D1*
X4140Y9303D2*
X4150D1*
X4210D2*
X4220D1*
X4970D2*
X4980D1*
X5574D2*
X5591D1*
X4140Y9293D2*
X4150D1*
X4210D2*
X4220D1*
X4970D2*
X4980D1*
X5567D2*
X5584D1*
X4140Y9283D2*
X4150D1*
X4210D2*
X4220D1*
X4890D2*
X4900D1*
X4970D2*
X4980D1*
X5559D2*
X5577D1*
X4140Y9273D2*
X4150D1*
X4870D2*
X4890D1*
X4970D2*
X4981D1*
X5551D2*
X5569D1*
X4140Y9263D2*
X4152D1*
X4852D2*
X4877D1*
X4968D2*
X4983D1*
X5544D2*
X5561D1*
X4141Y9253D2*
X4158D1*
X4834D2*
X4862D1*
X4962D2*
X4992D1*
X5539D2*
X5554D1*
X4143Y9243D2*
X4167D1*
X4817D2*
X4846D1*
X4953D2*
X5011D1*
X5534D2*
X5547D1*
X4152Y9233D2*
X4180D1*
X4798D2*
X4828D1*
X4940D2*
X5035D1*
X5530D2*
X5540D1*
X4165Y9223D2*
X4195D1*
X4780D2*
X4810D1*
X4925D2*
X4948D1*
X5010D2*
X5063D1*
X4181Y9213D2*
X4212D1*
X4761D2*
X4791D1*
X4908D2*
X4934D1*
X5040D2*
X5094D1*
X4197Y9203D2*
X4229D1*
X4744D2*
X4774D1*
X4891D2*
X4917D1*
X5070D2*
X5125D1*
X4214Y9193D2*
X4246D1*
X4727D2*
X4757D1*
X4874D2*
X4899D1*
X5102D2*
X5156D1*
X5350D2*
X5380D1*
X5490D2*
X5510D1*
X4232Y9183D2*
X4264D1*
X4709D2*
X4739D1*
X4856D2*
X4881D1*
X5134D2*
X5188D1*
X5350D2*
X5385D1*
X5490D2*
X5510D1*
X4251Y9173D2*
X4282D1*
X4691D2*
X4721D1*
X4838D2*
X4864D1*
X5167D2*
X5218D1*
X5350D2*
X5392D1*
X5490D2*
X5510D1*
X4270Y9163D2*
X4300D1*
X4674D2*
X4704D1*
X4819D2*
X4847D1*
X5199D2*
X5247D1*
X5350D2*
X5399D1*
X5490D2*
X5510D1*
X4290Y9153D2*
X4319D1*
X4657D2*
X4687D1*
X4800D2*
X4829D1*
X5231D2*
X5270D1*
X5350D2*
X5406D1*
X5490D2*
X5510D1*
X4308Y9143D2*
X4336D1*
X4638D2*
X4668D1*
X4780D2*
X4811D1*
X5265D2*
X5287D1*
X5350D2*
X5370D1*
X5392D2*
X5413D1*
X5490D2*
X5510D1*
X4326Y9133D2*
X4353D1*
X4619D2*
X4649D1*
X4762D2*
X4794D1*
X5300D2*
D3*
X5350D2*
X5370D1*
X5396D2*
X5420D1*
X5490D2*
X5510D1*
X4343Y9123D2*
X4371D1*
X4601D2*
X4630D1*
X4744D2*
X4777D1*
X5350D2*
X5370D1*
X5402D2*
X5427D1*
X5490D2*
X5510D1*
X4361Y9113D2*
X4389D1*
X4584D2*
X4612D1*
X4727D2*
X4758D1*
X5350D2*
X5370D1*
X5409D2*
X5433D1*
X5490D2*
X5510D1*
X4379Y9103D2*
X4406D1*
X4571D2*
X4595D1*
X4709D2*
X4740D1*
X5350D2*
X5370D1*
X5416D2*
X5440D1*
X5490D2*
X5510D1*
X4396Y9093D2*
X4423D1*
X4560D2*
X4580D1*
X4691D2*
X4721D1*
X5350D2*
X5370D1*
X5423D2*
X5447D1*
X5490D2*
X5510D1*
X4413Y9083D2*
X4442D1*
X4674D2*
X4704D1*
X5350D2*
X5370D1*
X5430D2*
X5453D1*
X5490D2*
X5510D1*
X4432Y9073D2*
X4461D1*
X4657D2*
X4687D1*
X5350D2*
X5370D1*
X5437D2*
X5460D1*
X5490D2*
X5510D1*
X4450Y9063D2*
X4480D1*
X4638D2*
X4668D1*
X5350D2*
X5370D1*
X5443D2*
X5467D1*
X5488D2*
X5510D1*
X4469Y9053D2*
X4498D1*
X4620D2*
X4650D1*
X5350D2*
X5370D1*
X5450D2*
X5473D1*
X5485D2*
X5510D1*
X4486Y9043D2*
X4516D1*
X4602D2*
X4631D1*
X5350D2*
X5370D1*
X5457D2*
X5510D1*
X4503Y9033D2*
X4533D1*
X4585D2*
X4614D1*
X5350D2*
X5370D1*
X5464D2*
X5510D1*
X4522Y9023D2*
X4550D1*
X4570D2*
X4597D1*
X5350D2*
X5370D1*
X5472D2*
X5510D1*
X4541Y9013D2*
X4579D1*
X5350D2*
X5370D1*
X5481D2*
X5510D1*
X4560Y9003D2*
D3*
X5350D2*
X5370D1*
X5490D2*
X5510D1*
X5350Y8953D2*
X5370D1*
X5490D2*
X5510D1*
X5350Y8943D2*
X5370D1*
X5490D2*
X5510D1*
X5350Y8933D2*
X5370D1*
X5490D2*
X5510D1*
X5350Y8923D2*
X5370D1*
X5490D2*
X5510D1*
X5350Y8913D2*
X5370D1*
X5490D2*
X5510D1*
X5350Y8903D2*
X5370D1*
X5490D2*
X5510D1*
X5350Y8893D2*
X5370D1*
X5490D2*
X5510D1*
X5350Y8883D2*
X5370D1*
X5490D2*
X5510D1*
X5350Y8873D2*
X5510D1*
X5350Y8863D2*
X5510D1*
X5350Y8853D2*
X5510D1*
X5350Y8843D2*
X5370D1*
X5490D2*
X5510D1*
X5350Y8833D2*
X5370D1*
X5490D2*
X5510D1*
X5350Y8823D2*
X5370D1*
X5490D2*
X5510D1*
X5350Y8813D2*
X5370D1*
X5490D2*
X5510D1*
X5350Y8803D2*
X5370D1*
X5490D2*
X5510D1*
X5350Y8793D2*
X5370D1*
X5490D2*
X5510D1*
X5350Y8783D2*
X5370D1*
X5490D2*
X5510D1*
X5350Y8773D2*
X5370D1*
X5490D2*
X5510D1*
X5350Y8763D2*
X5370D1*
X5490D2*
X5510D1*
X5350Y8753D2*
X5370D1*
X5490D2*
X5510D1*
X5570Y10393D2*
X5546Y10383D1*
X5528Y10373D1*
X5514Y10363D1*
X5503Y10353D1*
X5496Y10343D1*
X5491Y10333D1*
X5487Y10323D1*
X5484Y10313D1*
X5482Y10303D1*
X5481Y10293D1*
X5480Y10283D1*
X5481Y10273D1*
X5482Y10263D1*
X5484Y10253D1*
X5488Y10243D1*
X5493Y10233D1*
X5500Y10223D1*
X5509Y10213D1*
X5523Y10203D1*
X5540Y10193D1*
X5560Y10183D1*
X5590Y10393D2*
X5612Y10383D1*
X5630Y10373D1*
X5642Y10363D1*
X5650Y10353D1*
X5657Y10343D1*
X5662Y10333D1*
X5666Y10323D1*
X5668Y10313D1*
X5669Y10303D1*
X5670Y10293D1*
Y10283D1*
Y10273D1*
Y10263D1*
X5668Y10253D1*
X5666Y10243D1*
X5661Y10233D1*
X5655Y10223D1*
X5646Y10213D1*
X5633Y10203D1*
X5617Y10193D1*
X5600Y10183D1*
X5720Y10383D2*
Y10373D1*
Y10363D1*
Y10353D1*
Y10343D1*
Y10333D1*
Y10323D1*
Y10313D1*
Y10303D1*
Y10293D1*
Y10283D1*
Y10273D1*
Y10263D1*
Y10253D1*
Y10243D1*
Y10233D1*
Y10223D1*
Y10213D1*
Y10203D1*
Y10193D1*
X5740Y10383D2*
Y10373D1*
Y10363D1*
Y10353D1*
Y10343D1*
Y10333D1*
Y10323D1*
Y10313D1*
X5850Y10303D1*
X5860Y10383D2*
Y10373D1*
Y10363D1*
Y10353D1*
Y10343D1*
Y10333D1*
Y10323D1*
Y10313D1*
X5750Y10303D1*
X5880Y10383D2*
Y10373D1*
Y10363D1*
Y10353D1*
Y10343D1*
Y10333D1*
Y10323D1*
Y10313D1*
Y10303D1*
Y10293D1*
Y10283D1*
Y10273D1*
Y10263D1*
Y10253D1*
Y10243D1*
Y10233D1*
Y10223D1*
Y10213D1*
Y10203D1*
Y10193D1*
X5550Y10373D2*
X5540Y10363D1*
X5530Y10353D1*
X5520Y10343D1*
X5512Y10333D1*
X5506Y10323D1*
X5503Y10313D1*
X5501Y10303D1*
X5500Y10293D1*
Y10283D1*
Y10273D1*
X5502Y10263D1*
X5504Y10253D1*
X5509Y10243D1*
X5515Y10233D1*
X5537Y10223D1*
X5574Y10213D1*
X5620Y10203D1*
X5590Y10373D2*
X5608Y10363D1*
X5622Y10353D1*
X5633Y10343D1*
X5640Y10333D1*
X5645Y10323D1*
X5649Y10313D1*
X5653Y10303D1*
X5655Y10293D1*
X5654Y10283D1*
X5653Y10273D1*
X5651Y10263D1*
X5649Y10253D1*
X5645Y10243D1*
X5637Y10233D1*
X5614Y10223D1*
X5577Y10213D1*
X5530Y10203D1*
X5740Y10283D2*
Y10273D1*
Y10263D1*
Y10253D1*
Y10243D1*
Y10233D1*
Y10223D1*
Y10213D1*
Y10203D1*
Y10193D1*
X5860Y10283D2*
Y10273D1*
Y10263D1*
Y10253D1*
Y10243D1*
Y10233D1*
Y10223D1*
Y10213D1*
Y10203D1*
Y10193D1*
X5530Y10153D2*
X5525Y10143D1*
X5521Y10133D1*
X5517Y10123D1*
X5513Y10113D1*
X5510Y10103D1*
X5507Y10093D1*
X5503Y10083D1*
X5500Y10073D1*
X5497Y10063D1*
X5493Y10053D1*
X5490Y10043D1*
X5487Y10033D1*
X5483Y10023D1*
X5480Y10013D1*
X5477Y10003D1*
X5473Y9993D1*
X5470Y9983D1*
X5467Y9973D1*
X5463Y9963D1*
X5460Y9953D1*
X5457Y9943D1*
X5453Y9933D1*
X5450Y9923D1*
X5447Y9913D1*
X5443Y9903D1*
X5440Y9893D1*
X5436Y9883D1*
X5431Y9873D1*
X5423Y9863D1*
X5406Y9853D1*
X5383Y9843D1*
X5356Y9833D1*
X5325Y9823D1*
X5293Y9813D1*
X5261Y9803D1*
X5229Y9793D1*
X5196Y9783D1*
X5163Y9773D1*
X5131Y9763D1*
X5099Y9753D1*
X5068Y9743D1*
X5038Y9733D1*
X5010Y9723D1*
X5540Y10153D2*
X5535Y10143D1*
X5531Y10133D1*
X5527Y10123D1*
X5523Y10113D1*
X5520Y10103D1*
X5517Y10093D1*
X5513Y10083D1*
X5510Y10073D1*
X5507Y10063D1*
X5503Y10053D1*
X5500Y10043D1*
X5497Y10033D1*
X5493Y10023D1*
X5490Y10013D1*
X5487Y10003D1*
X5483Y9993D1*
X5480Y9983D1*
X5477Y9973D1*
X5473Y9963D1*
X5470Y9953D1*
X5467Y9943D1*
X5463Y9933D1*
X5460Y9923D1*
X5457Y9913D1*
X5453Y9903D1*
X5450Y9893D1*
X5447Y9883D1*
X5444Y9873D1*
X5442Y9863D1*
Y9853D1*
X5446Y9843D1*
X5451Y9833D1*
X5457Y9823D1*
X5464Y9813D1*
X5471Y9803D1*
X5479Y9793D1*
X5486Y9783D1*
X5493Y9773D1*
X5501Y9763D1*
X5509Y9753D1*
X5516Y9743D1*
X5523Y9733D1*
X5531Y9723D1*
X5539Y9713D1*
X5546Y9703D1*
X5553Y9693D1*
X5562Y9683D1*
X5570Y9673D1*
X5579Y9663D1*
X5586Y9653D1*
X5593Y9643D1*
X5600Y9633D1*
X5607Y9623D1*
X5614Y9613D1*
X5622Y9603D1*
X5630Y9593D1*
X5639Y9583D1*
X5646Y9573D1*
X5653Y9563D1*
X5661Y9553D1*
X5669Y9543D1*
X5676Y9533D1*
X5683Y9523D1*
X5691Y9513D1*
X5699Y9503D1*
X5706Y9493D1*
X5713Y9483D1*
X5720Y9473D1*
X5712Y9463D1*
X5704Y9453D1*
X5697Y9443D1*
X5690Y9433D1*
X5683Y9423D1*
X5676Y9413D1*
X5668Y9403D1*
X5659Y9393D1*
X5650Y9383D1*
X5642Y9373D1*
X5634Y9363D1*
X5627Y9353D1*
X5620Y9343D1*
X5613Y9333D1*
X5606Y9323D1*
X5599Y9313D1*
X5591Y9303D1*
X5584Y9293D1*
X5577Y9283D1*
X5569Y9273D1*
X5561Y9263D1*
X5554Y9253D1*
X5547Y9243D1*
X5540Y9233D1*
X4560Y9943D2*
X4540Y9933D1*
X4520Y9923D1*
X4502Y9913D1*
X4484Y9903D1*
X4467Y9893D1*
X4448Y9883D1*
X4429Y9873D1*
X4410Y9863D1*
X4392Y9853D1*
X4374Y9843D1*
X4357Y9833D1*
X4339Y9823D1*
X4321Y9813D1*
X4304Y9803D1*
X4287Y9793D1*
X4268Y9783D1*
X4250Y9773D1*
X4231Y9763D1*
X4214Y9753D1*
X4197Y9743D1*
X4179Y9733D1*
X4163Y9723D1*
X4150Y9713D1*
X4145Y9703D1*
X4142Y9693D1*
X4141Y9683D1*
X4140Y9673D1*
Y9663D1*
Y9653D1*
Y9643D1*
Y9633D1*
Y9623D1*
Y9613D1*
Y9603D1*
Y9593D1*
Y9583D1*
Y9573D1*
Y9563D1*
Y9553D1*
Y9543D1*
Y9533D1*
Y9523D1*
Y9513D1*
Y9503D1*
Y9493D1*
Y9483D1*
Y9473D1*
Y9463D1*
Y9453D1*
Y9443D1*
Y9433D1*
Y9423D1*
Y9413D1*
Y9403D1*
Y9393D1*
Y9383D1*
Y9373D1*
Y9363D1*
Y9353D1*
Y9343D1*
Y9333D1*
Y9323D1*
Y9313D1*
Y9303D1*
Y9293D1*
Y9283D1*
Y9273D1*
Y9263D1*
X4141Y9253D1*
X4143Y9243D1*
X4152Y9233D1*
X4165Y9223D1*
X4181Y9213D1*
X4197Y9203D1*
X4214Y9193D1*
X4232Y9183D1*
X4251Y9173D1*
X4270Y9163D1*
X4290Y9153D1*
X4308Y9143D1*
X4326Y9133D1*
X4343Y9123D1*
X4361Y9113D1*
X4379Y9103D1*
X4396Y9093D1*
X4413Y9083D1*
X4432Y9073D1*
X4450Y9063D1*
X4469Y9053D1*
X4486Y9043D1*
X4503Y9033D1*
X4522Y9023D1*
X4541Y9013D1*
X4560Y9003D1*
X4580Y9933D2*
X4598Y9923D1*
X4616Y9913D1*
X4633Y9903D1*
X4652Y9893D1*
X4670Y9883D1*
X4689Y9873D1*
X4706Y9863D1*
X4723Y9853D1*
X4741Y9843D1*
X4759Y9833D1*
X4776Y9823D1*
X4793Y9813D1*
X4812Y9803D1*
X4830Y9793D1*
X4849Y9783D1*
X4866Y9773D1*
X4883Y9763D1*
X4901Y9753D1*
X4919Y9743D1*
X4935Y9733D1*
X4950Y9723D1*
X4570Y9933D2*
X4550Y9923D1*
X4532Y9913D1*
X4514Y9903D1*
X4497Y9893D1*
X4478Y9883D1*
X4459Y9873D1*
X4440Y9863D1*
X4422Y9853D1*
X4404Y9843D1*
X4387Y9833D1*
X4369Y9823D1*
X4351Y9813D1*
X4334Y9803D1*
X4317Y9793D1*
X4299Y9783D1*
X4281Y9773D1*
X4264Y9763D1*
X4247Y9753D1*
X4229Y9743D1*
X4211Y9733D1*
X4194Y9723D1*
X4179Y9713D1*
X4167Y9703D1*
X4157Y9693D1*
X4153Y9683D1*
X4151Y9673D1*
Y9663D1*
X4150Y9653D1*
Y9643D1*
Y9633D1*
Y9623D1*
Y9613D1*
Y9603D1*
Y9593D1*
Y9583D1*
Y9573D1*
Y9563D1*
Y9553D1*
Y9543D1*
Y9533D1*
Y9523D1*
Y9513D1*
Y9503D1*
Y9493D1*
Y9483D1*
Y9473D1*
Y9463D1*
Y9453D1*
Y9443D1*
Y9433D1*
Y9423D1*
Y9413D1*
Y9403D1*
Y9393D1*
Y9383D1*
Y9373D1*
Y9363D1*
Y9353D1*
Y9343D1*
Y9333D1*
Y9323D1*
Y9313D1*
Y9303D1*
Y9293D1*
Y9283D1*
Y9273D1*
X4152Y9263D1*
X4158Y9253D1*
X4167Y9243D1*
X4180Y9233D1*
X4195Y9223D1*
X4212Y9213D1*
X4229Y9203D1*
X4246Y9193D1*
X4264Y9183D1*
X4282Y9173D1*
X4300Y9163D1*
X4319Y9153D1*
X4336Y9143D1*
X4353Y9133D1*
X4371Y9123D1*
X4389Y9113D1*
X4406Y9103D1*
X4423Y9093D1*
X4442Y9083D1*
X4461Y9073D1*
X4480Y9063D1*
X4498Y9053D1*
X4516Y9043D1*
X4533Y9033D1*
X4550Y9023D1*
Y9933D2*
X4568Y9923D1*
X4586Y9913D1*
X4603Y9903D1*
X4622Y9893D1*
X4641Y9883D1*
X4660Y9873D1*
X4678Y9863D1*
X4696Y9853D1*
X4713Y9843D1*
X4730Y9833D1*
X4747Y9823D1*
X4764Y9813D1*
X4782Y9803D1*
X4801Y9793D1*
X4820Y9783D1*
X4838Y9773D1*
X4856Y9763D1*
X4873Y9753D1*
X4891Y9743D1*
X4909Y9733D1*
X4926Y9723D1*
X4941Y9713D1*
X4953Y9703D1*
X4963Y9693D1*
X4967Y9683D1*
X4969Y9673D1*
Y9663D1*
X4970Y9653D1*
Y9643D1*
Y9633D1*
Y9623D1*
Y9613D1*
Y9603D1*
Y9593D1*
Y9583D1*
Y9573D1*
Y9563D1*
Y9553D1*
Y9543D1*
Y9533D1*
Y9523D1*
Y9513D1*
Y9503D1*
Y9493D1*
Y9483D1*
Y9473D1*
Y9463D1*
Y9453D1*
Y9443D1*
Y9433D1*
Y9423D1*
Y9413D1*
Y9403D1*
Y9393D1*
Y9383D1*
Y9373D1*
Y9363D1*
Y9353D1*
Y9343D1*
Y9333D1*
Y9323D1*
Y9313D1*
Y9303D1*
Y9293D1*
Y9283D1*
Y9273D1*
X4968Y9263D1*
X4962Y9253D1*
X4953Y9243D1*
X4940Y9233D1*
X4925Y9223D1*
X4908Y9213D1*
X4891Y9203D1*
X4874Y9193D1*
X4856Y9183D1*
X4838Y9173D1*
X4819Y9163D1*
X4800Y9153D1*
X4780Y9143D1*
X4762Y9133D1*
X4744Y9123D1*
X4727Y9113D1*
X4709Y9103D1*
X4691Y9093D1*
X4674Y9083D1*
X4657Y9073D1*
X4638Y9063D1*
X4620Y9053D1*
X4602Y9043D1*
X4585Y9033D1*
X4570Y9023D1*
X4560Y9853D2*
X4572Y9843D1*
X4586Y9833D1*
X4603Y9823D1*
X4621Y9813D1*
X4639Y9803D1*
X4656Y9793D1*
X4673Y9783D1*
X4692Y9773D1*
X4711Y9763D1*
X4730Y9753D1*
X4748Y9743D1*
X4766Y9733D1*
X4783Y9723D1*
X4801Y9713D1*
X4819Y9703D1*
X4836Y9693D1*
X4853Y9683D1*
X4871Y9673D1*
X4890Y9663D1*
X4580Y9853D2*
X4597Y9843D1*
X4614Y9833D1*
X4632Y9823D1*
X4650Y9813D1*
X4669Y9803D1*
X4686Y9793D1*
X4703Y9783D1*
X4722Y9773D1*
X4741Y9763D1*
X4760Y9753D1*
X4778Y9743D1*
X4796Y9733D1*
X4813Y9723D1*
X4831Y9713D1*
X4849Y9703D1*
X4866Y9693D1*
X4883Y9683D1*
X4900Y9673D1*
X4890Y9663D1*
X5440Y9843D2*
X5410Y9833D1*
X5380Y9823D1*
X5348Y9813D1*
X5316Y9803D1*
X5283Y9793D1*
X5251Y9783D1*
X5219Y9773D1*
X5186Y9763D1*
X5153Y9753D1*
X5122Y9743D1*
X5091Y9733D1*
X5061Y9723D1*
X5033Y9713D1*
X5010Y9703D1*
X4993Y9693D1*
X4985Y9683D1*
X4982Y9673D1*
X4981Y9663D1*
X4980Y9653D1*
Y9643D1*
Y9633D1*
Y9623D1*
Y9613D1*
Y9603D1*
Y9593D1*
Y9583D1*
Y9573D1*
Y9563D1*
Y9553D1*
Y9543D1*
Y9533D1*
Y9523D1*
Y9513D1*
Y9503D1*
Y9493D1*
Y9483D1*
Y9473D1*
Y9463D1*
Y9453D1*
Y9443D1*
Y9433D1*
Y9423D1*
Y9413D1*
Y9403D1*
Y9393D1*
Y9383D1*
Y9373D1*
Y9363D1*
Y9353D1*
Y9343D1*
Y9333D1*
Y9323D1*
Y9313D1*
Y9303D1*
Y9293D1*
Y9283D1*
X4981Y9273D1*
X4983Y9263D1*
X4992Y9253D1*
X5011Y9243D1*
X5035Y9233D1*
X5063Y9223D1*
X5094Y9213D1*
X5125Y9203D1*
X5156Y9193D1*
X5188Y9183D1*
X5218Y9173D1*
X5247Y9163D1*
X5270Y9153D1*
X5287Y9143D1*
X5300Y9133D1*
X5420Y9843D2*
X5430Y9833D1*
X5440Y9823D1*
X5448Y9813D1*
X5456Y9803D1*
X5463Y9793D1*
X5471Y9783D1*
X5479Y9773D1*
X5486Y9763D1*
X5493Y9753D1*
X5501Y9743D1*
X5509Y9733D1*
X5516Y9723D1*
X5523Y9713D1*
X5531Y9703D1*
X5539Y9693D1*
X5546Y9683D1*
X5553Y9673D1*
X5562Y9663D1*
X5570Y9653D1*
X5579Y9643D1*
X5586Y9633D1*
X5593Y9623D1*
X5601Y9613D1*
X5609Y9603D1*
X5616Y9593D1*
X5623Y9583D1*
X5630Y9573D1*
X5637Y9563D1*
X5644Y9553D1*
X5651Y9543D1*
X5659Y9533D1*
X5666Y9523D1*
X5673Y9513D1*
X5681Y9503D1*
X5689Y9493D1*
X5695Y9483D1*
X5697Y9473D1*
X5693Y9463D1*
X5687Y9453D1*
X5680Y9443D1*
X5674Y9433D1*
X5666Y9423D1*
X5659Y9413D1*
X5651Y9403D1*
X5644Y9393D1*
X5637Y9383D1*
X5628Y9373D1*
X5620Y9363D1*
X5611Y9353D1*
X5604Y9343D1*
X5597Y9333D1*
X5589Y9323D1*
X5581Y9313D1*
X5574Y9303D1*
X5567Y9293D1*
X5559Y9283D1*
X5551Y9273D1*
X5544Y9263D1*
X5539Y9253D1*
X5534Y9243D1*
X5530Y9233D1*
X5400Y9763D2*
X5407Y9753D1*
X5414Y9743D1*
X5421Y9733D1*
X5429Y9723D1*
X5436Y9713D1*
X5443Y9703D1*
X5451Y9693D1*
X5459Y9683D1*
X5466Y9673D1*
X5473Y9663D1*
X5481Y9653D1*
X5489Y9643D1*
X5496Y9633D1*
X5503Y9623D1*
X5511Y9613D1*
X5519Y9603D1*
X5526Y9593D1*
X5533Y9583D1*
X5541Y9573D1*
X5549Y9563D1*
X5556Y9553D1*
X5563Y9543D1*
X5571Y9533D1*
X5579Y9523D1*
X5586Y9513D1*
X5593Y9503D1*
X5602Y9493D1*
X5611Y9483D1*
X5620Y9473D1*
X5410Y9763D2*
X5420Y9753D1*
X5428Y9743D1*
X5436Y9733D1*
X5443Y9723D1*
X5451Y9713D1*
X5459Y9703D1*
X5466Y9693D1*
X5473Y9683D1*
X5481Y9673D1*
X5489Y9663D1*
X5496Y9653D1*
X5503Y9643D1*
X5511Y9633D1*
X5519Y9623D1*
X5526Y9613D1*
X5533Y9603D1*
X5541Y9593D1*
X5549Y9583D1*
X5556Y9573D1*
X5563Y9563D1*
X5571Y9553D1*
X5579Y9543D1*
X5586Y9533D1*
X5593Y9523D1*
X5601Y9513D1*
X5609Y9503D1*
X5614Y9493D1*
X5618Y9483D1*
X5620Y9473D1*
X4210Y9663D2*
Y9653D1*
Y9643D1*
Y9633D1*
Y9623D1*
Y9613D1*
Y9603D1*
Y9593D1*
Y9583D1*
Y9573D1*
Y9563D1*
Y9553D1*
Y9543D1*
Y9533D1*
Y9523D1*
Y9513D1*
Y9503D1*
Y9493D1*
Y9483D1*
Y9473D1*
Y9463D1*
Y9453D1*
Y9443D1*
Y9433D1*
Y9423D1*
Y9413D1*
Y9403D1*
Y9393D1*
Y9383D1*
Y9373D1*
Y9363D1*
Y9353D1*
Y9343D1*
Y9333D1*
Y9323D1*
Y9313D1*
Y9303D1*
Y9293D1*
Y9283D1*
X4220Y9663D2*
Y9653D1*
Y9643D1*
Y9633D1*
Y9623D1*
Y9613D1*
Y9603D1*
Y9593D1*
Y9583D1*
Y9573D1*
Y9563D1*
Y9553D1*
Y9543D1*
Y9533D1*
Y9523D1*
Y9513D1*
Y9503D1*
Y9493D1*
Y9483D1*
Y9473D1*
Y9463D1*
Y9453D1*
Y9443D1*
Y9433D1*
Y9423D1*
Y9413D1*
Y9403D1*
Y9393D1*
Y9383D1*
Y9373D1*
Y9363D1*
Y9353D1*
Y9343D1*
Y9333D1*
Y9323D1*
Y9313D1*
Y9303D1*
Y9293D1*
Y9283D1*
X4890D2*
X4870Y9273D1*
X4852Y9263D1*
X4834Y9253D1*
X4817Y9243D1*
X4798Y9233D1*
X4780Y9223D1*
X4761Y9213D1*
X4744Y9203D1*
X4727Y9193D1*
X4709Y9183D1*
X4691Y9173D1*
X4674Y9163D1*
X4657Y9153D1*
X4638Y9143D1*
X4619Y9133D1*
X4601Y9123D1*
X4584Y9113D1*
X4571Y9103D1*
X4560Y9093D1*
X4900Y9283D2*
X4890Y9273D1*
X4877Y9263D1*
X4862Y9253D1*
X4846Y9243D1*
X4828Y9233D1*
X4810Y9223D1*
X4791Y9213D1*
X4774Y9203D1*
X4757Y9193D1*
X4739Y9183D1*
X4721Y9173D1*
X4704Y9163D1*
X4687Y9153D1*
X4668Y9143D1*
X4649Y9133D1*
X4630Y9123D1*
X4612Y9113D1*
X4595Y9103D1*
X4580Y9093D1*
X4960Y9233D2*
X4948Y9223D1*
X4934Y9213D1*
X4917Y9203D1*
X4899Y9193D1*
X4881Y9183D1*
X4864Y9173D1*
X4847Y9163D1*
X4829Y9153D1*
X4811Y9143D1*
X4794Y9133D1*
X4777Y9123D1*
X4758Y9113D1*
X4740Y9103D1*
X4721Y9093D1*
X4704Y9083D1*
X4687Y9073D1*
X4668Y9063D1*
X4650Y9053D1*
X4631Y9043D1*
X4614Y9033D1*
X4597Y9023D1*
X4579Y9013D1*
X4560Y9003D1*
X4980Y9233D2*
X5010Y9223D1*
X5040Y9213D1*
X5070Y9203D1*
X5102Y9193D1*
X5134Y9183D1*
X5167Y9173D1*
X5199Y9163D1*
X5231Y9153D1*
X5265Y9143D1*
X5300Y9133D1*
X5350Y9193D2*
Y9183D1*
Y9173D1*
Y9163D1*
Y9153D1*
Y9143D1*
Y9133D1*
Y9123D1*
Y9113D1*
Y9103D1*
Y9093D1*
Y9083D1*
Y9073D1*
Y9063D1*
Y9053D1*
Y9043D1*
Y9033D1*
Y9023D1*
Y9013D1*
Y9003D1*
X5380Y9193D2*
X5385Y9183D1*
X5392Y9173D1*
X5399Y9163D1*
X5406Y9153D1*
X5413Y9143D1*
X5420Y9133D1*
X5427Y9123D1*
X5433Y9113D1*
X5440Y9103D1*
X5447Y9093D1*
X5453Y9083D1*
X5460Y9073D1*
X5467Y9063D1*
X5473Y9053D1*
X5480Y9043D1*
X5490Y9193D2*
Y9183D1*
Y9173D1*
Y9163D1*
Y9153D1*
Y9143D1*
Y9133D1*
Y9123D1*
Y9113D1*
Y9103D1*
Y9093D1*
Y9083D1*
Y9073D1*
X5488Y9063D1*
X5485Y9053D1*
X5480Y9043D1*
X5510Y9193D2*
Y9183D1*
Y9173D1*
Y9163D1*
Y9153D1*
Y9143D1*
Y9133D1*
Y9123D1*
Y9113D1*
Y9103D1*
Y9093D1*
Y9083D1*
Y9073D1*
Y9063D1*
Y9053D1*
Y9043D1*
Y9033D1*
Y9023D1*
Y9013D1*
Y9003D1*
X5370Y9153D2*
Y9143D1*
Y9133D1*
Y9123D1*
Y9113D1*
Y9103D1*
Y9093D1*
Y9083D1*
Y9073D1*
Y9063D1*
Y9053D1*
Y9043D1*
Y9033D1*
Y9023D1*
Y9013D1*
Y9003D1*
X5390Y9153D2*
X5392Y9143D1*
X5396Y9133D1*
X5402Y9123D1*
X5409Y9113D1*
X5416Y9103D1*
X5423Y9093D1*
X5430Y9083D1*
X5437Y9073D1*
X5443Y9063D1*
X5450Y9053D1*
X5457Y9043D1*
X5464Y9033D1*
X5472Y9023D1*
X5481Y9013D1*
X5490Y9003D1*
X5350Y8953D2*
Y8943D1*
Y8933D1*
Y8923D1*
Y8913D1*
Y8903D1*
Y8893D1*
Y8883D1*
Y8873D1*
Y8863D1*
Y8853D1*
Y8843D1*
Y8833D1*
Y8823D1*
Y8813D1*
Y8803D1*
Y8793D1*
Y8783D1*
Y8773D1*
Y8763D1*
Y8753D1*
X5370Y8953D2*
Y8943D1*
Y8933D1*
Y8923D1*
Y8913D1*
Y8903D1*
Y8893D1*
Y8883D1*
X5480Y8873D1*
X5490Y8953D2*
Y8943D1*
Y8933D1*
Y8923D1*
Y8913D1*
Y8903D1*
Y8893D1*
Y8883D1*
X5380Y8873D1*
X5510Y8953D2*
Y8943D1*
Y8933D1*
Y8923D1*
Y8913D1*
Y8903D1*
Y8893D1*
Y8883D1*
Y8873D1*
Y8863D1*
Y8853D1*
Y8843D1*
Y8833D1*
Y8823D1*
Y8813D1*
Y8803D1*
Y8793D1*
Y8783D1*
Y8773D1*
Y8763D1*
Y8753D1*
X5370Y8853D2*
Y8843D1*
Y8833D1*
Y8823D1*
Y8813D1*
Y8803D1*
Y8793D1*
Y8783D1*
Y8773D1*
Y8763D1*
Y8753D1*
X5490Y8853D2*
Y8843D1*
Y8833D1*
Y8823D1*
Y8813D1*
Y8803D1*
Y8793D1*
Y8783D1*
Y8773D1*
Y8763D1*
Y8753D1*
X7227Y6412D2*
D43*
Y6053D1*
X7250Y5981D1*
X7298Y5933D1*
X7370Y5909D1*
X7418D1*
X7490Y5933D1*
X7538Y5981D1*
X7561Y6053D1*
Y6412D1*
X7716Y6315D2*
X7764Y6340D1*
X7836Y6411D1*
Y5909D1*
X9388Y4388D2*
D44*
X9245D1*
X9231Y4259D1*
X9245Y4273D1*
X9288Y4287D1*
X9331D1*
X9374Y4273D1*
X9403Y4244D1*
X9417Y4201D1*
Y4173D1*
X9403Y4130D1*
X9374Y4101D1*
X9331Y4087D1*
X9288D1*
X9245Y4101D1*
X9231Y4115D1*
X9216Y4144D1*
X9510Y4287D2*
X9596Y4087D1*
X9682Y4287D1*
X9251Y6336D2*
X9237Y6365D1*
X9208Y6394D1*
X9180Y6408D1*
X9122D1*
X9093Y6394D1*
X9065Y6365D1*
X9050Y6336D1*
X9036Y6293D1*
Y6221D1*
X9050Y6178D1*
X9065Y6150D1*
X9093Y6121D1*
X9122Y6107D1*
X9180D1*
X9208Y6121D1*
X9237Y6150D1*
X9251Y6178D1*
Y6221D1*
X9180D1*
X9545Y6408D2*
Y6107D1*
X9344Y6408D1*
Y6107D1*
X9637Y6408D2*
Y6107D1*
X9738D1*
X9781Y6121D1*
X9810Y6150D1*
X9824Y6178D1*
X9838Y6221D1*
Y6293D1*
X9824Y6336D1*
X9810Y6365D1*
X9781Y6394D1*
X9738Y6408D1*
X9637D1*
X5725Y6097D2*
Y6398D1*
X5611Y6097D1*
X5496Y6398D1*
Y6097D1*
X5818Y6398D2*
Y6097D1*
X6112Y6355D2*
X6083Y6384D1*
X6040Y6398D1*
X5983D1*
X5940Y6384D1*
X5911Y6355D1*
Y6326D1*
X5925Y6297D1*
X5940Y6283D1*
X5968Y6269D1*
X6054Y6240D1*
X6083Y6226D1*
X6097Y6211D1*
X6112Y6183D1*
Y6140D1*
X6083Y6111D1*
X6040Y6097D1*
X5983D1*
X5940Y6111D1*
X5911Y6140D1*
X6291Y6398D2*
X6262Y6384D1*
X6233Y6355D1*
X6219Y6326D1*
X6204Y6283D1*
Y6211D1*
X6219Y6168D1*
X6233Y6140D1*
X6262Y6111D1*
X6291Y6097D1*
X6348D1*
X6376Y6111D1*
X6405Y6140D1*
X6420Y6168D1*
X6434Y6211D1*
Y6283D1*
X6420Y6326D1*
X6405Y6355D1*
X6376Y6384D1*
X6348Y6398D1*
X6291D1*
X9095Y5097D2*
Y5398D1*
X8981Y5097D1*
X8866Y5398D1*
Y5097D1*
X9274Y5398D2*
X9245Y5384D1*
X9217Y5355D1*
X9202Y5326D1*
X9188Y5283D1*
Y5211D1*
X9202Y5168D1*
X9217Y5140D1*
X9245Y5111D1*
X9274Y5097D1*
X9332D1*
X9360Y5111D1*
X9389Y5140D1*
X9403Y5168D1*
X9418Y5211D1*
Y5283D1*
X9403Y5326D1*
X9389Y5355D1*
X9360Y5384D1*
X9332Y5398D1*
X9274D1*
X9711Y5355D2*
X9683Y5384D1*
X9640Y5398D1*
X9582D1*
X9539Y5384D1*
X9510Y5355D1*
Y5326D1*
X9525Y5297D1*
X9539Y5283D1*
X9568Y5269D1*
X9654Y5240D1*
X9683Y5226D1*
X9697Y5211D1*
X9711Y5183D1*
Y5140D1*
X9683Y5111D1*
X9640Y5097D1*
X9582D1*
X9539Y5111D1*
X9510Y5140D1*
X9804Y5398D2*
Y5097D1*
X5737Y5355D2*
X5708Y5384D1*
X5665Y5398D1*
X5608D1*
X5565Y5384D1*
X5536Y5355D1*
Y5326D1*
X5551Y5297D1*
X5565Y5283D1*
X5593Y5269D1*
X5680Y5240D1*
X5708Y5226D1*
X5723Y5211D1*
X5737Y5183D1*
Y5140D1*
X5708Y5111D1*
X5665Y5097D1*
X5608D1*
X5565Y5111D1*
X5536Y5140D1*
X6045Y5326D2*
X6031Y5355D1*
X6002Y5384D1*
X5973Y5398D1*
X5916D1*
X5887Y5384D1*
X5858Y5355D1*
X5844Y5326D1*
X5830Y5283D1*
Y5211D1*
X5844Y5168D1*
X5858Y5140D1*
X5887Y5111D1*
X5916Y5097D1*
X5973D1*
X6002Y5111D1*
X6031Y5140D1*
X6045Y5168D1*
X6137Y5398D2*
Y5097D1*
X6338Y5398D2*
X6137Y5197D1*
X6209Y5269D2*
X6338Y5097D1*
X5566Y4234D2*
X5695D1*
X5738Y4249D1*
X5753Y4263D1*
X5767Y4292D1*
Y4321D1*
X5753Y4349D1*
X5738Y4364D1*
X5695Y4378D1*
X5566D1*
Y4077D1*
X5666Y4234D2*
X5767Y4077D1*
X6061Y4335D2*
X6032Y4364D1*
X5989Y4378D1*
X5932D1*
X5888Y4364D1*
X5860Y4335D1*
Y4306D1*
X5874Y4277D1*
X5888Y4263D1*
X5917Y4249D1*
X6003Y4220D1*
X6032Y4206D1*
X6046Y4191D1*
X6061Y4163D1*
Y4120D1*
X6032Y4091D1*
X5989Y4077D1*
X5932D1*
X5888Y4091D1*
X5860Y4120D1*
X6254Y4378D2*
Y4077D1*
X6153Y4378D2*
X6354D1*
M02*
